<svg width="50" height="50" viewBox="0 0 50 50" fill="none" xmlns="http://www.w3.org/2000/svg">
<g clip-path="url(#clip0_704_6541)">
<path d="M39.8551 48.1853L40.734 45.3997V41.9467C40.734 35.1115 35.901 29.4058 29.4661 28.0586C28.1337 28.7662 26.6138 29.1677 25 29.1677C23.3861 29.1677 21.8663 28.7662 20.5339 28.0586C14.099 29.4057 9.26599 35.1115 9.26599 41.9467V45.3997L10.1449 48.1853L25.3415 49.0642L39.8551 48.1853Z" fill="#B3E59F"/>
<path d="M12.5867 16.2759C12.5867 16.2759 9.84748 12.5855 9.7301 7.24757C9.72356 6.94893 9.9882 6.71651 10.2841 6.75724C10.896 6.84141 11.9178 6.91319 12.8594 6.65929C15.7368 5.88341 18.568 0.174814 23.556 0.00850499C28.5441 -0.157804 29.5114 2.17003 29.5114 2.17003C29.5114 2.17003 31.3463 1.07921 34.0863 1.44952C38.1876 2.00372 41.7902 8.25196 38.1286 16.8354L12.5867 16.2759Z" fill="#565E75"/>
<path d="M11.2073 17.9608C11.2073 19.8117 12.7117 20.9022 14.0354 20.9022L15.4646 19.6559C15.4646 19.6479 16.7113 17.9688 16.7113 17.9608L15.464 16.2644C15.0401 16.0312 14.5533 15.8984 14.0353 15.8984C12.7117 15.8983 11.5908 16.7646 11.2073 17.9608Z" fill="#EBBAA1"/>
<path d="M14.0354 20.0234C12.7118 20.0234 11.5909 19.1572 11.2074 17.9609C11.1157 18.247 11.0657 18.5517 11.0657 18.8682C11.0657 20.5083 12.3953 21.8379 14.0354 21.8379C14.6199 21.8379 15.1644 21.6684 15.6239 21.3769L16.4024 20.3388L15.4646 19.656C15.0405 19.8896 14.5538 20.0234 14.0354 20.0234Z" fill="#E8A990"/>
<path d="M38.7927 17.9608C38.7927 19.8117 37.2883 20.9022 35.9646 20.9022L34.5354 19.6559C34.5354 19.6479 33.2887 17.9688 33.2887 17.9608L34.536 16.2644C34.9599 16.0312 35.4467 15.8984 35.9647 15.8984C37.2883 15.8983 38.4092 16.7646 38.7927 17.9608Z" fill="#EBBAA1"/>
<path d="M35.9646 20.0234C37.2883 20.0234 38.4093 19.1572 38.7928 17.9609C38.8845 18.247 38.9345 18.5517 38.9345 18.8682C38.9345 20.5083 37.6049 21.8379 35.9647 21.8379C35.3803 21.8379 34.8357 21.6684 34.3763 21.3769L33.5977 20.3388L34.5354 19.656C34.9595 19.8896 35.4462 20.0234 35.9646 20.0234Z" fill="#E8A990"/>
<path d="M25 28.2325C30.2665 28.2325 34.5359 24.5324 34.5359 17.8178V15.0799C34.5359 14.2451 34.1961 13.442 33.5826 12.876C31.802 11.2334 29.8199 8.39168 29.0237 7.20496C28.8409 6.9325 28.453 6.90711 28.2314 7.1491C24.2148 11.5359 19.012 12.9978 16.684 13.4526C15.9747 13.5912 15.4642 14.2135 15.4642 14.9361V17.8178C15.464 24.1542 19.7335 28.2325 25 28.2325Z" fill="#FDD4BB"/>
<path d="M17.2517 50.0001H32.7482L33.5042 49.0929L32.7482 48.1855H17.2517L16.4957 49.0929L17.2517 50.0001Z" fill="#95D6A4"/>
<path d="M20.504 28.043C20.4949 28.1603 20.4888 28.2783 20.4888 28.3979C20.4888 30.8894 22.5085 32.9091 25 32.9091C27.4915 32.9091 29.5112 30.8894 29.5112 28.3979C29.5112 28.2783 29.5052 28.1602 29.496 28.043H20.504Z" fill="#EBBAA1"/>
<path d="M40.734 48.1855L37.1191 49.0644L33.5043 48.1855V45.3999H40.734V48.1855Z" fill="#FDD4BB"/>
<path d="M9.26599 48.1855L12.8808 49.0644L16.4957 48.1855V45.3999H9.26599V48.1855Z" fill="#FDD4BB"/>
<path d="M34.2602 50.0001H40.2457C40.5153 50.0001 40.7339 49.7814 40.7339 49.5118V48.1855H34.2602L33.5042 49.0928L34.2602 50.0001Z" fill="#F7C4A8"/>
<path d="M9.75427 50H15.7396L16.4957 49.0928L15.7396 48.1855H9.26599V49.5117C9.26599 49.7813 9.48455 50 9.75427 50Z" fill="#F7C4A8"/>
<path d="M34.2602 48.1854V41.0769C34.2602 40.6593 33.9217 40.3208 33.5041 40.3208C33.0865 40.3208 32.748 40.6593 32.748 41.0769V48.1854L33.5041 49.0927L34.2602 48.1854Z" fill="#95D6A4"/>
<path d="M32.748 48.1855H34.2602V50.0001H32.748V48.1855Z" fill="#78C2A4"/>
<path d="M17.2516 48.1854V41.0769C17.2516 40.6593 16.9131 40.3208 16.4956 40.3208C16.078 40.3208 15.7395 40.6593 15.7395 41.0769V48.1854L16.4956 49.0927L17.2516 48.1854Z" fill="#95D6A4"/>
<path d="M15.7396 48.1855H17.2517V50.0001H15.7396V48.1855Z" fill="#78C2A4"/>
<path d="M24.9999 27.3532C19.7334 27.3532 15.464 23.0839 15.464 17.8174V19.6319C15.464 24.8984 19.7333 29.1678 24.9998 29.1678C30.2663 29.1678 34.5357 24.8984 34.5357 19.6319V17.8174C34.5358 23.0838 30.2664 27.3532 24.9999 27.3532Z" fill="#F7C4A8"/>
<path d="M19.0399 18.7809C19.179 19.0282 19.4364 19.1674 19.7013 19.1673C19.8273 19.1673 19.9549 19.1359 20.0725 19.0697L22.0267 17.9698C22.2697 17.8331 22.4179 17.574 22.4128 17.2953C22.4077 17.0165 22.2501 16.7631 22.0024 16.6353L20.0482 15.627C19.6759 15.4351 19.2187 15.5811 19.0267 15.9531C18.8347 16.3252 18.9807 16.7825 19.3529 16.9746L20.0574 17.3381L19.3286 17.7483C18.9638 17.9536 18.8345 18.416 19.0399 18.7809Z" fill="#565E75"/>
<path d="M27.9731 17.97L29.9274 19.0699C30.045 19.136 30.1726 19.1675 30.2986 19.1675C30.5635 19.1675 30.8209 19.0284 30.96 18.781C31.1654 18.4161 31.0361 17.9538 30.6712 17.7483L29.9424 17.3382L30.6468 16.9747C31.019 16.7827 31.165 16.3254 30.973 15.9532C30.781 15.581 30.3237 15.435 29.9515 15.627L27.9972 16.6353C27.7495 16.7632 27.5919 17.0166 27.5868 17.2954C27.5818 17.5742 27.7302 17.8333 27.9731 17.97Z" fill="#565E75"/>
<path d="M21.0776 22.201C20.8155 22.5275 20.8659 23.0072 21.1925 23.2692C21.5191 23.5312 21.9944 23.4814 22.2565 23.1548C22.3583 23.0322 22.638 22.7834 22.8735 22.7678C22.9313 22.8022 23.0478 22.9126 23.127 22.9877C23.4844 23.3264 24.0245 23.8381 25.0003 23.8381C25.976 23.8381 26.5161 23.3263 26.8737 22.9877C26.9529 22.9127 27.0694 22.8022 27.1272 22.7678C27.3622 22.7834 27.6412 23.0313 27.7436 23.1541C28.0063 23.477 28.481 23.5278 28.8062 23.2669C29.1327 23.0049 29.1851 22.5276 28.923 22.201C28.845 22.1036 28.1307 21.2505 27.1041 21.2505C26.5022 21.2505 26.114 21.6183 25.8306 21.8868C25.529 22.1726 25.3551 22.3216 25.0002 22.3216C24.6453 22.3216 24.4714 22.1726 24.1699 21.8868C23.8865 21.6183 23.4983 21.2505 22.8963 21.2505C21.8698 21.2505 21.1556 22.1036 21.0776 22.201Z" fill="#F4594E"/>
<path d="M8.88413 31.7322L8.82163 31.4847C8.73579 31.1445 8.91587 30.9129 8.99742 30.829C9.07886 30.7453 9.30494 30.5585 9.64771 30.6346C10.0564 30.7257 10.4615 30.4678 10.5524 30.059C10.6433 29.6502 10.3855 29.2452 9.97681 29.1542C9.22183 28.9866 8.44908 29.2172 7.90992 29.7721C7.37085 30.3269 7.16197 31.1058 7.35142 31.856L7.41392 32.1035C7.46177 32.2928 7.42974 32.4874 7.32388 32.6515C7.21802 32.8155 7.05386 32.9248 6.86187 32.9592L6.56685 33.0119C5.80591 33.1483 5.18228 33.6589 4.89859 34.3781C4.6149 35.0972 4.72193 35.8961 5.18501 36.5152C5.3147 36.6885 5.3562 36.9078 5.29878 37.1165C5.24136 37.3253 5.0937 37.4926 4.89361 37.5753L4.76119 37.6301C4.0981 37.9044 3.62203 38.4619 3.45503 39.1597C3.28804 39.8574 3.46001 40.57 3.92691 41.1147L4.33609 41.5921C4.46851 41.7466 4.52554 41.9426 4.49663 42.144C4.46773 42.3454 4.35796 42.5175 4.18745 42.6285L3.74654 42.9157C3.18394 43.2821 2.82193 43.8752 2.75318 44.543C2.68433 45.2107 2.91792 45.8652 3.3938 46.3384L3.82144 46.7637C4.02564 46.9667 4.0355 47.2035 4.0232 47.3265C4.01089 47.4495 3.95435 47.6795 3.71402 47.8383C3.3646 48.0691 3.26831 48.5394 3.49908 48.8889C3.64488 49.1097 3.88628 49.2294 4.13247 49.2294C4.27593 49.2294 4.42095 49.1887 4.54956 49.1038C5.10757 48.7354 5.46568 48.1425 5.53218 47.4772C5.59859 46.8119 5.3649 46.16 4.89087 45.6885L4.46324 45.2631C4.31353 45.1142 4.24009 44.9084 4.26167 44.6983C4.28335 44.4881 4.39732 44.3015 4.57417 44.1863L5.01509 43.8991C5.54908 43.5513 5.90728 42.99 5.99771 42.3592C6.08824 41.7284 5.9022 41.089 5.48745 40.6051L5.07827 40.1277C4.9314 39.9563 4.8773 39.7321 4.92974 39.5126C4.98228 39.2931 5.13208 39.1177 5.34068 39.0315L5.4731 38.9767C6.10904 38.7136 6.57837 38.1821 6.7608 37.5185C6.94312 36.8548 6.81138 36.1581 6.39917 35.607C6.18921 35.3262 6.26617 35.0432 6.30904 34.9345C6.35191 34.8259 6.48882 34.5665 6.83374 34.5047L7.12876 34.452C7.73072 34.3442 8.26617 33.9876 8.59781 33.4738C8.92954 32.96 9.03384 32.3252 8.88413 31.7322Z" fill="#ADF0FF"/>
<path d="M46.2858 47.8384C46.0454 47.6796 45.989 47.4496 45.9767 47.3265C45.9644 47.2035 45.9742 46.9669 46.1784 46.7638L46.6061 46.3386C47.082 45.8651 47.3155 45.2107 47.2468 44.543C47.178 43.8752 46.8159 43.282 46.2533 42.9155L45.8125 42.6285C45.642 42.5175 45.5322 42.3454 45.5033 42.1439C45.4744 41.9426 45.5314 41.7466 45.6639 41.5921L46.0731 41.1146C46.5399 40.5698 46.712 39.8573 46.545 39.1597C46.3779 38.4619 45.902 37.9044 45.2391 37.6302L45.1066 37.5754C44.9065 37.4927 44.7589 37.3254 44.7015 37.1166C44.6441 36.9079 44.6855 36.6886 44.8153 36.5152C45.2783 35.8961 45.3854 35.0972 45.1017 34.3781C44.8181 33.659 44.1943 33.1483 43.4332 33.012L43.1386 32.9593C42.9464 32.9249 42.7822 32.8155 42.6764 32.6515C42.5705 32.4875 42.5385 32.2929 42.5862 32.1036L42.6488 31.8558C42.8382 31.1058 42.6294 30.3268 42.0902 29.7721C41.5511 29.2173 40.7783 28.9866 40.0233 29.1542C39.6145 29.2451 39.3568 29.6501 39.4477 30.059C39.5386 30.4676 39.9433 30.7255 40.3523 30.6346C40.6951 30.5586 40.9212 30.7451 41.0026 30.829C41.0841 30.9128 41.2643 31.1444 41.1784 31.4846L41.1158 31.7322C40.9661 32.3252 41.0704 32.9599 41.4021 33.4738C41.7337 33.9876 42.2691 34.3442 42.8713 34.452L43.1659 34.5048C43.511 34.5666 43.6479 34.826 43.6908 34.9346C43.7337 35.0432 43.8106 35.3262 43.6007 35.607C43.1885 36.1582 43.0566 36.855 43.239 37.5185C43.4214 38.1821 43.8907 38.7137 44.5267 38.9767L44.6591 39.0315C44.8677 39.1179 45.0174 39.2931 45.07 39.5127C45.1226 39.7321 45.0685 39.9563 44.9216 40.1277L44.5124 40.6052C44.0977 41.089 43.9116 41.7284 44.0021 42.3593C44.0927 42.99 44.4508 43.5514 44.9849 43.8992L45.4257 44.1862C45.6026 44.3015 45.7166 44.4881 45.7383 44.6983C45.7599 44.9084 45.6864 45.1142 45.5367 45.2633L45.1092 45.6886C44.6351 46.1599 44.4013 46.812 44.4678 47.4773C44.5342 48.1427 44.8924 48.7355 45.4504 49.1039C45.579 49.1889 45.724 49.2295 45.8675 49.2295C46.1137 49.2295 46.3552 49.1098 46.5009 48.8889C46.7315 48.5394 46.6353 48.0691 46.2858 47.8384Z" fill="#ADF0FF"/>
<path d="M6.45544 20.4773L6.75867 20.6498C6.96043 20.7647 7.03582 21.0165 6.93035 21.2233L6.81404 21.4515C6.53005 22.0083 6.53103 22.6727 6.81668 23.2284C7.10232 23.7845 7.64187 24.1721 8.2615 24.2655L8.2825 24.2687C8.45671 24.2949 8.5488 24.4074 8.58816 24.4722C8.73093 24.7066 8.98064 24.8361 9.2366 24.8361C9.37087 24.8361 9.50701 24.8004 9.63015 24.7255C9.98787 24.5077 10.1012 24.0412 9.88357 23.6835C9.5824 23.1889 9.08142 22.8556 8.5074 22.769L8.4864 22.7658C8.29558 22.737 8.20349 22.6091 8.1656 22.5355C8.12771 22.4618 8.07732 22.3124 8.16511 22.1404L8.28142 21.9123C8.75593 20.9819 8.41668 19.8484 7.50886 19.3317L7.20564 19.1592C7.0241 19.0559 6.99285 18.8833 6.98777 18.8139C6.98269 18.7444 6.98884 18.5692 7.15359 18.4408C7.66619 18.0413 7.94519 17.4154 7.90007 16.7666C7.87097 16.3489 7.50867 16.0338 7.09099 16.0629C6.67332 16.0919 6.35818 16.4542 6.38728 16.8719C6.39207 16.9414 6.38562 17.1167 6.22146 17.2447C5.70711 17.6455 5.4282 18.2732 5.47537 18.9234C5.52214 19.5738 5.88865 20.1547 6.45544 20.4773Z" fill="#ADF0FF"/>
<path d="M41.5154 22.7658L41.4913 22.7693C40.9188 22.8558 40.4178 23.1891 40.1167 23.6837C39.8989 24.0414 40.0124 24.5079 40.3701 24.7257C40.4932 24.8006 40.6293 24.8363 40.7636 24.8363C41.0195 24.8363 41.2693 24.7068 41.4121 24.4724C41.4514 24.4076 41.5435 24.2951 41.7162 24.269L41.7403 24.2655C42.3584 24.1723 42.8978 23.7847 43.1836 23.2287C43.4692 22.6727 43.4702 22.0084 43.1862 21.4517L43.0698 21.2234C42.9643 21.0167 43.0397 20.7648 43.2414 20.65L43.5448 20.4774C44.1115 20.1549 44.478 19.5741 44.5252 18.9237C44.5723 18.2733 44.2933 17.6457 43.779 17.2448C43.6147 17.1169 43.6083 16.9415 43.6132 16.872C43.6423 16.4543 43.3271 16.092 42.9094 16.063C42.4929 16.0332 42.1295 16.3489 42.1004 16.7667C42.0552 17.4155 42.3342 18.0414 42.8468 18.4409C43.0116 18.5692 43.0176 18.7446 43.0127 18.8141C43.0077 18.8835 42.9763 19.056 42.7949 19.1593L42.4914 19.3318C41.5837 19.8484 41.2444 20.982 41.719 21.9124L41.8354 22.1405C41.9231 22.3125 41.8727 22.4618 41.8348 22.5355C41.7966 22.6093 41.7047 22.7372 41.5154 22.7658Z" fill="#ADF0FF"/>
</g>
<defs>
<clipPath id="clip0_704_6541">
<rect width="50" height="50" fill="white"/>
</clipPath>
</defs>
</svg>
