<svg width="50" height="50" viewBox="0 0 50 50" fill="none" xmlns="http://www.w3.org/2000/svg">
<g clip-path="url(#clip0_704_6602)">
<path d="M3.46777 10.9135V27.9978H25.2948V10.9135C25.2948 4.88611 20.4087 0 14.3813 0C8.35399 0 3.46777 4.88611 3.46777 10.9135Z" fill="#4F4F4F"/>
<path d="M15.473 0.0541667C15.1139 0.0184829 14.7498 0 14.3813 0C8.35399 0 3.46777 4.88611 3.46777 10.9135V27.9978H5.65121V10.9135C5.65121 5.25459 9.95826 0.601923 15.473 0.0541667Z" fill="#282828"/>
<path d="M21.1206 25.979H7.64188C3.42137 25.979 0 29.4005 0 33.621V46.0697C0 47.155 0.879808 48.0348 1.96506 48.0348H26.7974C27.8827 48.0348 28.7625 47.155 28.7625 46.0697V33.621C28.7625 29.4005 25.3411 25.979 21.1206 25.979Z" fill="#77BF95"/>
<path d="M23.3333 48.0347H5.42932V40.5547C10.9265 43.9067 17.8358 43.9067 23.3331 40.5548L23.3332 40.5547V48.0347H23.3333Z" fill="#A2E0BB"/>
<path d="M5.98229 40.7387C5.98229 40.4372 5.73785 40.1929 5.43646 40.1929C5.13496 40.1929 4.89062 40.4372 4.89062 40.7387V47.9114C4.89062 47.954 4.89661 47.9951 4.9059 48.035H5.96701C5.97631 47.9951 5.98229 47.9541 5.98229 47.9114V40.7387Z" fill="#A2E0BB"/>
<path d="M23.8721 40.7387C23.8721 40.4372 23.6276 40.1929 23.3262 40.1929C23.0248 40.1929 22.7804 40.4372 22.7804 40.7387V47.9114C22.7804 47.954 22.7864 47.9951 22.7957 48.035H23.8568C23.8661 47.9951 23.8721 47.9541 23.8721 47.9114V40.7387Z" fill="#77BF95"/>
<path d="M9.82532 25.979H7.64188C3.42137 25.979 0 29.4005 0 33.621V46.0697C0 47.155 0.879808 48.0348 1.96506 48.0348H2.18344V33.621C2.18344 29.4005 5.60481 25.979 9.82532 25.979Z" fill="#77BF95"/>
<path d="M10.116 12.9399V27.7434L14.452 32.6126L18.6744 27.7434V12.9399H10.116Z" fill="#FFC7B3"/>
<path d="M12.1902 27.0883V12.9399H10.116V27.7434L14.452 32.6126L15.7632 31.1006L12.1902 27.0883Z" fill="#F9AD95"/>
<path d="M13.9098 32.0039V38.7399C13.9098 39.0249 14.1182 39.2795 14.402 39.3067C14.7275 39.3378 15.0016 39.0826 15.0016 38.7634V31.979L14.9862 31.9967C14.7028 32.3233 14.1972 32.3267 13.9098 32.0039Z" fill="#A2E0BB"/>
<path d="M15.0271 6.3916H10.3172C8.50846 6.3916 7.04211 7.85795 7.04211 9.66671V17.3177C7.04211 21.3782 10.3338 24.6699 14.3944 24.6699C18.4549 24.6699 21.7466 21.3782 21.7466 17.3177V12.3123H20.9477C17.6778 12.3122 15.0271 9.66147 15.0271 6.3916Z" fill="#FFDECF"/>
<path d="M10.9566 16.5404C11.3995 16.5404 11.7586 16.1307 11.7586 15.6254C11.7586 15.1201 11.3995 14.7104 10.9566 14.7104C10.5136 14.7104 10.1545 15.1201 10.1545 15.6254C10.1545 16.1307 10.5136 16.5404 10.9566 16.5404Z" fill="#4F4F4F"/>
<path d="M17.8059 16.5404C18.2489 16.5404 18.608 16.1307 18.608 15.6254C18.608 15.1201 18.2489 14.7104 17.8059 14.7104C17.363 14.7104 17.0039 15.1201 17.0039 15.6254C17.0039 16.1307 17.363 16.5404 17.8059 16.5404Z" fill="#4F4F4F"/>
<path d="M38.3948 13.8689L38.153 15.546L37.0237 16.6752L39.5262 19.1778L40.6555 18.0485L42.3327 17.8066C42.8665 17.7296 43.0837 17.0765 42.7023 16.6951L39.5064 13.4992C39.125 13.1179 38.4718 13.3351 38.3948 13.8689Z" fill="#8FAFC0"/>
<path d="M38.3674 14.0586L39.8119 15.5031C40.2391 15.9303 40.2381 16.6235 39.8094 17.0494L38.5998 18.2515L39.5262 19.1779L40.6555 18.0486L42.3326 17.8067C42.8665 17.7297 43.0837 17.0766 42.7023 16.6952L39.5063 13.4992C39.1249 13.1178 38.4718 13.335 38.3948 13.8689L38.3674 14.0586Z" fill="#7195AE"/>
<path d="M26.3174 30.4182C25.869 30.4182 25.6225 29.8234 25.9396 29.5063L29.6997 25.7463C29.9085 25.5376 30.2466 25.5377 30.4552 25.7463C30.6637 25.9548 30.6638 26.2931 30.4552 26.5016L26.695 30.2617C26.5908 30.3661 26.454 30.4182 26.3174 30.4182Z" fill="#EDEDED"/>
<path d="M30.345 23.0742L33.1275 25.8567L32.5953 26.389C31.7876 27.1967 30.51 27.2285 29.7416 26.4601C28.9733 25.6917 29.0051 24.4142 29.8128 23.6065L30.345 23.0742Z" fill="#8FAFC0"/>
<path d="M29.2775 25.6892C29.3665 25.9728 29.5195 26.238 29.7416 26.4602C30.5099 27.2285 31.7875 27.1967 32.5952 26.389L33.1275 25.8567L31.8923 24.6216L31.36 25.1538C30.7859 25.7281 29.9748 25.908 29.2775 25.6892Z" fill="#7195AE"/>
<path d="M36.3273 15.979L40.2227 19.8744L34.4394 25.6577C34.0222 26.0749 33.3457 26.0749 32.9285 25.6577L30.544 23.2732C30.1268 22.856 30.1268 22.1795 30.544 21.7623L36.3273 15.979Z" fill="#8CCEFF"/>
<path d="M35.2465 22.689L32.6031 25.3324L32.9119 25.6412C33.3383 26.0676 34.0294 26.0676 34.4558 25.6412L40.2226 19.8744L36.3272 15.979L35.2464 17.0598C36.801 18.6143 36.801 21.1346 35.2465 22.689Z" fill="#48B2FF"/>
<path d="M37.0384 20.2761C36.8253 20.0629 36.4798 20.0629 36.2664 20.2761C36.0533 20.4893 36.0533 20.8349 36.2664 21.048L37.6577 22.4393L38.4297 21.6674L37.0384 20.2761Z" fill="white"/>
<path d="M34.8576 22.4568C34.6444 22.2436 34.2989 22.2436 34.0856 22.4568C33.8725 22.67 33.8725 23.0156 34.0856 23.2287L35.4769 24.6198L36.2489 23.8479L34.8576 22.4568Z" fill="white"/>
<path d="M40.7792 20.9649C40.6424 20.9649 40.5058 20.9127 40.4014 20.8084L35.3931 15.8C35.1844 15.5915 35.1844 15.2532 35.3931 15.0447C35.6017 14.836 35.9399 14.836 36.1485 15.0447L41.1568 20.053C41.4741 20.3701 41.2277 20.9649 40.7792 20.9649Z" fill="#EDEDED"/>
<path d="M47.2221 33.0349V31.0513H39.9526V33.0349C39.9526 34.1625 39.4419 35.2294 38.5636 35.9366C37.6853 36.6438 37.1746 37.7108 37.1746 38.8383V47.8167C37.1746 49.0225 38.1521 50.0001 39.358 50.0001H47.8165C49.0224 50 50 49.0224 50 47.8165V38.8382C50 37.7107 49.4893 36.6438 48.611 35.9365C47.7328 35.2294 47.2221 34.1625 47.2221 33.0349Z" fill="#F5B94C"/>
<path d="M39.0121 27.0742H48.1625V31.0513H39.0121V27.0742Z" fill="#FC7855"/>
<path d="M40.7589 27.0742H39.0122V31.0513H48.1626V29.4137H43.0983C41.8062 29.4136 40.7589 28.3662 40.7589 27.0742Z" fill="#F91949"/>
<path d="M40.3121 39.3892H46.8623V47.031H40.3121V39.3892Z" fill="#6FD8A1"/>
<path d="M41.8406 40.4808V39.3892H40.3121V47.031H46.8623V45.5026C44.0888 45.5026 41.8406 43.2543 41.8406 40.4808Z" fill="#27B9C1"/>
<path d="M32.0532 10.1371L32.6739 10.2686L31.956 10.4722C31.5779 10.5795 31.2893 10.8856 31.2044 11.2693L31.0713 11.8711L30.9382 11.2693C30.8534 10.8856 30.5647 10.5795 30.1866 10.4722L29.4688 10.2686L30.0895 10.1371C30.4914 10.0519 30.8088 9.74379 30.906 9.34465L31.0713 8.66602L31.2366 9.34465C31.3338 9.7439 31.6513 10.0519 32.0532 10.1371Z" fill="#C0B5E8"/>
<path d="M37.8343 3.15122L38.455 3.28274L37.7372 3.48637C37.3591 3.59364 37.0704 3.89973 36.9856 4.28349L36.8524 4.8853L36.7193 4.28349C36.6345 3.89973 36.3458 3.59364 35.9677 3.48637L35.2499 3.28274L35.8706 3.15122C36.2725 3.06607 36.5899 2.75795 36.6872 2.35881L36.8524 1.68018L37.0177 2.35881C37.1149 2.75795 37.4324 3.06607 37.8343 3.15122Z" fill="#FF9792"/>
</g>
<defs>
<clipPath id="clip0_704_6602">
<rect width="50" height="50" fill="white"/>
</clipPath>
</defs>
</svg>
