<svg width="50" height="50" viewBox="0 0 50 50" fill="none" xmlns="http://www.w3.org/2000/svg">
<path d="M40.626 28.9668C35.589 29.2308 33.869 27.1218 31.797 26.8198C31.0262 26.6994 30.2453 26.6568 29.466 26.6928C29.2083 26.7063 28.9516 26.7337 28.697 26.7748C26.9205 26.9014 25.1355 26.7273 23.417 26.2598C23.417 26.2598 22.562 22.3008 23.417 20.0378C24.272 17.7748 16.463 18.8148 17.195 20.0378C18.665 22.4928 17.195 26.2598 17.195 26.2598C17.195 26.2598 14.195 27.1598 11.462 27.6308L11.773 28.0618H9.74097C9.74097 28.0618 11.878 35.6758 11.878 49.4998H28.163C28.1806 44.2205 28.7568 38.9579 29.882 33.7998C30.715 34.0314 31.5789 34.1326 32.443 34.0998C38.66 33.8818 42.378 34.7998 42.378 34.7998L40.626 28.9668Z" fill="#F7BA85"/>
<path d="M21.59 10.5999C21.59 10.5999 27.237 3.76289 24.65 1.11389C23.704 0.143891 22.293 2.99089 18.227 1.70489L14.887 5.51989L21.59 10.5999Z" fill="#653D28"/>
<path d="M18.227 1.70719C18.227 1.70719 13.47 1.54519 10.143 6.33919C8.65101 8.49019 7.75101 11.5182 9.13501 15.7312C9.13501 15.7312 9.99701 19.5312 14.887 19.2152L18.227 1.70719Z" fill="#653D28"/>
<path d="M26.337 10.4698C27.06 12.5008 28.156 14.6698 27.981 17.0088C27.743 20.2018 27.041 22.4638 23.581 23.4428C20.121 24.4218 17.67 23.5998 15.369 21.3738C13.989 20.0378 12.529 17.6378 11.942 15.5638C10.374 10.0318 12.079 6.00578 17.612 4.43878C20.435 3.63978 24.567 5.49178 26.337 10.4698Z" fill="#F9C694"/>
<path d="M13.79 19.6491C14.5919 18.9613 14.5917 17.6456 13.7895 16.7104C12.9874 15.7752 11.6871 15.5747 10.8852 16.2624C10.0833 16.9502 10.0835 18.2659 10.8856 19.2011C11.6877 20.1363 12.9881 20.3369 13.79 19.6491Z" fill="#F9C694"/>
<path d="M17.624 1.736C17.624 1.736 19.74 1.57 19.852 0.5C19.852 0.5 20.722 0.634 20.638 2.085L18.613 3.67L17.624 1.736Z" fill="#653D28"/>
<path d="M13.629 3.99219C13.629 3.99219 18.613 3.67019 21.245 2.99219C21.245 2.99219 23.325 8.05019 12.345 8.06419L13.629 3.99219Z" fill="#653D28"/>
<path d="M21.812 18.5C21.545 17.686 21.871 16.848 22.542 16.628C23.213 16.408 23.972 16.889 24.242 17.703C24.512 18.517 24.258 19.003 23.588 19.221C22.918 19.439 22.079 19.318 21.812 18.5Z" fill="#DC7142"/>
<path d="M39.06 31.9998C38.304 30.9198 32.26 24.4148 28.854 21.6998L31.184 18.8428C31.184 18.8428 48.648 29.1428 44.908 33.8428C44.908 33.8428 43.015 36.2428 40.02 33.1748C39.6686 32.8099 39.3475 32.4169 39.06 31.9998Z" fill="#F9C694"/>
<path d="M26.7 20.3708C26.7 20.3708 25.32 18.5708 23.733 19.7608C23.6497 19.8233 23.5838 19.9061 23.5418 20.0014C23.4998 20.0967 23.483 20.2012 23.4931 20.3048C23.5031 20.4085 23.5397 20.5078 23.5992 20.5933C23.6587 20.6787 23.7392 20.7474 23.833 20.7928C24.0974 20.9077 24.3787 20.9789 24.666 21.0038C24.666 21.0038 26.828 21.4918 27.678 22.4628C27.678 22.4628 29.703 24.3968 31.146 22.4438L29.327 18.5518L26.7 20.3708Z" fill="#F1B48C"/>
<path d="M23.369 17.6169L30.713 23.7049L34.338 20.2889L28.597 12.6899L23.369 17.6169Z" fill="#D8EEF5"/>
<path d="M24.082 17.7359L30.708 23.3169L33.893 20.3169L30.611 15.9719C29.0522 15.9117 27.5005 16.2111 26.076 16.8469L24.082 17.7359Z" fill="#98D6F6"/>
<path d="M30.9751 14.5611C30.7221 14.8441 29.9361 15.6221 29.7081 16.8211C29.681 16.9645 29.7008 17.1128 29.7646 17.2441C29.8283 17.3753 29.9326 17.4826 30.0621 17.5501C30.2621 17.6581 30.5621 17.6401 30.9141 17.0261C30.9141 17.0261 31.2431 16.6361 31.8231 15.9061C31.971 15.7261 32.0562 15.5028 32.0658 15.27C32.0754 15.0372 32.0087 14.8076 31.8761 14.6161C31.7411 14.4301 31.5571 14.3021 31.3111 14.3531C31.1799 14.3852 31.0623 14.458 30.9751 14.5611Z" fill="#F9C694"/>
<path d="M31.767 15.7051C31.514 15.9881 30.729 16.7661 30.501 17.9651C30.474 18.1084 30.4938 18.2566 30.5573 18.3878C30.6209 18.519 30.7249 18.6264 30.854 18.6941C31.054 18.8021 31.354 18.7841 31.706 18.1701C31.706 18.1701 32.035 17.7801 32.616 17.0501C32.7636 16.87 32.8487 16.6467 32.8582 16.414C32.8678 16.1813 32.8014 15.9518 32.669 15.7601C32.534 15.5741 32.349 15.4461 32.103 15.4971C31.9719 15.5293 31.8543 15.6021 31.767 15.7051Z" fill="#F9C694"/>
<path d="M32.563 16.9781C32.309 17.2601 31.649 17.7441 31.421 18.9441C31.347 19.3321 31.481 19.4941 31.655 19.5891C31.855 19.6971 32.155 19.6501 32.626 19.1481C32.626 19.1481 32.826 19.0531 33.411 18.3231C33.5588 18.1428 33.644 17.9194 33.6536 17.6864C33.6631 17.4535 33.5966 17.2238 33.464 17.0321C33.329 16.8471 33.145 16.7191 32.899 16.7701C32.7678 16.8022 32.6502 16.875 32.563 16.9781Z" fill="#F9C694"/>
<path d="M23.0411 12.7929C23.0153 12.7932 22.9897 12.7895 22.9651 12.7819C22.9308 12.772 22.8989 12.7555 22.8711 12.7332C22.8432 12.711 22.8201 12.6835 22.8029 12.6523C22.7857 12.621 22.7748 12.5868 22.7709 12.5513C22.767 12.5159 22.7701 12.4801 22.7801 12.4459C22.7901 12.4119 23.0331 11.5989 23.8001 11.2209C24.3281 10.9619 24.9591 10.9729 25.6751 11.2549C25.7422 11.2814 25.796 11.3335 25.8247 11.3997C25.8534 11.4659 25.8546 11.5408 25.8281 11.6079C25.8015 11.675 25.7494 11.7288 25.6832 11.7575C25.617 11.7862 25.5422 11.7874 25.4751 11.7609C24.9091 11.5379 24.4281 11.5199 24.0441 11.7069C23.4921 11.9749 23.3031 12.5919 23.3011 12.5989C23.2839 12.6546 23.2494 12.7034 23.2027 12.7383C23.156 12.7732 23.0994 12.7923 23.0411 12.7929Z" fill="#40220F"/>
<path d="M16.7401 14.4123C16.6924 14.4122 16.6455 14.3995 16.6043 14.3756C16.563 14.3517 16.5287 14.3174 16.5049 14.276C16.4811 14.2347 16.4686 14.1878 16.4686 14.1401C16.4687 14.0924 16.4812 14.0456 16.5051 14.0043C16.8921 13.3383 17.3791 12.9383 17.9541 12.8143C18.7911 12.6343 19.4861 13.1213 19.5151 13.1413C19.5707 13.1842 19.6075 13.247 19.6179 13.3166C19.6282 13.3861 19.6112 13.4569 19.5705 13.5142C19.5298 13.5714 19.4684 13.6107 19.3994 13.6238C19.3303 13.6369 19.2589 13.6227 19.2001 13.5843C19.1941 13.5843 18.6621 13.2153 18.0641 13.3463C17.6471 13.4383 17.2811 13.7463 16.9751 14.2773C16.9511 14.3183 16.9168 14.3524 16.8756 14.3761C16.8343 14.3998 16.7876 14.4123 16.7401 14.4123Z" fill="#40220F"/>
<path d="M24.2 8.41606C23.6264 8.40809 23.0642 8.57709 22.59 8.90006C22.2092 9.14208 21.8969 9.47779 21.683 9.87506C21.555 10.1361 21.945 10.3661 22.074 10.1041C22.443 9.35206 23.358 8.84906 24.204 8.86706C24.495 8.87306 24.495 8.42006 24.204 8.41406L24.2 8.41606Z" fill="#40220F"/>
<path d="M15.93 11.2091C16.3315 10.9201 16.8133 10.7638 17.308 10.7621C17.6799 10.7508 18.0488 10.8326 18.381 11.0001C18.636 11.1421 18.865 10.7511 18.61 10.6091C18.2094 10.3999 17.7618 10.2966 17.31 10.3091C16.7337 10.3084 16.1712 10.4862 15.7 10.8181C15.6494 10.8496 15.6128 10.8993 15.5978 10.957C15.5827 11.0146 15.5903 11.0759 15.619 11.1281C15.6497 11.1797 15.6994 11.2171 15.7574 11.2323C15.8154 11.2474 15.8771 11.2391 15.929 11.2091H15.93Z" fill="#40220F"/>
<path d="M16.572 26.5832C17.472 27.3922 20.272 29.9222 20.572 30.3392C20.572 30.3392 23.829 26.1842 24.493 26.3392C24.493 26.3392 26.98 26.6232 28.85 26.5192C28.85 26.5192 31.97 26.3482 34.103 27.6332C34.2985 27.7487 34.504 27.8464 34.717 27.9252L35.593 28.2562C35.593 28.2562 34.764 33.2812 34.764 34.1062C34.764 34.1062 32.314 34.2762 30.321 34.1422C30.1985 34.1334 30.0773 34.1715 29.9819 34.2487C29.8864 34.326 29.8239 34.4366 29.807 34.5582C29.468 36.9132 27.937 47.7372 28.159 49.5042H11.878L9.74097 27.7002L15.932 26.4122C16.0446 26.3884 16.1612 26.3914 16.2724 26.4212C16.3836 26.4509 16.4862 26.5064 16.572 26.5832Z" fill="#8D9295"/>
<path d="M11.387 27.2929C11.387 27.2929 6.66402 26.1759 6.33902 33.5789C6.24702 35.6709 4.56702 41.3399 4.56702 49.4999H9.90602C9.90602 49.4999 10.868 40.7539 13.338 33.4349C14.3 30.5869 14.887 27.7789 11.387 27.2929Z" fill="#F7BA85"/>
<path d="M6.20507 31.567C6.20507 31.567 6.86107 26.09 12.3721 27.436C12.3721 27.436 17.1551 28.661 13.4661 36.736L12.2461 39.807C12.2461 39.807 6.57507 38.415 5.52307 38.625C5.52307 38.623 6.01707 33.783 6.20507 31.567Z" fill="#8D9295"/>
<path d="M11.8781 49.5H13.1071C13.1071 49.5 11.6601 45.306 11.1741 42.373C11.1741 42.373 11.5731 47.228 11.8781 49.5Z" fill="#7D8184"/>
<path d="M5.52307 38.6229C5.52307 38.6229 9.44907 39.1029 12.2461 39.8049C12.2461 39.8049 12.9971 37.8369 13.4661 36.7339C13.4661 36.7339 9.55007 39.2219 5.58607 38.0079L5.52307 38.6229Z" fill="#7D8184"/>
<path d="M18.227 4.23486C18.227 4.23486 14.457 5.94386 12.676 4.23486C12.676 4.23486 11.603 5.02586 10.959 6.00686C10.959 6.00686 15.588 7.06386 18.227 4.23486Z" fill="#86421C"/>
</svg>
