<svg width="51" height="50" viewBox="0 0 51 50" fill="none" xmlns="http://www.w3.org/2000/svg">
<path fill-rule="evenodd" clip-rule="evenodd" d="M24.7811 28.5952L26.042 33.5888C25.0197 32.9987 23.7005 33.3521 23.1102 34.3744C22.52 35.3966 22.8735 36.7159 23.8958 37.3061L28.4483 39.9345C29.8143 40.7232 30.8613 41.6059 31.8703 42.8184C34.6951 46.2132 37.8358 45.2186 41.3578 46.9299L44.2596 41.9003L45.5902 39.5937C41.4685 37.2141 40.8921 36.9187 37.6999 33.3879L33.5646 28.8139C32.747 27.9095 31.623 27.5127 30.4187 27.7032L24.7811 28.5952Z" fill="#FFCEC0"/>
<path fill-rule="evenodd" clip-rule="evenodd" d="M32.2097 35.4722C32.6009 35.6602 32.8626 35.758 33.1425 35.8021C33.3522 35.8351 33.5201 35.9434 33.6366 36.1208C33.9861 36.6527 33.5266 37.3618 32.8905 37.2392C32.4781 37.1598 32.0242 36.9989 31.5286 36.7564L26.6326 33.9297L27.3589 32.6716L32.2097 35.4722Z" fill="#FDB0A0"/>
<path d="M17.6508 41.7847C24.1317 40.828 28.6099 34.7986 27.6532 28.3177C26.6964 21.8368 20.667 17.3585 14.1861 18.3153C7.70523 19.272 3.227 25.3014 4.18374 31.7823C5.14048 38.2632 11.1699 42.7415 17.6508 41.7847Z" fill="#FCDB35"/>
<path fill-rule="evenodd" clip-rule="evenodd" d="M14.8912 41.8716C8.82556 41.3445 4.06628 36.2546 4.06628 30.0522C4.06628 23.8499 8.82556 18.76 14.8912 18.2329C20.9568 18.76 25.7161 23.8499 25.7161 30.0522C25.7161 36.2546 20.9568 41.3445 14.8912 41.8716Z" fill="#FFEB87"/>
<path d="M16.6037 26.6416C16.7225 24.4875 15.0724 22.645 12.9183 22.5262C10.7642 22.4075 8.92168 24.0575 8.80296 26.2117C8.68425 28.3658 10.3343 30.2083 12.4884 30.327C14.6425 30.4457 16.485 28.7957 16.6037 26.6416Z" fill="#B6DBFF"/>
<path fill-rule="evenodd" clip-rule="evenodd" d="M8.85364 25.8526C9.13235 23.9674 10.7569 22.5208 12.7195 22.5208C14.6821 22.5208 16.3066 23.9674 16.5853 25.8526C16.3066 27.7377 14.6821 29.1844 12.7195 29.1844C10.7569 29.1844 9.13235 27.7377 8.85364 25.8526Z" fill="#E3F1FF"/>
<path fill-rule="evenodd" clip-rule="evenodd" d="M8.81128 26.429C8.81128 24.2706 10.561 22.5208 12.7195 22.5208V30.3372C10.561 30.3372 8.81128 28.5875 8.81128 26.429Z" fill="#E8333C"/>
<path fill-rule="evenodd" clip-rule="evenodd" d="M8.85364 25.8526C9.13235 23.9674 10.7569 22.5208 12.7195 22.5208V29.1844C10.7569 29.1844 9.13235 27.7377 8.85364 25.8526Z" fill="#FB545C"/>
<path fill-rule="evenodd" clip-rule="evenodd" d="M22.2318 26.6243C23.3253 27.7177 23.3253 29.5071 22.2318 30.6006L16.0684 36.7639C14.9749 37.8574 13.1856 37.8574 12.0921 36.7639C10.9986 35.6705 10.9985 33.8811 12.0921 32.7877L18.2555 26.6243C19.3489 25.5308 21.1383 25.5308 22.2318 26.6243Z" fill="#B6DBFF"/>
<path fill-rule="evenodd" clip-rule="evenodd" d="M11.662 36.2096C11.0249 35.1316 11.1683 33.7112 12.092 32.7874L18.2554 26.624C19.1792 25.7002 20.5996 25.5569 21.6776 26.1941C22.3147 27.272 22.1714 28.6924 21.2476 29.6162L15.0842 35.7796C14.1604 36.7034 12.74 36.8467 11.662 36.2096Z" fill="#E3F1FF"/>
<path fill-rule="evenodd" clip-rule="evenodd" d="M22.2317 26.6243C23.3253 27.7177 23.3253 29.5071 22.2317 30.6006L19.1501 33.6822L15.1738 29.7059L18.2555 26.6243C19.3489 25.5308 21.1383 25.5308 22.2317 26.6243Z" fill="#2A92FA"/>
<path fill-rule="evenodd" clip-rule="evenodd" d="M18.1659 32.6981L15.1737 29.706L18.2553 26.6243C19.1792 25.7005 20.5996 25.5571 21.6775 26.1943C22.3146 27.2723 22.1714 28.6927 21.2475 29.6165L18.1658 32.6981H18.1659Z" fill="#4EB1FC"/>
<path d="M32.3872 3.62085H19.1235C18.4715 3.62085 17.9429 4.14945 17.9429 4.80151V21.077C17.9429 21.7291 18.4715 22.2577 19.1235 22.2577H32.3872C33.0393 22.2577 33.5679 21.7291 33.5679 21.077V4.80151C33.5679 4.14945 33.0393 3.62085 32.3872 3.62085Z" fill="#B6DBFF"/>
<path d="M31.4809 3.62085H19.1235C18.4715 3.62085 17.9429 4.14945 17.9429 4.80151V21.077C17.9429 21.7291 18.4715 22.2577 19.1235 22.2577H31.4809C32.1329 22.2577 32.6615 21.7291 32.6615 21.077V4.80151C32.6615 4.14945 32.1329 3.62085 31.4809 3.62085Z" fill="#E3F1FF"/>
<path fill-rule="evenodd" clip-rule="evenodd" d="M25.7554 1.08936C24.9572 1.08936 24.3103 1.73633 24.3103 2.53437V2.73281L22.8776 2.48242C22.6623 2.44473 22.4618 2.49873 22.2945 2.63936C22.1271 2.77998 22.0396 2.96816 22.0396 3.18672V4.74189H29.4712V3.18672C29.4712 2.96816 29.3835 2.77998 29.2162 2.63936C29.0488 2.49873 28.8484 2.44473 28.6331 2.48242L27.2005 2.73281V2.53437C27.2005 1.73633 26.5535 1.08936 25.7555 1.08936H25.7554Z" fill="#C86F5C"/>
<path fill-rule="evenodd" clip-rule="evenodd" d="M24.3103 2.53457V2.7331L22.8776 2.48261C22.6623 2.44492 22.4618 2.49892 22.2945 2.63955C22.1271 2.78017 22.0396 2.96835 22.0396 3.18691V4.74209H28.8225V3.30039C28.8225 3.08173 28.7349 2.89365 28.5675 2.75302C28.4002 2.6124 28.1997 2.55849 27.9844 2.59609L27.2005 2.7332L26.8511 2.79423L26.6678 2.82626C26.6904 0.83105 24.3104 1.10595 24.3104 2.53466L24.3103 2.53457Z" fill="#F29988"/>
<path fill-rule="evenodd" clip-rule="evenodd" d="M21.411 9.36548C21.0335 9.36548 20.7274 9.05942 20.7274 8.68188C20.7274 8.30435 21.0335 7.99829 21.411 7.99829H30.0997C30.4772 7.99829 30.7833 8.30435 30.7833 8.68188C30.7833 9.05942 30.4772 9.36548 30.0997 9.36548H21.411ZM21.411 19.225C21.0335 19.225 20.7274 18.919 20.7274 18.5415C20.7274 18.1639 21.0335 17.8579 21.411 17.8579H30.0997C30.4772 17.8579 30.7833 18.1639 30.7833 18.5415C30.7833 18.919 30.4772 19.225 30.0997 19.225H21.411ZM21.411 15.9385C21.0335 15.9385 20.7274 15.6325 20.7274 15.2549C20.7274 14.8774 21.0335 14.5713 21.411 14.5713H30.0997C30.4772 14.5713 30.7833 14.8774 30.7833 15.2549C30.7833 15.6325 30.4772 15.9385 30.0997 15.9385H21.411ZM21.411 12.652C21.0335 12.652 20.7274 12.3459 20.7274 11.9684C20.7274 11.5909 21.0335 11.2848 21.411 11.2848H30.0997C30.4772 11.2848 30.7833 11.5909 30.7833 11.9684C30.7833 12.3459 30.4772 12.652 30.0997 12.652H21.411Z" fill="#7986BF"/>
<path fill-rule="evenodd" clip-rule="evenodd" d="M41.3139 10.5498C44.511 10.5498 47.1359 12.9979 47.4174 16.1218H35.2104C35.4919 12.9979 38.1168 10.5498 41.314 10.5498H41.3139Z" fill="#2A92FA"/>
<path fill-rule="evenodd" clip-rule="evenodd" d="M45.7173 16.1218H35.2104C35.475 13.1861 37.809 10.8475 40.7427 10.5762C43.3621 11.0782 45.3992 13.3236 45.7173 16.1218Z" fill="#4EB1FC"/>
<path d="M41.776 10.4991C43.3671 10.2411 44.4479 8.74217 44.19 7.15104C43.932 5.55991 42.4331 4.47914 40.8419 4.73707C39.2508 4.995 38.17 6.49397 38.428 8.0851C38.6859 9.67623 40.1849 10.757 41.776 10.4991Z" fill="#FDB0A0"/>
<path fill-rule="evenodd" clip-rule="evenodd" d="M40.7229 10.4705C39.3941 10.1973 38.3949 9.02109 38.3949 7.61152C38.3949 6.20195 39.3941 5.02568 40.7229 4.75244C42.0517 5.02568 43.051 6.20186 43.051 7.61152C43.051 9.02119 42.0517 10.1974 40.7229 10.4705Z" fill="#FFCEC0"/>
<path fill-rule="evenodd" clip-rule="evenodd" d="M10.1969 10.55C13.3941 10.55 16.019 12.9982 16.3004 16.122H4.09338C4.37483 12.9981 6.99973 10.55 10.1969 10.55Z" fill="#A0D904"/>
<path fill-rule="evenodd" clip-rule="evenodd" d="M14.6002 16.122H4.09338C4.35793 13.1864 6.69192 10.8477 9.62561 10.5764C12.245 11.0785 14.2822 13.3239 14.6002 16.122Z" fill="#BAED2C"/>
<path fill-rule="evenodd" clip-rule="evenodd" d="M10.1969 10.5302C11.8045 10.5302 13.1157 9.21895 13.1157 7.61133C13.1157 6.00371 11.8045 4.69238 10.1969 4.69238C8.58928 4.69238 7.27795 6.00361 7.27795 7.61133C7.27795 9.21904 8.58918 10.5302 10.1969 10.5302Z" fill="#FDB0A0"/>
<path fill-rule="evenodd" clip-rule="evenodd" d="M9.60598 10.4705C8.27717 10.1973 7.27795 9.02109 7.27795 7.61152C7.27795 6.20195 8.27717 5.02568 9.60598 4.75244C10.9348 5.02568 11.934 6.20186 11.934 7.61152C11.934 9.02119 10.9347 10.1974 9.60598 10.4705Z" fill="#FFCEC0"/>
<path fill-rule="evenodd" clip-rule="evenodd" d="M33.5801 37.2946L43.4242 43.3483L41.3579 46.9299C37.8359 45.2187 34.6951 46.2132 31.8703 42.8185C30.8614 41.606 29.8144 40.7233 28.4484 39.9346L23.8959 37.3062C22.8736 36.7159 22.5201 35.3967 23.1104 34.3744C23.7006 33.3522 25.0198 32.9986 26.0421 33.5889L31.5286 36.7566C32.3179 37.1428 33.0018 37.3222 33.5801 37.2946Z" fill="#FFCEC0"/>
<path fill-rule="evenodd" clip-rule="evenodd" d="M41.3579 46.9299C37.8359 45.2187 34.6951 46.2132 31.8703 42.8185C30.8614 41.606 29.8144 40.7232 28.4484 39.9346L23.8959 37.3062C22.8736 36.7159 22.5201 35.3967 23.1104 34.3744C23.2303 34.1667 23.3803 33.9866 23.5519 33.8364C23.3781 34.7134 23.7681 35.6465 24.5826 36.1167L29.1352 38.7451C30.5012 39.5338 31.5482 40.4165 32.557 41.629C35.3817 45.0235 38.5225 44.0292 42.0441 45.7402L41.3578 46.9299H41.3579Z" fill="#FDB0A0"/>
<path fill-rule="evenodd" clip-rule="evenodd" d="M44.6293 37.5759L46.8366 38.8504C47.4063 39.1793 47.6033 39.9146 47.2744 40.4842L42.7541 48.3134C42.4252 48.8831 41.69 49.0801 41.1203 48.7512L38.913 47.4769C38.3433 47.148 38.1463 46.4127 38.4752 45.843L42.9955 38.0138C43.3244 37.4442 44.0596 37.2471 44.6293 37.576V37.5759Z" fill="#4EB1FC"/>
<path fill-rule="evenodd" clip-rule="evenodd" d="M43.3759 47.2368L42.7542 48.3135C42.4253 48.8833 41.69 49.0803 41.1203 48.7513L38.9131 47.477C38.3433 47.1481 38.1463 46.4128 38.4753 45.8431L39.097 44.7664L43.3759 47.2368Z" fill="#2A92FA"/>
</svg>
