<svg width="20" height="20" viewBox="0 0 20 20" fill="none" xmlns="http://www.w3.org/2000/svg">
<path d="M16.4453 9.96094H15.2734C15.2734 12.8687 12.9078 15.2344 10 15.2344C7.09223 15.2344 4.72656 12.8687 4.72656 9.96094H3.55469C3.55469 13.3174 6.13371 16.0823 9.41406 16.3793V18.8281H5.3125V20H14.6875V18.8281H10.5859V16.3793C13.8663 16.0823 16.4453 13.3174 16.4453 9.96094Z" fill="black"/>
<path d="M10 14.0625C12.2616 14.0625 14.1016 12.2225 14.1016 9.96094V4.10156C14.1016 1.83996 12.2616 0 10 0C7.7384 0 5.89844 1.83996 5.89844 4.10156V9.96094C5.89844 12.2225 7.7384 14.0625 10 14.0625ZM10 1.17188C11.4148 1.17188 12.5985 2.18 12.8707 3.51562H11.1719V4.6875H12.9297V6.44531H11.1719V7.61719H12.9297V9.375H11.1719V10.5469H12.8707C12.5986 11.8825 11.4148 12.8906 10 12.8906C8.5852 12.8906 7.40148 11.8825 7.12926 10.5469H8.82812V9.375H7.07031V7.61719H8.82812V6.44531H7.07031V4.6875H8.82812V3.51562H7.12926C7.40148 2.18 8.5852 1.17188 10 1.17188Z" fill="black"/>
</svg>
