<svg width="50" height="50" viewBox="0 0 50 50" fill="none" xmlns="http://www.w3.org/2000/svg">
<path d="M39.0625 2.34375C33.8852 2.34375 29.6875 6.54141 29.6875 11.7188C29.6875 14.6906 31.075 17.3352 33.2328 19.0523L32.0312 22.6562L36.1156 20.6141C37.043 20.9211 38.032 21.0938 39.0625 21.0938C44.2398 21.0938 48.4375 16.8961 48.4375 11.7188C48.4375 6.54141 44.2398 2.34375 39.0625 2.34375Z" fill="#50BAE3"/>
<path d="M46.4211 17.5148C47.6805 15.9195 48.4375 13.9094 48.4375 11.7188C48.4375 6.54141 44.2398 2.34375 39.0625 2.34375C36.8719 2.34375 34.8617 3.10078 33.2664 4.36016C32.007 5.95547 31.25 7.96563 31.25 10.1562C31.25 15.3336 35.4477 19.5312 40.625 19.5312C42.8156 19.5312 44.8258 18.7742 46.4211 17.5148Z" fill="#6EC5E7"/>
<path d="M29.7511 30.8521L30.5206 27.0009L32.0534 27.3071L31.2839 31.1583L29.7511 30.8521Z" fill="#5BB162"/>
<path d="M30.0937 29.1406L29.7468 30.8742L31.2789 31.1805L31.6304 29.4242L30.0937 29.1406Z" fill="#F5B94C"/>
<path d="M7.03125 30.4688C3.52969 26.9672 1.5625 22.218 1.5625 17.2664V12.5C1.5625 6.89062 6.10938 2.34375 11.7188 2.34375H25C26.7258 2.34375 28.125 3.74297 28.125 5.46875V7.03125C28.125 8.32578 27.0758 9.375 25.7812 9.375" fill="#333E44"/>
<path d="M3.90625 50L4.36328 43.6063C4.57656 40.6195 5.49063 37.7242 7.03125 35.1562V30.4688L12.5 24.2188C10.7742 24.218 9.375 22.8188 9.375 21.093V17.9688C9.375 16.6742 10.4242 15.625 11.7188 15.625C12.2258 15.625 12.7195 15.7898 13.125 16.0938L15.625 17.9688L17.9688 10.1562L25.7812 9.375L26.6453 11.1023C27.1047 12.0219 27.3438 13.0352 27.3438 14.0625C27.3438 15.0898 27.1047 16.1031 26.6453 17.0227L26.5625 17.1875L29.4313 21.4906C29.5984 21.7414 29.6875 22.0359 29.6875 22.3375C29.6875 22.9945 29.2672 23.5781 28.6438 23.7859L27.3438 24.2188V26.5625H24.7539C24.0266 26.5625 23.4375 27.1516 23.4375 27.8789C23.4375 28.4828 23.8484 29.0094 24.4344 29.1555L26.5625 29.6875V31.5773C26.5625 32.6906 25.6594 33.5938 24.5461 33.5938C24.3297 33.5938 24.1141 33.5586 23.9086 33.4906L22.1859 32.9164C21.9797 32.8477 21.7648 32.8125 21.5477 32.8125C20.4344 32.8125 19.5312 33.7156 19.5312 34.8289V37.5C21.5758 39.5445 23.0266 42.107 23.7281 44.9125L25 50H3.90625Z" fill="#E8A989"/>
<path d="M19.5312 37.5V34.8289C19.5312 33.7156 20.4344 32.8125 21.5477 32.8125C21.7641 32.8125 21.9797 32.8477 22.1852 32.9156L23.9078 33.4898C24.1141 33.5586 24.3289 33.5938 24.5461 33.5938C25.6594 33.5938 26.5625 32.6906 26.5625 31.5773V29.6875L24.4344 29.1555C23.8484 29.0094 23.4375 28.4828 23.4375 27.8789C23.4375 27.1516 24.0266 26.5625 24.7539 26.5625H26.3164H27.3438V24.2188L28.6438 23.7852C29.2672 23.5773 29.6875 22.9945 29.6875 22.3375C29.6875 22.0359 29.5984 21.7414 29.4313 21.4906L26.5625 17.1875L26.6453 17.0227C27.1047 16.1031 27.3438 15.0898 27.3438 14.0625C27.3438 13.0352 27.1047 12.0219 26.6453 11.1023L25.7812 9.375L17.9688 10.1562L15.625 17.9688L13.125 16.0938C12.7195 15.7898 12.2258 15.625 11.7188 15.625C10.4242 15.625 9.375 16.6742 9.375 17.9688V21.093C9.375 22.8188 10.7742 24.2188 12.5 24.2188L8.59375 28.6828V30.4688V35.1562C7.05313 37.7242 6.13906 40.6188 5.92578 43.6063L5.46875 50H25L23.7281 44.9125C23.0266 42.107 21.5758 39.5445 19.5312 37.5Z" fill="#F6BB95"/>
<path d="M7.03125 35.1562C5.49063 37.7242 4.57656 40.6188 4.36328 43.6063L3.90625 50H25L23.7281 44.9125C23.0266 42.107 21.5758 39.5445 19.5312 37.5C16.9383 37.5 14.3578 37.1547 11.8562 36.4719L7.03125 35.1562Z" fill="#2DA6FF"/>
<path d="M19.5312 37.4998C16.9383 37.4998 14.3578 37.1545 11.8562 36.4717L9.06406 35.71C7.71563 38.1381 6.90469 40.8303 6.70625 43.6053L6.25 49.9998H25L23.7281 44.9123C23.0266 42.1068 21.5758 39.5443 19.5312 37.4998Z" fill="#6CC1FF"/>
<path d="M43.75 50V32.4461C43.75 31.15 43.4117 29.8766 42.7687 28.7516C41.443 26.432 38.9758 25 36.3039 25H31.25C30.3867 25 29.6875 25.6992 29.6875 26.5625C29.6875 27.4258 30.3867 28.125 31.25 28.125H35.1258C36.8687 28.125 38.2812 29.5375 38.2812 31.2805C38.2812 32.5578 37.2453 33.5938 35.968 33.5938C35.443 33.5938 34.9328 33.4148 34.5227 33.0867L31.8883 30.9789C31.475 30.6484 30.9617 30.4688 30.4328 30.4688C29.5898 30.4688 28.9062 31.1523 28.9062 31.9953C28.9062 32.5055 29.1617 32.982 29.5859 33.2656C30.6812 33.9961 31.6016 34.9609 32.2789 36.0898C33.132 37.5117 34.4273 38.6148 35.9664 39.2305C36.893 39.6008 37.5 40.4977 37.5 41.4953V50" fill="#E8A989"/>
<path d="M42.1875 50V33.2273C42.1875 31.9312 41.8492 30.6578 41.2062 29.5328C39.8805 27.2133 37.4133 25.7812 34.7414 25.7812H29.9039C29.7703 26.0117 29.6875 26.2766 29.6875 26.5625C29.6875 27.4258 30.3867 28.125 31.25 28.125H35.1258C36.8687 28.125 38.2812 29.5375 38.2812 31.2805C38.2812 32.5578 37.2453 33.5938 35.968 33.5938C35.443 33.5938 34.9328 33.4148 34.5227 33.0867L31.8883 30.9789C31.475 30.6484 30.9617 30.4688 30.4328 30.4688C29.5898 30.4688 28.9062 31.1523 28.9062 31.9953C28.9062 32.5055 29.1617 32.982 29.5859 33.2656C30.6812 33.9961 31.6016 34.9609 32.2789 36.0898C33.132 37.5117 34.4273 38.6148 35.9664 39.2305C36.893 39.6008 37.5 40.4977 37.5 41.4953V50H42.1875Z" fill="#F6BB95"/>
<path d="M40.625 7.62266L37.3101 10.9375C36.3945 11.8531 36.3945 13.3367 37.3101 14.2523C38.2258 15.168 39.7094 15.168 40.625 14.2523L43.9398 10.9375C44.8554 10.0219 44.8554 8.53828 43.9398 7.62266C43.0242 6.70781 41.5406 6.70781 40.625 7.62266Z" fill="#F5B94C"/>
<path d="M40.625 7.62266L37.3101 10.9375C36.9945 11.2531 36.7953 11.6383 36.6976 12.0422C36.7953 12.4461 36.9945 12.8312 37.3101 13.1469C38.2258 14.0625 39.7094 14.0625 40.625 13.1469L43.9398 9.83203C44.2554 9.51641 44.4547 9.13125 44.5523 8.72734C44.4547 8.32344 44.2554 7.93828 43.9398 7.62266C43.0242 6.70781 41.5406 6.70781 40.625 7.62266Z" fill="#E7B541"/>
<path d="M40.6249 7.62246L38.9679 9.27949L42.2827 12.5943L43.9398 10.9373C44.8554 10.0217 44.8554 8.53809 43.9398 7.62246C43.0241 6.70684 41.5406 6.70762 40.6249 7.62246Z" fill="#3B7537"/>
<path d="M40.6249 7.62256L38.9679 9.27959L41.7304 12.0421L43.9398 9.83272C44.2554 9.51709 44.4546 9.13193 44.5523 8.72803C44.4546 8.32412 44.2554 7.93897 43.9398 7.62334C43.0241 6.70771 41.5406 6.70771 40.6249 7.62256Z" fill="#52A04F"/>
<path d="M40.625 10.1562H35.9375C34.643 10.1562 33.5938 11.2055 33.5938 12.5C33.5938 13.7945 34.643 14.8438 35.9375 14.8438H40.625C41.9195 14.8438 42.9688 13.7945 42.9688 12.5C42.9688 11.2055 41.9195 10.1562 40.625 10.1562Z" fill="#F5B94C"/>
<path d="M40.625 10.1562H35.9375C35.4914 10.1562 35.0781 10.2875 34.7234 10.5047C34.5062 10.8594 34.375 11.2727 34.375 11.7188C34.375 13.0133 35.4242 14.0625 36.7188 14.0625H41.4062C41.8523 14.0625 42.2656 13.9313 42.6203 13.7141C42.8375 13.3594 42.9688 12.9461 42.9688 12.5C42.9688 11.2055 41.9195 10.1562 40.625 10.1562Z" fill="#F9D161"/>
<path d="M40.625 10.1562H38.2812V14.8438H40.625C41.9195 14.8438 42.9688 13.7945 42.9688 12.5C42.9688 11.2055 41.9195 10.1562 40.625 10.1562Z" fill="#52A04F"/>
<path d="M40.625 10.1562H38.2812V14.0625H41.4062C41.8523 14.0625 42.2656 13.9313 42.6203 13.7141C42.8375 13.3594 42.9688 12.9461 42.9688 12.5C42.9688 11.2055 41.9195 10.1562 40.625 10.1562Z" fill="#5BB162"/>
</svg>
