<svg width="50" height="50" viewBox="0 0 50 50" fill="none" xmlns="http://www.w3.org/2000/svg">
<path d="M35.1562 32.8125C39.0395 32.8125 42.1875 29.6645 42.1875 25.7812C42.1875 21.898 39.0395 18.75 35.1562 18.75C31.273 18.75 28.125 21.898 28.125 25.7812C28.125 29.6645 31.273 32.8125 35.1562 32.8125Z" fill="#6DB569"/>
<path d="M35.1562 18.75C33.6133 18.75 32.1914 19.2523 31.032 20.0945C30.1898 21.2539 29.6875 22.6758 29.6875 24.2188C29.6875 28.1023 32.8352 31.25 36.7188 31.25C38.2609 31.25 39.6836 30.7477 40.843 29.9055C41.6852 28.7461 42.1875 27.3242 42.1875 25.7812C42.1875 21.8977 39.0398 18.75 35.1562 18.75Z" fill="#8CC687"/>
<path d="M12.5 29.6875L6.82109 31.3102C3.70859 32.1992 1.5625 35.0445 1.5625 38.2812V48.4375H31.25V38.2812C31.25 35.0445 29.1039 32.1992 25.9914 31.3102L20.3125 29.6875" fill="#E8834D"/>
<path d="M31.25 38.2812C31.25 35.0445 29.1039 32.1992 25.9914 31.3102L20.3125 29.6875H12.5L7.48281 31.1211C6.70078 32.2867 6.25 33.6789 6.25 35.1562C6.25 40.7656 10.7969 45.3125 16.4062 45.3125H31.25V38.2812Z" fill="#F4925E"/>
<path d="M1.5625 43.75H7.8125V48.4375H1.5625V43.75Z" fill="#FFE1D3"/>
<path d="M7.03125 40.625H8.59375V48.4375H7.03125V40.625Z" fill="#E8834D"/>
<path d="M25 43.75H31.25V48.4375H25V43.75Z" fill="#FFE1D3"/>
<path d="M24.2188 40.625H25.7812V48.4375H24.2188V40.625Z" fill="#E8834D"/>
<path d="M12.5 28.75V29.6875C12.5 31.8445 14.2492 33.5938 16.4062 33.5938C18.5633 33.5938 20.3125 31.8445 20.3125 29.6875V28.75" fill="#EEB8AB"/>
<path d="M5.46875 15.2641V8.59375C5.46875 4.71016 8.61641 1.5625 12.5 1.5625H17.9688C20.5578 1.5625 22.6562 3.66094 22.6562 6.25C25.2453 6.25 27.3438 8.34844 27.3438 10.9375V15.2625" fill="#3F4042"/>
<path d="M27.3438 10.9375C27.3438 8.34844 25.2453 6.25 22.6562 6.25C22.6562 3.66094 20.5578 1.5625 17.9688 1.5625H12.5C11.1594 1.5625 9.91094 1.94453 8.84531 2.59531C8.19453 3.66094 7.8125 4.90937 7.8125 6.25C7.8125 9.93359 10.7992 12.9203 14.4828 12.9195L27.3438 12.9187V10.9375Z" fill="#5A5B5D"/>
<path d="M25 14.0625V21.0938C25 25.8398 21.1523 29.6875 16.4062 29.6875C11.6602 29.6875 7.8125 25.8398 7.8125 21.0938V14.0625H13.9977C16.7398 14.0625 19.0805 12.0797 19.5312 9.375L25 14.0625Z" fill="#EEB8AB"/>
<path d="M17.1875 29.6484C21.5672 29.2531 25 25.5766 25 21.0938V14.0625L19.5312 9.375C19.0805 12.0797 16.7398 14.0625 13.9977 14.0625H9.375V21.0938C9.375 25.5766 12.8078 29.2531 17.1875 29.6484Z" fill="#FFE1D3"/>
<path d="M7.8125 14.8438H7.03125C5.30547 14.8438 3.90625 16.243 3.90625 17.9688C3.90625 19.6945 5.30547 21.0938 7.03125 21.0938H7.8125" fill="#EEB8AB"/>
<path d="M25 14.8438H25.7812C27.507 14.8438 28.9062 16.243 28.9062 17.9688C28.9062 19.6945 27.507 21.0938 25.7812 21.0938H25" fill="#EEB8AB"/>
<path d="M27.3438 48.4375C26.4805 48.4375 25.7812 47.7383 25.7812 46.875C23.8727 46.3977 22.4102 44.8641 22.0242 42.9352L21.875 42.1875H48.4375L48.2883 42.9352C47.9023 44.8641 46.4398 46.3977 44.5312 46.875C44.5312 47.7383 43.832 48.4375 42.9688 48.4375H27.3438Z" fill="#4084C1"/>
<path d="M23.8555 42.1883C23.5898 41.7281 23.4375 41.1945 23.4375 40.625C23.4375 38.8984 24.8359 37.5 26.5625 37.5C26.8594 37.5 27.1406 37.5391 27.4141 37.6172C27.7188 36.2109 28.9688 35.1562 30.4688 35.1562C32.0781 35.1562 33.4063 36.375 33.5703 37.9375C34.0391 37.6563 34.5781 37.5 35.1562 37.5C35.7344 37.5 36.2813 37.6641 36.75 37.9453C36.7266 37.7969 36.7188 37.6484 36.7188 37.5C36.7188 35.7734 38.1172 34.375 39.8438 34.375C41.5703 34.375 42.9688 35.7734 42.9688 37.5C42.9688 37.5312 42.9688 37.5703 42.9609 37.6016C43.2109 37.5391 43.4766 37.5 43.75 37.5C45.4766 37.5 46.875 38.8984 46.875 40.625C46.875 41.1648 46.7383 41.6719 46.4977 42.1148" fill="#E7B541"/>
<path d="M36.7188 29.6875V25.7812H38.2812L35.1562 21.875L32.0312 25.7812H33.5938V29.6875H36.7188Z" fill="white"/>
<path d="M16.1469 25.7773L16.8765 23.5875C17.0625 23.0312 17.5828 22.6562 18.1695 22.6562C18.9211 22.6562 19.5312 23.2664 19.5312 24.018C19.5312 24.1508 19.5148 24.2836 19.4828 24.4133L19.2484 25.3523" fill="#C43535"/>
<path d="M16.4062 26.5627C15.2844 26.5627 14.1773 26.383 13.114 26.0283L12.2523 25.7408L12.7469 24.2588L13.6086 24.5463C15.4148 25.1486 17.3976 25.1486 19.2039 24.5463L20.0656 24.2588L20.5601 25.7408L19.6984 26.0283C18.6351 26.383 17.5281 26.5627 16.4062 26.5627Z" fill="#EEB8AB"/>
<path d="M20.3125 29.6875V29.5234C19.1399 30.1234 17.8141 30.4687 16.4063 30.4687C15.6774 30.4687 14.9742 30.368 14.2985 30.1977C14.8336 31.7164 16.2664 32.8125 17.9688 32.8125C18.2789 32.8125 18.5766 32.7672 18.8664 32.6992C19.7422 31.9828 20.3125 30.907 20.3125 29.6875Z" fill="#FFE1D3"/>
<path d="M44.5312 46.875C46.4398 46.3977 47.9023 44.8641 48.2883 42.9352L48.4375 42.1875H25L25.1492 42.9352C25.5352 44.8641 26.9977 46.3977 28.9062 46.875C28.9062 47.7383 29.6055 48.4375 30.4688 48.4375H42.9688C43.832 48.4375 44.5312 47.7383 44.5312 46.875Z" fill="#59A2D8"/>
<path d="M26.5632 42.1789L46.4976 42.1148C46.7382 41.6719 46.875 41.1648 46.875 40.625C46.875 38.8984 45.4765 37.5 43.75 37.5C43.4765 37.5 43.2109 37.5391 42.9609 37.6016C42.9687 37.5703 42.9687 37.5312 42.9687 37.5C42.9687 35.7734 41.5703 34.375 39.8437 34.375C38.1171 34.375 36.7187 35.7734 36.7187 37.5C36.7187 37.6484 36.7265 37.7969 36.75 37.9453C36.2812 37.6641 35.7343 37.5 35.1562 37.5C34.5781 37.5 34.039 37.6563 33.5703 37.9375C33.5257 37.5102 33.3867 37.1125 33.1859 36.7539C31.8726 36.9258 30.8156 37.9031 30.539 39.1789C30.2656 39.1008 29.9843 39.0617 29.6875 39.0617C27.9632 39.0617 26.5679 40.4562 26.5632 42.1789Z" fill="#F9CB6E"/>
</svg>
