<svg width="51" height="50" viewBox="0 0 51 50" fill="none" xmlns="http://www.w3.org/2000/svg">
<g clip-path="url(#clip0_704_6940)">
<path d="M39.1128 0H8.40444C7.32896 0 6.45386 0.875 6.45386 1.95059V39.0142C6.45386 40.0897 7.32886 40.9647 8.40444 40.9647H10.3783C10.5136 40.9647 10.6428 40.9086 10.7352 40.8097L40.9598 8.43838C41.0442 8.34795 41.0912 8.22881 41.0912 8.10518V1.97832C41.0913 0.8875 40.2038 0 39.1128 0Z" fill="#FF6986"/>
<path d="M45.046 12.0596V42.4316C45.046 43.5078 44.171 44.3828 43.0958 44.3828H11.8409C10.7648 44.3828 9.88977 43.5078 9.88977 42.4316V5.6123C9.88977 4.53711 10.7648 3.66211 11.8409 3.66211H36.6476L37.5499 4.56445L45.046 12.0596Z" fill="#D9F9F8"/>
<path d="M45.046 12.0596V42.4316C45.046 43.5078 44.171 44.3828 43.0958 44.3828H11.8409C10.7648 44.3828 9.88977 43.5078 9.88977 42.4316V41.9414H41.0714C42.1603 41.9414 43.0431 41.0586 43.0431 39.9688V12.0596L37.5499 4.56445L45.046 12.0596Z" fill="#C1EAF4"/>
<path d="M45.046 12.0596H43.0431L37.2902 12.0586C36.9357 12.0586 36.6476 11.7715 36.6476 11.416V3.66211C36.7775 3.66211 36.9015 3.71289 36.9933 3.80469L44.9034 11.7148C44.9952 11.8066 45.046 11.9307 45.046 12.0596Z" fill="#AEC9D6"/>
<path d="M45.046 12.0596H43.0431L36.9933 3.80469L44.9034 11.7148C44.9952 11.8066 45.046 11.9307 45.046 12.0596Z" fill="#8FB2BC"/>
<path d="M18.7255 18.5991H36.2471C36.6516 18.5991 36.9796 18.2713 36.9796 17.8667C36.9796 17.4621 36.6516 17.1343 36.2471 17.1343H18.7255C18.321 17.1343 17.993 17.4621 17.993 17.8667C17.993 18.2713 18.321 18.5991 18.7255 18.5991Z" fill="#AEC9D6"/>
<path d="M36.2471 21.4536H18.7255C18.321 21.4536 17.993 21.7814 17.993 22.186C17.993 22.5906 18.321 22.9185 18.7255 22.9185H36.2471C36.6516 22.9185 36.9796 22.5906 36.9796 22.186C36.9796 21.7814 36.6516 21.4536 36.2471 21.4536Z" fill="#AEC9D6"/>
<path d="M36.2471 25.8594H32.7855C32.381 25.8594 32.0531 26.1872 32.0531 26.5918C32.0531 26.9964 32.381 27.3242 32.7855 27.3242H36.2471C36.6516 27.3242 36.9796 26.9964 36.9796 26.5918C36.9796 26.1872 36.6516 25.8594 36.2471 25.8594Z" fill="#AEC9D6"/>
<path d="M29.3386 25.8594H18.7255C18.321 25.8594 17.993 26.1872 17.993 26.5918C17.993 26.9964 18.321 27.3242 18.7255 27.3242H29.3386C29.743 27.3242 30.071 26.9964 30.071 26.5918C30.071 26.1872 29.743 25.8594 29.3386 25.8594Z" fill="#AEC9D6"/>
<path d="M36.6857 40.8018C36.6857 45.873 32.5587 50 27.4865 50C27.09 50 26.6993 49.9746 26.3165 49.9258H26.3126C21.7921 49.3467 18.2872 45.4756 18.2872 40.8018C18.2872 36.127 21.7921 32.2559 26.3126 31.6768H26.3165C26.6993 31.6279 27.09 31.6025 27.4865 31.6025C32.5587 31.6025 36.6857 35.7295 36.6857 40.8018Z" fill="#FF6986"/>
<path d="M36.6857 40.8018C36.6857 45.873 32.5587 50 27.4865 50C27.09 50 26.6993 49.9746 26.3165 49.9258C30.837 49.3467 34.3419 45.4756 34.3419 40.8018C34.3419 36.127 30.837 32.2559 26.3165 31.6768C26.6993 31.6279 27.09 31.6025 27.4865 31.6025C32.5587 31.6025 36.6857 35.7295 36.6857 40.8018Z" fill="#EA3487"/>
<path d="M31.2071 40.0975C30.921 40.3836 30.4573 40.3835 30.1713 40.0976L28.2188 38.1451V45.2258C28.2188 45.6304 27.8909 45.9582 27.4864 45.9582C27.0819 45.9582 26.754 45.6304 26.754 45.2258V38.1451L24.8014 40.0976C24.5154 40.3835 24.0516 40.3836 23.7657 40.0975C23.4796 39.8114 23.4796 39.3477 23.7657 39.0617L26.9685 35.859C27.1115 35.716 27.299 35.6445 27.4864 35.6445C27.6738 35.6445 27.8613 35.716 28.0042 35.859L31.2071 39.0617C31.4931 39.3477 31.4931 39.8114 31.2071 40.0975Z" fill="white"/>
</g>
<defs>
<clipPath id="clip0_704_6940">
<rect width="50" height="50" fill="white" transform="translate(0.75)"/>
</clipPath>
</defs>
</svg>
