<svg width="50" height="50" viewBox="0 0 50 50" fill="none" xmlns="http://www.w3.org/2000/svg">
<path d="M20.3409 38.038H30.3712C31.8864 38.038 33.2955 37.0001 33.5379 35.5077C33.8485 33.5986 32.3864 31.9547 30.5379 31.9547H25.0227C23.5606 31.9547 22.1743 31.4319 21.0303 30.5228C18.6667 28.6365 13.6743 26.038 7.10608 30.3031V42.4168C7.10608 42.4168 10.6894 41.9622 16.7273 44.3183C20.9243 45.9622 25.5152 46.3941 29.9167 45.4319C34.7273 44.3865 40.9924 42.4168 47.0303 38.7274C47.7273 38.3031 48.2197 37.591 48.4091 36.7956C48.7273 35.4395 48.0909 34.038 46.8637 33.3789L46.8409 33.3638C46.0758 32.9547 45.1667 32.8865 44.3485 33.1819L32.0379 37.5986" fill="#E5D3B3"/>
<path opacity="0.1" d="M32.1818 43.159C27.7803 44.1136 23.1894 43.6818 18.9925 42.0454C18.7046 41.9318 18.4167 41.8257 18.1364 41.7196C12.8409 39.803 9.37124 34.6893 9.37124 29.0605C8.63639 29.3863 7.87881 29.7878 7.09851 30.2954V42.409C7.09851 42.409 10.6818 41.9545 16.7197 44.3105C20.9167 45.9545 25.5076 46.3863 29.9091 45.4242C34.7197 44.3787 40.9849 42.409 47.0228 38.7196C47.6591 38.3333 48.1061 37.7121 48.3258 36.9999C42.5985 40.3333 36.7349 42.1666 32.1818 43.159Z" fill="black"/>
<path opacity="0.15" d="M21.5757 37.5302H31.606C31.8105 37.5302 32.0075 37.5075 32.2045 37.4772C32.8863 37.0302 33.3939 36.3408 33.5302 35.5075C33.553 35.3787 33.5454 35.2499 33.553 35.1211C33.0984 35.6665 32.3939 36.015 31.606 36.015H21.5757C21.159 36.015 20.8181 36.3559 20.8181 36.7726C20.8181 37.1893 21.1514 37.5302 21.5757 37.5302Z" fill="black"/>
<path d="M7.09847 43.8031V27.8713C7.09847 27.3561 6.6818 26.9395 6.16665 26.9395H2.44695C1.9318 26.9395 1.51514 27.3561 1.51514 27.8713V43.8107C1.51514 44.3258 1.9318 44.7425 2.44695 44.7425H6.17423C6.6818 44.7349 7.09847 44.3182 7.09847 43.8031Z" fill="#5D5B68"/>
<path opacity="0.15" d="M3.03029 38.394V26.9395H2.44695C1.9318 26.9395 1.51514 27.3561 1.51514 27.8713V43.8107C1.51514 44.3258 1.9318 44.7425 2.44695 44.7425H6.17423C6.68938 44.7425 7.10605 44.3258 7.10605 43.8107V42.4698C4.85605 42.4622 3.03029 40.6364 3.03029 38.394Z" fill="black"/>
<path d="M42.7728 11.4017C42.7728 18.432 29.0606 28.0684 29.0606 28.0684C29.0606 28.0684 15.3485 18.432 15.3485 11.4017C15.3485 7.34866 18.6364 4.06836 22.6818 4.06836C25.4243 4.06836 27.8106 5.57594 29.0606 7.81078C30.3182 5.57594 32.7121 4.06836 35.447 4.06836C39.4925 4.06836 42.7728 7.34109 42.7728 11.4017Z" fill="#FF4823"/>
<path opacity="0.1" d="M42.2728 13.7352C36.8258 21.9473 24.6212 22.1291 19.0531 14.0003C17.7425 12.0836 16.8637 10.1443 16.8637 8.36395C16.8637 7.78819 16.9394 7.22758 17.0606 6.68213C15.9925 7.95486 15.3409 9.5988 15.3409 11.3943C15.3409 18.4246 29.0531 28.0609 29.0531 28.0609C29.0531 28.0609 40.1743 20.2503 42.3864 13.5609C42.3485 13.6215 42.3106 13.6821 42.2728 13.7352Z" fill="black"/>
<path d="M45.8182 13.0833C44.7727 13.0833 43.8939 13.7955 43.6364 14.7652H40.1591L39.0076 11.8864C38.9015 11.6136 38.6439 11.4318 38.3561 11.4091C38.0682 11.3788 37.7879 11.5379 37.6439 11.7879L35.7273 15.1212L33.5758 7.63637C33.4773 7.29546 33.1818 7.06819 32.803 7.09092C32.447 7.11365 32.1591 7.37122 32.0985 7.71971L30.5076 17.0303L29.3788 12.8485C29.2955 12.553 29.053 12.3333 28.75 12.2955C28.4394 12.25 28.1515 12.4015 27.9924 12.6667L26.7727 14.7652H25.2045C24.9394 13.803 24.0682 13.0833 23.0227 13.0833C21.7727 13.0833 20.75 14.1061 20.75 15.3561C20.75 16.6061 21.7727 17.6288 23.0227 17.6288C23.947 17.6288 24.7424 17.0758 25.0985 16.2803H27.2197C27.4924 16.2803 27.7424 16.1364 27.8712 15.9015L28.4015 14.9924L29.9545 20.75C30.0455 21.0833 30.3485 21.3106 30.6894 21.3106H30.7273C31.0833 21.2955 31.3788 21.0303 31.4394 20.6818L33.053 11.2424L34.7803 17.2576C34.8636 17.553 35.1136 17.7652 35.4167 17.803C35.7273 17.8409 36.0152 17.6894 36.1667 17.4318L38.197 13.9015L38.9545 15.803C39.0682 16.0909 39.3485 16.2803 39.6591 16.2803H43.7576C44.1136 17.0758 44.9091 17.6288 45.8333 17.6288C47.0833 17.6288 48.1061 16.6061 48.1061 15.3561C48.1061 14.1061 47.0758 13.0833 45.8182 13.0833Z" fill="#E6E9EE"/>
<path opacity="0.3" d="M35.447 4.06836C34.6667 4.06836 33.9167 4.20472 33.2122 4.432C33.3864 5.51533 34.3182 6.34109 35.447 6.34109C38.2349 6.34109 40.5 8.61381 40.5 11.4017C40.5 12.5153 41.3031 13.4396 42.3637 13.6365C42.6212 12.8714 42.7728 12.129 42.7728 11.4017C42.7728 7.34109 39.4925 4.06836 35.447 4.06836Z" fill="white"/>
</svg>
