<svg width="34" height="34" viewBox="0 0 34 34" fill="none" xmlns="http://www.w3.org/2000/svg">
<g clip-path="url(#clip0_1237_49771)">
<path d="M18.9818 7.08923H8.41133C7.98191 7.08923 7.569 7.10571 7.17261 7.15513C2.72971 7.53401 0.5 10.1533 0.5 14.9799V21.5692C0.5 28.1585 3.14262 29.4599 8.41133 29.4599H9.07199C9.43535 29.4599 9.91432 29.707 10.129 29.987L12.111 32.6227C12.9864 33.7923 14.4068 33.7923 15.2821 32.6227L17.2641 29.987C17.5118 29.6576 17.9082 29.4599 18.3211 29.4599H18.9818C23.8211 29.4599 26.4472 27.2525 26.8271 22.8047C26.8766 22.4093 26.8931 21.9975 26.8931 21.5692V14.9799C26.8931 9.72495 24.2505 7.08923 18.9818 7.08923ZM7.93236 20.2678C7.00744 20.2678 6.28072 19.5265 6.28072 18.6205C6.28072 17.7145 7.02396 16.9732 7.93236 16.9732C8.84076 16.9732 9.58399 17.7145 9.58399 18.6205C9.58399 19.5265 8.84076 20.2678 7.93236 20.2678ZM13.6966 20.2678C12.7716 20.2678 12.0449 19.5265 12.0449 18.6205C12.0449 17.7145 12.7882 16.9732 13.6966 16.9732C14.605 16.9732 15.3482 17.7145 15.3482 18.6205C15.3482 19.5265 14.6215 20.2678 13.6966 20.2678ZM19.4773 20.2678C18.5524 20.2678 17.8257 19.5265 17.8257 18.6205C17.8257 17.7145 18.5689 16.9732 19.4773 16.9732C20.3857 16.9732 21.1289 17.7145 21.1289 18.6205C21.1289 19.5265 20.3857 20.2678 19.4773 20.2678Z" fill="#CACACA"/>
<path d="M33.4993 8.39068V14.98C33.4993 18.2746 32.4752 20.515 30.4272 21.7505C29.9317 22.047 29.3537 21.6516 29.3537 21.0751L29.3702 14.98C29.3702 8.39068 25.5879 4.61831 18.9814 4.61831L8.92301 4.63478C8.34494 4.63478 7.94855 4.05822 8.24584 3.56402C9.48457 1.52134 11.7308 0.5 15.0175 0.5H25.5879C30.8566 0.5 33.4993 3.13572 33.4993 8.39068Z" fill="#1BD15D"/>
</g>
<defs>
<clipPath id="clip0_1237_49771">
<rect width="33" height="33" fill="white" transform="translate(0.5 0.5)"/>
</clipPath>
</defs>
</svg>
