<svg width="18" height="19" viewBox="0 0 18 19" fill="none" xmlns="http://www.w3.org/2000/svg">
<path d="M9.48709 4.34277H13.2332C15.8667 4.34277 18.0016 6.47769 18.0016 9.11111V10.7841C18.0016 12.898 16.6259 14.6904 14.721 15.3155C14.8032 15.7569 14.9873 16.1626 15.2479 16.5071C15.5964 16.968 15.2656 17.6371 14.6879 17.6401C14.6827 17.6401 14.6776 17.6401 14.6724 17.6401C13.3627 17.6401 12.26 16.7561 11.9267 15.5525H9.48723C6.85367 15.5525 4.71875 13.4176 4.71875 10.7841V9.11111C4.71875 6.47769 6.85353 4.34277 9.48709 4.34277Z" fill="url(#paint0_linear_5044_35461)"/>
<path d="M4.71875 9.11111V10.7841C4.71875 11.0726 4.74429 11.3552 4.79346 11.6297L8.64142 15.4777C8.91594 15.5269 9.19856 15.5524 9.48709 15.5524H11.9267C12.26 16.7561 13.3625 17.6401 14.6724 17.6401H14.6879C15.2656 17.6369 15.5963 16.9678 15.2479 16.5071C14.9873 16.1626 14.8032 15.7569 14.721 15.3154C16.5047 14.7301 17.8245 13.121 17.985 11.1829L11.1449 4.34277H9.48709C6.85353 4.34277 4.71875 6.47769 4.71875 9.11111Z" fill="url(#paint1_linear_5044_35461)"/>
<path d="M15.9556 14.6985C15.6748 14.894 15.3717 15.0606 15.051 15.193C15.0391 15.1826 15.0277 15.1716 15.0166 15.1592C15.0063 15.1482 14.9971 15.1371 14.9879 15.1252C14.9668 15.1091 14.9465 15.0911 14.9278 15.0705C14.9174 15.0594 14.9079 15.048 14.8991 15.0365C14.878 15.02 14.8578 15.0024 14.8386 14.9817C14.8287 14.9707 14.8191 14.9591 14.8099 14.9476C14.7889 14.9313 14.7685 14.9133 14.7499 14.8929C14.7396 14.8814 14.7304 14.8703 14.7212 14.8585C14.7001 14.8424 14.6798 14.8244 14.6611 14.8038C14.6507 14.7927 14.6412 14.7812 14.6324 14.7698C14.6113 14.7533 14.5911 14.7357 14.5719 14.715C14.562 14.7038 14.5524 14.6923 14.5432 14.6809C14.5222 14.6644 14.502 14.6464 14.4832 14.6261C14.4729 14.6151 14.4637 14.6036 14.4545 14.5921C14.4335 14.5757 14.4131 14.5576 14.3945 14.537C14.384 14.5259 14.3745 14.5145 14.3658 14.5029C14.3447 14.4869 14.3244 14.4689 14.3052 14.4483C14.2953 14.4371 14.2857 14.4256 14.2769 14.4141C14.2555 14.3977 14.2353 14.3797 14.2165 14.3594C14.2066 14.3483 14.197 14.3368 14.1878 14.3254C14.1668 14.3089 14.1464 14.2909 14.1278 14.2703C14.1173 14.2592 14.1083 14.2476 14.0991 14.2362C14.078 14.2202 14.0577 14.2022 14.0389 14.1814C14.0286 14.1705 14.019 14.1589 14.0102 14.1474C13.9888 14.131 13.9689 14.1133 13.9498 14.0927C13.9399 14.0816 13.9303 14.0701 13.9211 14.0587C13.9001 14.0422 13.8797 14.0242 13.8611 14.0036C13.8508 13.9925 13.8416 13.9814 13.8324 13.9695C13.8114 13.9535 13.791 13.9353 13.7722 13.9147C13.7619 13.9036 13.7524 13.8922 13.7437 13.8807C13.7225 13.8642 13.7023 13.8466 13.6831 13.826C13.6732 13.8149 13.6636 13.8034 13.6544 13.792C13.6334 13.7755 13.6131 13.7575 13.5944 13.7372C13.5841 13.7256 13.5749 13.7145 13.5657 13.7027C13.5447 13.6866 13.5243 13.6687 13.5057 13.6481C13.4952 13.6369 13.4857 13.6254 13.477 13.614C13.4558 13.5975 13.4356 13.5799 13.4164 13.5592C13.4065 13.5482 13.3969 13.5367 13.3877 13.5251C13.3667 13.5088 13.3464 13.4908 13.3277 13.4705C13.3174 13.4594 13.3082 13.4478 13.299 13.4364C13.278 13.42 13.2576 13.402 13.239 13.3814C13.2285 13.3702 13.2195 13.3587 13.2103 13.3473C13.1893 13.3312 13.1689 13.3132 13.1497 13.2925C13.1398 13.2814 13.1302 13.27 13.121 13.2585C13.1 13.242 13.0798 13.224 13.061 13.2038C13.0511 13.1927 13.0415 13.1811 13.0323 13.1697C13.0113 13.1533 12.991 13.1353 12.9723 13.1145C12.9618 13.1035 12.9528 13.092 12.9436 13.0805C12.9226 13.0644 12.9022 13.0464 12.8834 13.0258C12.7917 12.926 12.7461 12.8097 12.7461 12.6765C12.7461 12.5375 12.7932 12.4196 12.8873 12.3224C12.9819 12.2256 13.0982 12.1771 13.237 12.1771C13.3703 12.1771 13.4855 12.2256 13.5823 12.3224C13.5975 12.3378 13.611 12.3535 13.6236 12.3695C13.64 12.3826 13.6558 12.3963 13.6714 12.4117C13.6864 12.4267 13.6997 12.4423 13.7123 12.4584C13.7288 12.4714 13.7449 12.4852 13.7601 12.5004C13.7751 12.5154 13.7888 12.5314 13.8015 12.5475C13.8175 12.5601 13.8336 12.574 13.849 12.5892C13.8642 12.6046 13.8777 12.6203 13.8903 12.6364C13.9067 12.6494 13.9225 12.6627 13.9381 12.6785C13.9531 12.6933 13.9664 12.709 13.979 12.7252C13.9955 12.7381 14.0116 12.752 14.0268 12.7672C14.0418 12.7822 14.0551 12.7979 14.0682 12.8139C14.0842 12.827 14.1003 12.8407 14.1157 12.8561C14.1309 12.8713 14.1444 12.887 14.157 12.9032C14.1734 12.9161 14.1891 12.9296 14.2048 12.9452C14.2198 12.9602 14.2331 12.9758 14.2457 12.9919C14.2622 13.0049 14.2783 13.0187 14.2935 13.0341C14.3085 13.049 14.3218 13.0647 14.3349 13.0807C14.3509 13.0938 14.367 13.1075 14.3824 13.1228C14.3972 13.1382 14.4109 13.1538 14.4236 13.1699C14.4396 13.1829 14.4558 13.1964 14.4711 13.2116C14.4863 13.227 14.4998 13.2427 14.5124 13.2587C14.5289 13.2718 14.545 13.2855 14.5602 13.3009C14.5752 13.3157 14.5885 13.3314 14.6015 13.3476C14.6176 13.3605 14.6337 13.3744 14.6489 13.3896C14.6639 13.4046 14.6776 13.4206 14.6903 13.4367C14.7063 13.4493 14.7225 13.4631 14.7378 13.4785C14.753 13.4937 14.7665 13.5094 14.7791 13.5256C14.7956 13.5385 14.8112 13.5523 14.8269 13.5676C14.8419 13.5825 14.8552 13.5982 14.8678 13.6143C14.8843 13.6273 14.9004 13.6411 14.9156 13.6564C14.9306 13.6714 14.9443 13.6875 14.957 13.7035C14.973 13.7162 14.9891 13.7299 15.0045 13.7451C15.0197 13.7605 15.0332 13.7762 15.0458 13.7923C15.0621 13.8053 15.0779 13.8188 15.0936 13.8344C15.1086 13.8494 15.1219 13.865 15.1345 13.8811C15.151 13.8941 15.1671 13.9079 15.1823 13.9233C15.1973 13.9381 15.2106 13.9538 15.2236 13.97C15.2397 13.9829 15.2558 13.9967 15.2712 14.012C15.2864 14.0274 15.2999 14.043 15.3125 14.0591C15.3288 14.0721 15.3446 14.0854 15.3603 14.1012C15.3753 14.1161 15.3886 14.1317 15.4012 14.1479C15.4177 14.1608 15.4338 14.1747 15.449 14.19C15.464 14.2049 15.4773 14.2206 15.4903 14.2366C15.5064 14.2497 15.5225 14.2634 15.5379 14.2788C15.5527 14.2941 15.5666 14.3098 15.5792 14.3259C15.5951 14.3385 15.6113 14.3523 15.6266 14.3677C15.642 14.3829 15.6553 14.3986 15.6679 14.4146C15.6844 14.4277 15.7005 14.4414 15.7157 14.4568C15.7307 14.4718 15.7441 14.4874 15.757 14.5035C15.7731 14.5165 15.7892 14.5303 15.8045 14.5456C15.8194 14.5605 15.8333 14.5765 15.8459 14.5926C15.862 14.6052 15.878 14.6191 15.8933 14.6344C15.9086 14.6497 15.922 14.6654 15.9346 14.6815C15.9419 14.6867 15.9487 14.6924 15.9556 14.6985Z" fill="url(#paint2_linear_5044_35461)"/>
<path d="M17.9994 10.8573C17.9765 12.3845 17.2356 13.7378 16.099 14.5941C16.0971 14.5929 16.0956 14.591 16.0941 14.5895C16.0819 14.5766 16.071 14.5608 16.0616 14.5432C16.0405 14.5314 16.0213 14.5177 16.0052 14.5008C15.993 14.4877 15.9823 14.4721 15.9727 14.4541C15.9513 14.4425 15.9326 14.4284 15.9164 14.4115C15.9038 14.3986 15.8932 14.3832 15.884 14.3652C15.8626 14.3534 15.8433 14.3395 15.8273 14.3228C15.815 14.3097 15.8043 14.2941 15.7947 14.2765C15.7737 14.2646 15.7546 14.2508 15.7384 14.2339C15.7262 14.221 15.7155 14.2054 15.7059 14.1877C15.6844 14.1758 15.6658 14.1617 15.6497 14.1448C15.6375 14.1318 15.6266 14.1165 15.6172 14.0985C15.5957 14.0871 15.5766 14.0728 15.5604 14.0561C15.5482 14.043 15.5375 14.0274 15.5283 14.0097C15.5069 13.9979 15.4878 13.9841 15.4717 13.9672C15.4595 13.9542 15.4487 13.9385 15.4392 13.921C15.4178 13.9091 15.3989 13.895 15.3829 13.8781C15.3707 13.8655 15.3599 13.8498 15.3503 13.8318C15.3289 13.8203 15.3098 13.8062 15.294 13.7893C15.2814 13.7764 15.2708 13.7607 15.2616 13.743C15.2402 13.7312 15.221 13.7173 15.2049 13.7005C15.1927 13.6875 15.182 13.6718 15.1723 13.6543C15.1509 13.6423 15.1322 13.6282 15.116 13.6114C15.1038 13.5988 15.0931 13.5831 15.0835 13.565C15.0621 13.5536 15.043 13.5395 15.0273 13.5226C15.0147 13.5095 15.004 13.4943 14.9948 13.4763C14.9734 13.4645 14.9543 13.4506 14.9381 13.4337C14.9258 13.4208 14.9151 13.405 14.9055 13.3874C14.8845 13.3756 14.8654 13.3619 14.8493 13.345C14.8371 13.332 14.8263 13.3163 14.8168 13.2983C14.7954 13.2868 14.7766 13.2726 14.7605 13.2559C14.7479 13.2428 14.7372 13.2276 14.728 13.2095C14.7065 13.1976 14.6874 13.1839 14.6714 13.167C14.659 13.154 14.6483 13.1383 14.6388 13.1207C14.6178 13.1089 14.5986 13.0951 14.5825 13.0783C14.5703 13.0653 14.5596 13.0496 14.55 13.0319C14.5285 13.0201 14.5099 13.0059 14.4937 12.989C14.4814 12.9761 14.4707 12.9608 14.4611 12.9428C14.4397 12.9314 14.4206 12.9171 14.4045 12.9003C14.3923 12.8873 14.3816 12.8716 14.3724 12.854C14.351 12.8422 14.3319 12.8284 14.3157 12.8115C14.3035 12.7986 14.2928 12.7829 14.2831 12.7652C14.2617 12.7534 14.243 12.7392 14.227 12.7224C14.2148 12.7097 14.2039 12.6941 14.1944 12.6761C14.173 12.6647 14.1538 12.6504 14.1381 12.6336C14.1255 12.6206 14.1148 12.6049 14.1056 12.5874C14.0842 12.5754 14.0651 12.5617 14.049 12.5448C14.0366 12.5317 14.0259 12.5161 14.0164 12.4985C13.995 12.4867 13.9762 12.4725 13.9601 12.4557C13.9479 12.443 13.9372 12.4274 13.9276 12.4094C13.9062 12.3978 13.8871 12.3837 13.8713 12.3669C13.8587 12.3539 13.8481 12.3387 13.8387 12.3207C13.8173 12.3087 13.7982 12.295 13.7822 12.2781C13.7699 12.2652 13.7592 12.2494 13.7496 12.2318C13.7286 12.22 13.7095 12.2061 13.6933 12.1894C13.6811 12.1763 13.6704 12.1607 13.6608 12.1427C13.6393 12.1311 13.6207 12.117 13.6046 12.1002C13.592 12.0872 13.5813 12.0718 13.5721 12.0538C13.5506 12.042 13.5314 12.0283 13.5153 12.0114C13.5031 11.9984 13.4924 11.9827 13.4828 11.9651C13.4618 11.9533 13.4427 11.9394 13.4266 11.9227C13.4143 11.9096 13.4035 11.894 13.3941 11.8763C13.3727 11.8645 13.3538 11.8503 13.3378 11.8334C13.3255 11.8205 13.3148 11.8051 13.3052 11.7871C13.2838 11.7757 13.2647 11.7616 13.2486 11.7447C13.2363 11.7317 13.2256 11.716 13.2164 11.6984C13.1949 11.6865 13.1759 11.6727 13.1598 11.656C13.1476 11.6429 13.1369 11.6273 13.1272 11.6096C13.1058 11.5978 13.0871 11.5836 13.0709 11.5667C13.0587 11.5541 13.048 11.5384 13.0384 11.5204C13.017 11.509 12.9979 11.4949 12.9822 11.478C12.9294 11.4225 12.903 11.3227 12.903 11.1784C12.903 10.9732 12.9156 10.7956 12.9405 10.6457C12.9653 10.4961 12.9987 10.3687 13.0403 10.2631C13.0821 10.1577 13.1303 10.069 13.1857 9.99664C13.2412 9.92482 13.2967 9.86357 13.3522 9.81372C13.4115 9.76208 13.4762 9.70784 13.5454 9.65071C13.5355 9.63972 13.5263 9.62778 13.5186 9.61555C13.5107 9.60979 13.5026 9.60402 13.4946 9.59784C13.4682 9.57765 13.4468 9.55348 13.4299 9.52629C13.4218 9.52093 13.4138 9.5153 13.4059 9.50912C13.3794 9.48839 13.358 9.46477 13.3408 9.43758C13.3327 9.43222 13.3247 9.42645 13.3166 9.41986C13.2907 9.39967 13.2692 9.3755 13.2519 9.34872C13.244 9.34296 13.236 9.33733 13.2279 9.33115C13.2015 9.31082 13.1801 9.28665 13.1632 9.25987C13.1553 9.25424 13.1472 9.24847 13.1392 9.24229C13.1127 9.22169 13.0913 9.19794 13.0741 9.17075C13.066 9.16539 13.058 9.15976 13.0503 9.15358C13.024 9.13284 13.0025 9.10908 12.9854 9.08203C12.9773 9.07626 12.9693 9.0705 12.9612 9.06432C12.9348 9.04413 12.9134 9.01996 12.8965 8.99318C12.8886 8.98741 12.8805 8.98164 12.8725 8.9756C12.846 8.95486 12.8246 8.93111 12.8074 8.90405C12.7993 8.89856 12.7913 8.89293 12.7836 8.88675C12.7573 8.86615 12.7359 8.84239 12.7187 8.8152C12.7106 8.80984 12.7026 8.80408 12.6945 8.79762C12.6682 8.7773 12.6467 8.75313 12.6298 8.72635C12.6219 8.72058 12.6138 8.71495 12.6058 8.70877C12.5794 8.68803 12.558 8.66441 12.5407 8.63722C12.533 8.63187 12.5251 8.6261 12.517 8.61992C12.4906 8.59932 12.4692 8.57556 12.452 8.54837C12.4439 8.54301 12.4359 8.53738 12.4278 8.53079C12.4019 8.51047 12.38 8.48643 12.3631 8.45966C12.3552 8.45389 12.3471 8.44812 12.3391 8.44208C12.3127 8.42175 12.2913 8.39758 12.2744 8.3708C12.2663 8.36504 12.2584 8.35941 12.2503 8.35323C12.2239 8.33249 12.2025 8.30887 12.1853 8.28168C12.1772 8.27632 12.1692 8.27055 12.1611 8.2641C12.1352 8.24377 12.1138 8.2196 12.0965 8.19283C12.0885 8.18719 12.0805 8.18143 12.0724 8.17525C12.0461 8.15492 12.0246 8.13089 12.0077 8.10411C11.9996 8.09834 11.9917 8.09257 11.9837 8.08653C11.9086 8.0283 11.8711 7.94371 11.8711 7.83275C11.8711 7.74403 11.9045 7.64941 11.9711 7.54958C12.0377 7.44974 12.1322 7.35828 12.2541 7.27519C12.3759 7.1917 12.5259 7.12248 12.7034 7.067C12.881 7.01152 13.0834 6.98364 13.3111 6.98364C13.5774 6.98364 13.8132 7.0199 14.0184 7.09186C14.2234 7.16423 14.3971 7.2653 14.5384 7.39577C14.5674 7.42255 14.595 7.45056 14.621 7.47926C14.6233 7.48105 14.6252 7.4827 14.6276 7.48462C14.6565 7.5114 14.6837 7.53928 14.7102 7.56798C14.712 7.5699 14.7144 7.57182 14.7163 7.57333C14.7454 7.60052 14.7726 7.6284 14.7989 7.6571C14.8009 7.65903 14.8032 7.66067 14.8051 7.66246C14.8341 7.68924 14.8617 7.71725 14.8878 7.74596C14.89 7.74788 14.8919 7.74939 14.8943 7.75131C14.9234 7.77809 14.9506 7.80611 14.9769 7.83481C14.9789 7.83659 14.981 7.83852 14.983 7.84016C15.0121 7.86694 15.0393 7.89523 15.0656 7.92393C15.0676 7.92545 15.0699 7.92737 15.0718 7.92929C15.1008 7.95607 15.1284 7.98395 15.1545 8.01265C15.1567 8.01457 15.1586 8.01622 15.1605 8.01801C15.1901 8.04492 15.2171 8.0728 15.2436 8.1015C15.2455 8.10342 15.2477 8.10535 15.2497 8.10686C15.2788 8.13364 15.306 8.16193 15.3323 8.19063C15.3343 8.19214 15.3366 8.19406 15.3385 8.19598C15.3676 8.22276 15.3952 8.25078 15.4212 8.27948C15.4235 8.2814 15.4254 8.28291 15.4274 8.28484C15.4563 8.31161 15.4839 8.33963 15.5103 8.36819C15.5122 8.37012 15.5142 8.37177 15.5165 8.37369C15.5456 8.40047 15.5728 8.42876 15.5992 8.45705C15.6011 8.45897 15.6033 8.46089 15.6052 8.46281C15.6343 8.48959 15.6619 8.51747 15.6879 8.54631C15.6898 8.5481 15.6921 8.54974 15.6941 8.55167C15.723 8.57845 15.7506 8.60632 15.7766 8.63502C15.7789 8.63695 15.7809 8.63846 15.7832 8.64038C15.8123 8.66716 15.8394 8.69518 15.8659 8.72388C15.8678 8.7258 15.87 8.72772 15.8719 8.72923C15.901 8.75642 15.9282 8.7843 15.9546 8.813C15.9565 8.81493 15.9588 8.81644 15.9608 8.81836C15.9899 8.84514 16.0175 8.87315 16.0434 8.90186C16.0458 8.90364 16.0477 8.90529 16.0499 8.90721C16.079 8.93399 16.1062 8.96187 16.1326 8.99057C16.1345 8.99249 16.1368 8.99442 16.1387 8.99593C16.1677 9.02312 16.1949 9.05099 16.2213 9.0797C16.2232 9.08121 16.2255 9.08327 16.2274 9.08505C16.2566 9.11197 16.284 9.13985 16.3101 9.16855C16.3125 9.17047 16.3142 9.17198 16.3163 9.1739C16.3457 9.20068 16.3729 9.2287 16.3992 9.2574C16.4012 9.25932 16.4035 9.26111 16.4054 9.26276C16.4345 9.28954 16.4617 9.31783 16.4881 9.34653C16.49 9.34804 16.4924 9.34996 16.4943 9.35188C16.5233 9.37866 16.5509 9.40668 16.5769 9.43538C16.5791 9.4373 16.5811 9.43881 16.583 9.44073C16.6121 9.46751 16.6396 9.49539 16.6661 9.52409C16.668 9.52602 16.6698 9.52766 16.6721 9.52945C16.7012 9.55623 16.7284 9.58424 16.7548 9.61295C16.7567 9.61487 16.759 9.61679 16.761 9.61871C16.7899 9.64549 16.8176 9.67337 16.8435 9.70207C16.8454 9.70399 16.8478 9.70564 16.8497 9.70743C16.8788 9.73434 16.9064 9.76222 16.9324 9.79092C16.9347 9.79285 16.9366 9.79436 16.9388 9.79628C16.9679 9.82306 16.9951 9.85107 17.0215 9.87978C17.0234 9.8817 17.0257 9.88348 17.0277 9.88513C17.0568 9.91232 17.0838 9.9402 17.1103 9.9689C17.1123 9.97082 17.1145 9.97234 17.1164 9.97426C17.1455 10.001 17.1731 10.0289 17.1991 10.0576C17.2014 10.0595 17.2033 10.0612 17.2055 10.0631C17.2346 10.0899 17.2618 10.1178 17.2882 10.1465C17.2901 10.1484 17.2924 10.1503 17.2944 10.1518C17.3233 10.1786 17.3505 10.2069 17.377 10.2357C17.3788 10.2372 17.3811 10.2392 17.3831 10.2411C17.4122 10.2679 17.4398 10.2957 17.4657 10.3244C17.4681 10.3264 17.47 10.3279 17.4719 10.3298C17.5014 10.3566 17.5285 10.3846 17.555 10.4133C17.5569 10.4152 17.5591 10.4167 17.561 10.4187C17.5902 10.4454 17.6174 10.4737 17.6437 10.5024C17.6456 10.5039 17.648 10.5059 17.6498 10.5078C17.6789 10.5346 17.7065 10.5626 17.7324 10.5913C17.7348 10.5932 17.7367 10.5947 17.7386 10.5966C17.7677 10.6234 17.7952 10.6513 17.8217 10.68C17.8235 10.6819 17.8254 10.6836 17.8277 10.6855C17.8569 10.7123 17.884 10.7401 17.9104 10.7688C17.9123 10.7708 17.9147 10.7727 17.9166 10.7746C17.9463 10.801 17.9734 10.8286 17.9994 10.8573Z" fill="url(#paint3_linear_5044_35461)"/>
<path d="M14.9753 8.41539C14.9753 8.6483 14.9349 8.85512 14.8546 9.03529C14.7741 9.21574 14.677 9.37656 14.5633 9.51801C14.4496 9.65945 14.3345 9.78017 14.2179 9.88C14.1015 9.97998 14.0099 10.0661 13.9434 10.138C13.8545 10.2213 13.7852 10.3031 13.7353 10.3836C13.6853 10.4641 13.6492 10.55 13.6271 10.6415C13.6049 10.7331 13.591 10.8329 13.5855 10.9411C13.5799 11.0494 13.5771 11.1699 13.5771 11.3031C13.5771 11.3698 13.5521 11.4295 13.5023 11.4821C13.4523 11.535 13.3607 11.5612 13.2276 11.5612C13.1167 11.5612 13.0348 11.5334 12.9821 11.478C12.9294 11.4226 12.9031 11.3228 12.9031 11.1783C12.9031 10.9731 12.9156 10.7956 12.9405 10.6458C12.9655 10.4959 12.9988 10.3683 13.0405 10.2629C13.0821 10.1575 13.1305 10.0687 13.186 9.9966C13.2415 9.92464 13.297 9.86339 13.3525 9.81354C13.4357 9.74144 13.5285 9.66371 13.6312 9.58049C13.7338 9.49727 13.8311 9.40443 13.9225 9.30171C14.0141 9.19899 14.0903 9.08253 14.1514 8.95221C14.2124 8.82188 14.243 8.67068 14.243 8.49861C14.243 8.23233 14.1583 8.02565 13.9891 7.87857C13.8198 7.73163 13.5855 7.65802 13.2859 7.65802C13.0862 7.65802 12.9335 7.68452 12.8281 7.73712C12.7227 7.78986 12.6368 7.84946 12.5702 7.91606C12.5036 7.98267 12.4466 8.0424 12.3995 8.095C12.3524 8.14774 12.2899 8.1741 12.2124 8.1741C12.1346 8.1741 12.0584 8.14499 11.9834 8.08662C11.9086 8.0284 11.8711 7.94394 11.8711 7.83284C11.8711 7.74413 11.9043 7.64978 11.9709 7.54994C12.0375 7.44997 12.1319 7.35851 12.254 7.27528C12.3759 7.19206 12.5257 7.12271 12.7033 7.06723C12.8809 7.01175 13.0833 6.98401 13.3109 6.98401C13.5771 6.98401 13.8129 7.02013 14.0182 7.09209C14.2234 7.16432 14.397 7.26553 14.5384 7.39586C14.6799 7.52632 14.7881 7.67876 14.8629 7.85358C14.9378 8.0284 14.9753 8.21558 14.9753 8.41539ZM13.2359 12.1771C13.3691 12.1771 13.4842 12.2256 13.5813 12.3227C13.6782 12.4198 13.727 12.5377 13.727 12.6763C13.727 12.8095 13.6797 12.926 13.5854 13.0259C13.491 13.1258 13.3744 13.1756 13.2359 13.1756C13.0915 13.1756 12.9737 13.1258 12.8821 13.0259C12.7906 12.926 12.7449 12.8095 12.7449 12.6763C12.7449 12.5377 12.792 12.4198 12.8864 12.3227C12.9807 12.2256 13.0972 12.1771 13.2359 12.1771Z" fill="white"/>
<path d="M17.364 8.79987C17.364 6.62498 15.6001 4.86182 13.4242 4.86182C11.2482 4.86182 9.48438 6.62498 9.48438 8.79987C9.48438 10.9747 11.2482 12.7379 13.4242 12.7379C15.6001 12.7379 17.364 10.9747 17.364 8.79987Z" fill="url(#paint4_linear_5044_35461)"/>
<path d="M7.23147 1.34375H4.04983C1.81316 1.34375 0 3.15691 0 5.39358V6.81439C0 8.60983 1.1684 10.1321 2.78627 10.663C2.71637 11.0379 2.56009 11.3825 2.33885 11.675C2.04277 12.0665 2.32375 12.6347 2.81442 12.6374H2.82761C3.93997 12.6374 4.87642 11.8866 5.15945 10.8644H7.23147C9.46815 10.8644 11.2813 9.05107 11.2813 6.81439V5.39358C11.2813 3.15691 9.46815 1.34375 7.23147 1.34375Z" fill="url(#paint5_linear_5044_35461)"/>
<path d="M1.55859 5.07703H10.285V5.57429H1.55859V5.07703Z" fill="white"/>
<path d="M1.55859 6.97607H8.45389V7.47348H1.55859V6.97607Z" fill="white"/>
<path d="M8.14529 5.57426C8.14529 3.39938 6.3813 1.63635 4.20546 1.63635C2.02948 1.63635 0.265625 3.39938 0.265625 5.57426C0.265625 7.74915 2.02948 9.51231 4.20546 9.51231C6.3813 9.51231 8.14529 7.74915 8.14529 5.57426Z" fill="url(#paint6_linear_5044_35461)"/>
<defs>
<linearGradient id="paint0_linear_5044_35461" x1="8.61126" y1="7.1987" x2="14.9905" y2="13.5779" gradientUnits="userSpaceOnUse">
<stop stop-color="#FF4C54"/>
<stop offset="1" stop-color="#BE3F45"/>
</linearGradient>
<linearGradient id="paint1_linear_5044_35461" x1="11.264" y1="11.281" x2="1.91215" y2="1.92914" gradientUnits="userSpaceOnUse">
<stop stop-color="#972E07" stop-opacity="0"/>
<stop offset="1" stop-color="#582707"/>
</linearGradient>
<linearGradient id="paint2_linear_5044_35461" x1="16.522" y1="14.4374" x2="9.22558" y2="12.0903" gradientUnits="userSpaceOnUse">
<stop stop-color="#972E07" stop-opacity="0"/>
<stop offset="1" stop-color="#582707"/>
</linearGradient>
<linearGradient id="paint3_linear_5044_35461" x1="17.4326" y1="11.6064" x2="10.1362" y2="9.25928" gradientUnits="userSpaceOnUse">
<stop stop-color="#972E07" stop-opacity="0"/>
<stop offset="1" stop-color="#582707"/>
</linearGradient>
<linearGradient id="paint4_linear_5044_35461" x1="13.5884" y1="7.20095" x2="14.1625" y2="1.61387" gradientUnits="userSpaceOnUse">
<stop offset="0.0013" stop-color="#E7EEED" stop-opacity="0"/>
<stop offset="0.7731" stop-color="#F9FBFA" stop-opacity="0.772549"/>
<stop offset="1" stop-color="white"/>
</linearGradient>
<linearGradient id="paint5_linear_5044_35461" x1="3.44394" y1="3.68744" x2="9.45037" y2="11.785" gradientUnits="userSpaceOnUse">
<stop stop-color="#C6E56F"/>
<stop offset="0.1452" stop-color="#C1E46E"/>
<stop offset="0.3131" stop-color="#B3E16D"/>
<stop offset="0.4923" stop-color="#9CDD6A"/>
<stop offset="0.6794" stop-color="#7CD767"/>
<stop offset="0.8707" stop-color="#52CF62"/>
<stop offset="1" stop-color="#32C95F"/>
</linearGradient>
<linearGradient id="paint6_linear_5044_35461" x1="5.25111" y1="6.65731" x2="-0.321473" y2="0.885707" gradientUnits="userSpaceOnUse">
<stop offset="0.0013" stop-color="#E7EEED" stop-opacity="0"/>
<stop offset="0.7731" stop-color="#F9FBFA" stop-opacity="0.772549"/>
<stop offset="1" stop-color="white"/>
</linearGradient>
</defs>
</svg>
