<svg width="18" height="19" viewBox="0 0 18 19" fill="none" xmlns="http://www.w3.org/2000/svg">
<g clip-path="url(#clip0_5044_49667)">
<g clip-path="url(#clip1_5044_49667)">
<path d="M13.7379 14.6715C13.6106 14.2182 13.1401 13.9538 12.6866 14.0812L12.3436 14.1775L11.6473 15.1654C11.0964 15.947 10.1939 16.4029 9.2551 16.4029C9.21829 16.4029 9.18141 16.4019 9.14453 16.4005C9.38451 16.441 9.62874 16.4615 9.87536 16.4615C10.2993 16.4615 10.7302 16.4016 11.1576 16.2816L13.1476 15.7228C13.6009 15.5955 13.8652 15.1249 13.7379 14.6715Z" fill="url(#paint0_linear_5044_49667)"/>
<path d="M13.7379 14.6715C13.6106 14.2182 13.1401 13.9538 12.6866 14.0812L12.3436 14.1775L11.6473 15.1654C11.0964 15.947 10.1939 16.4029 9.2551 16.4029C9.21829 16.4029 9.18141 16.4019 9.14453 16.4005C9.38451 16.441 9.62874 16.4615 9.87536 16.4615C10.2993 16.4615 10.7302 16.4016 11.1576 16.2816L13.1476 15.7228C13.6009 15.5955 13.8652 15.1249 13.7379 14.6715Z" fill="url(#paint1_linear_5044_49667)"/>
<path d="M9.32486 16.7915C9.15888 16.7898 8.99214 16.7739 8.82599 16.7431C8.36302 16.6571 8.0574 16.2121 8.14339 15.7492C8.22935 15.2863 8.67443 14.9805 9.13726 15.0666C9.59791 15.1521 10.0719 14.9617 10.3455 14.5817L11.4797 13.0062C11.7549 12.6241 12.2876 12.5374 12.6698 12.8125C13.0519 13.0876 13.1386 13.6203 12.8635 14.0025L11.7293 15.578C11.1706 16.354 10.2636 16.8009 9.32486 16.7915Z" fill="url(#paint2_linear_5044_49667)"/>
<path d="M11.538 13.1517L10.9586 13.7311L10.3462 14.5817C10.1721 14.8235 9.91683 14.9881 9.63558 15.0541L8.28906 16.4006C8.41281 16.5737 8.60097 16.7011 8.82671 16.7431C8.99286 16.7739 9.15964 16.7898 9.32557 16.7915C10.2643 16.8009 11.1713 16.354 11.73 15.578L12.6652 14.2789L11.538 13.1517Z" fill="url(#paint3_linear_5044_49667)"/>
<path d="M11.538 13.1517L10.9586 13.7311L10.3462 14.5817C10.1721 14.8235 9.91683 14.9881 9.63558 15.0541L8.28906 16.4006C8.41281 16.5737 8.60097 16.7011 8.82671 16.7431C8.99286 16.7739 9.15964 16.7898 9.32557 16.7915C10.2643 16.8009 11.1713 16.354 11.73 15.578L12.6652 14.2789L11.538 13.1517Z" fill="url(#paint4_linear_5044_49667)"/>
<path d="M7.75465 17.0921C7.73419 17.0896 7.71387 17.0868 7.69341 17.0839L6.12066 16.8552C5.6547 16.7875 5.33186 16.3549 5.39961 15.8889C5.46644 15.4291 5.88866 15.1087 6.34749 15.1654C6.35364 15.1662 6.35976 15.167 6.36595 15.1679L7.9387 15.3965C8.401 15.4636 8.86847 15.2551 9.12701 14.8646L10.1985 13.2459C10.4584 12.8532 10.9874 12.7456 11.3801 13.0055C11.7727 13.2654 11.8803 13.7944 11.6204 14.1871L10.5489 15.8058C9.93916 16.7268 8.8478 17.2272 7.75465 17.0921Z" fill="url(#paint5_linear_5044_49667)"/>
<path d="M10.2673 13.5773L9.41107 14.4335L9.12571 14.8646C8.97471 15.0926 8.75217 15.2581 8.50126 15.3433L6.87891 16.9657L7.69211 17.0839C7.71257 17.0868 7.73289 17.0896 7.75335 17.0921C8.8465 17.2272 9.93782 16.7268 10.5476 15.8058L11.3236 14.6335L10.2673 13.5773Z" fill="url(#paint6_linear_5044_49667)"/>
<path d="M10.2673 13.5773L9.41107 14.4335L9.12571 14.8646C8.97471 15.0926 8.75217 15.2581 8.50126 15.3433L6.87891 16.9657L7.69211 17.0839C7.71257 17.0868 7.73289 17.0896 7.75335 17.0921C8.8465 17.2272 9.93782 16.7268 10.5476 15.8058L11.3236 14.6335L10.2673 13.5773Z" fill="url(#paint7_linear_5044_49667)"/>
<path d="M10.1481 13.4589C9.78471 13.1599 9.24739 13.2122 8.94803 13.576L8.43271 14.2023C8.04961 14.0011 7.70709 13.7279 7.41002 13.3846L7.31225 13.2721C7.79765 12.9754 8.26639 12.6529 8.71614 12.3047C9.14582 11.972 9.21367 11.3487 8.86847 10.9292C8.82868 10.8807 8.78512 10.8375 8.73889 10.7992C8.41717 10.5321 7.95037 10.4995 7.58924 10.7382C6.87307 11.2123 6.06409 11.5339 5.21377 11.6798C5.06977 11.7048 4.92313 11.7143 4.77723 11.7124C4.27745 11.7067 3.00617 11.6999 2.59161 11.7764C2.58781 11.7772 2.53251 11.7878 2.50899 11.7931C2.002 11.9034 1.55031 12.1906 1.21914 12.5903L0.625 13.3061V17.5456H1.27595C1.99862 17.5456 2.7136 17.3974 3.37675 17.1102C3.6632 16.976 3.98418 16.9196 4.30814 16.9529C4.30814 16.9529 6.53318 17.2227 6.77 17.2227C7.63203 17.2227 8.47096 16.84 9.03177 16.1583L10.2648 14.6589C10.5641 14.2956 10.5119 13.7582 10.1481 13.4589Z" fill="url(#paint8_linear_5044_49667)"/>
<path d="M5.24404 11.6742C5.23391 11.676 5.22389 11.6781 5.21377 11.6798C5.06977 11.7048 4.92313 11.7143 4.77723 11.7124C4.27745 11.7067 3.00617 11.6999 2.59161 11.7764C2.58781 11.7772 2.53251 11.7877 2.50899 11.7931C2.002 11.9033 1.55031 12.1905 1.21914 12.5903L0.625 13.3061V17.5455H1.27595C1.99862 17.5455 2.7136 17.3973 3.37675 17.1101C3.6632 16.976 3.98418 16.9195 4.30814 16.9529C4.30814 16.9529 4.74036 17.0053 5.24404 17.0639V11.6742Z" fill="url(#paint9_linear_5044_49667)"/>
<path d="M8.71596 12.3047C8.26617 12.6529 7.79747 12.9754 7.31206 13.2721L7.40983 13.3846C7.7069 13.7279 8.04947 14.0011 8.43253 14.2023L7.71446 15.075C7.65308 15.1496 7.58375 15.2156 7.50834 15.2724C6.89163 13.7257 5.64907 12.5372 2.19131 12.8613C1.75105 12.9026 1.31676 12.9011 0.898438 12.9765L1.21899 12.5903C1.55016 12.1906 2.00185 11.9033 2.50884 11.7931C2.53232 11.7878 2.58766 11.7772 2.59146 11.7764C3.00598 11.6999 4.27727 11.7067 4.77709 11.7124C4.92298 11.7143 5.06962 11.7048 5.21362 11.6798C6.06391 11.5339 6.87293 11.2122 7.58909 10.7382C7.95022 10.4995 8.41702 10.5321 8.73874 10.7992C8.78497 10.8375 8.82853 10.8807 8.86832 10.9292C9.21345 11.3487 9.14564 11.972 8.71596 12.3047Z" fill="url(#paint10_linear_5044_49667)"/>
<path d="M6.77203 17.2227C6.53511 17.2227 6.29651 17.1938 6.06135 17.1342L4.13183 16.6457C3.67536 16.5302 3.399 16.0665 3.51456 15.61C3.63015 15.1535 4.09393 14.8772 4.5503 14.9927L6.47981 15.4812C6.93379 15.5962 7.41929 15.4368 7.71675 15.0751L8.95003 13.5759C9.24918 13.2122 9.7865 13.16 10.1501 13.459C10.5137 13.7581 10.566 14.2954 10.2669 14.6591L9.03363 16.1583C8.47293 16.84 7.6341 17.2227 6.77203 17.2227Z" fill="url(#paint11_linear_5044_49667)"/>
<path d="M8.73945 10.7995C8.41763 10.5323 7.95065 10.4998 7.58956 10.7384C6.8735 11.2125 6.06455 11.534 5.21437 11.6798C5.07023 11.7049 4.92373 11.7143 4.77755 11.7127C4.5676 11.7101 4.22113 11.7075 3.85938 11.711V15.1151C4.05411 14.9824 4.30252 14.9304 4.54882 14.9928L6.47834 15.4813C6.93231 15.5962 7.41782 15.4368 7.71528 15.0751L8.4332 14.2024C8.05021 14.0011 7.7074 13.7278 7.41037 13.3849L7.3126 13.272C7.79789 12.9755 8.26688 12.6529 8.7166 12.3047C9.14638 11.9721 9.21409 11.3486 8.86879 10.9292C8.82931 10.8809 8.78572 10.8377 8.73945 10.7995Z" fill="url(#paint12_linear_5044_49667)"/>
<path d="M8.71674 12.3047C8.26695 12.6529 7.79825 12.9754 7.31284 13.2721L4.28452 14.9681L4.28413 14.9685C4.13068 14.9779 3.98404 15.0303 3.85938 15.1151V11.7109C4.22124 11.7075 4.56795 11.7101 4.77787 11.7124C4.92377 11.7143 5.0704 11.7048 5.2144 11.6798C6.06469 11.5339 6.87371 11.2122 7.58988 10.7382C7.951 10.4995 8.4178 10.5321 8.73952 10.7992C8.78575 10.8375 8.82931 10.8807 8.86911 10.9292C9.21423 11.3487 9.14642 11.972 8.71674 12.3047Z" fill="url(#paint13_linear_5044_49667)"/>
<path d="M8.71674 12.3047C8.26695 12.6529 7.79825 12.9754 7.31284 13.2721L4.28452 14.9681L4.28413 14.9685C4.13068 14.9779 3.98404 15.0303 3.85938 15.1151V11.7109C4.22124 11.7075 4.56795 11.7101 4.77787 11.7124C4.92377 11.7143 5.0704 11.7048 5.2144 11.6798C6.06469 11.5339 6.87371 11.2122 7.58988 10.7382C7.951 10.4995 8.4178 10.5321 8.73952 10.7992C8.78575 10.8375 8.82931 10.8807 8.86911 10.9292C9.21423 11.3487 9.14642 11.972 8.71674 12.3047Z" fill="url(#paint14_linear_5044_49667)"/>
<path d="M2.55681 17.9723H0.558809C0.250172 17.9723 0 17.7221 0 17.4135V11.1362C0 10.8276 0.250172 10.5774 0.558809 10.5774H2.55681C2.86541 10.5774 3.11562 10.8276 3.11562 11.1362V17.4135C3.11558 17.7221 2.86541 17.9723 2.55681 17.9723Z" fill="url(#paint15_linear_5044_49667)"/>
<path d="M3.11558 17.4135V13.1595H0V17.4135C0 17.7222 0.250172 17.9723 0.558809 17.9723H2.55681C2.86541 17.9723 3.11558 17.7221 3.11558 17.4135Z" fill="url(#paint16_linear_5044_49667)"/>
<path d="M12.3293 11.6816L14.7783 12.4483C15.4332 12.6533 16.1004 12.1686 16.1078 11.4824L16.1354 8.91625C16.1376 8.7076 16.2036 8.50461 16.3244 8.33449L17.8104 6.24223C18.2078 5.68276 17.9529 4.89842 17.3026 4.67936L14.8706 3.86015C14.6729 3.79353 14.5002 3.66809 14.3758 3.50061L12.8451 1.4408C12.4358 0.890012 11.6111 0.890012 11.2018 1.4408L9.67111 3.50061C9.54666 3.66809 9.37401 3.79353 9.17625 3.86015L6.74425 4.67936C6.09393 4.89842 5.83908 5.68276 6.23645 6.24223L7.72244 8.33449C7.84327 8.50461 7.90922 8.7076 7.91147 8.91625L7.93907 11.4824C7.94645 12.1686 8.61365 12.6533 9.26854 12.4483L11.7176 11.6816C11.9167 11.6192 12.1301 11.6192 12.3293 11.6816Z" fill="url(#paint17_linear_5044_49667)"/>
<path d="M6.14901 5.20496C5.99528 5.52505 6.00786 5.9207 6.23624 6.24224L7.72222 8.3345C7.84305 8.50462 7.90901 8.70761 7.91126 8.91623L7.93885 11.4824C7.94624 12.1685 8.61343 12.6533 9.26832 12.4483L11.7174 11.6815C11.9165 11.6192 12.1299 11.6192 12.3291 11.6815L14.7781 12.4483C15.433 12.6533 16.1002 12.1686 16.1076 11.4824L16.1352 8.91623C16.1363 8.81571 16.1525 8.71664 16.1822 8.62179L6.14901 5.20496Z" fill="url(#paint18_linear_5044_49667)"/>
<path d="M17.8964 5.20496C18.0502 5.52505 18.0376 5.9207 17.8092 6.24224L16.3232 8.3345C16.2024 8.50462 16.1364 8.70761 16.1342 8.91623L16.1066 11.4824C16.0992 12.1685 15.432 12.6533 14.7771 12.4483L12.3281 11.6815C12.1289 11.6192 11.9155 11.6192 11.7164 11.6815L9.26732 12.4483C8.61243 12.6533 7.94523 12.1686 7.93785 11.4824L7.91025 8.91623C7.90916 8.81571 7.89295 8.71664 7.86328 8.62179L17.8964 5.20496Z" fill="url(#paint19_linear_5044_49667)"/>
<path d="M17.3026 4.67942L14.8706 3.86018C14.6728 3.79356 14.5002 3.66812 14.3757 3.50064L12.8451 1.44083C12.6404 1.16542 12.3319 1.02771 12.0234 1.02771V11.6348C12.1266 11.6348 12.2297 11.6504 12.3293 11.6816L14.7784 12.4483C15.4332 12.6534 16.1004 12.1686 16.1078 11.4824L16.1354 8.91628C16.1377 8.70763 16.2036 8.50467 16.3245 8.33455L17.8104 6.2423C18.2078 5.68282 17.953 4.89848 17.3026 4.67942Z" fill="url(#paint20_linear_5044_49667)"/>
<path d="M17.3026 4.67942L14.8706 3.86018C14.6728 3.79356 14.5002 3.66812 14.3757 3.50064L12.8451 1.44083C12.6404 1.16542 12.3319 1.02771 12.0234 1.02771V11.6348C12.1266 11.6348 12.2297 11.6504 12.3293 11.6816L14.7784 12.4483C15.4332 12.6534 16.1004 12.1686 16.1078 11.4824L16.1354 8.91628C16.1377 8.70763 16.2036 8.50467 16.3245 8.33455L17.8104 6.2423C18.2078 5.68282 17.953 4.89848 17.3026 4.67942Z" fill="url(#paint21_linear_5044_49667)"/>
<path d="M7.86719 8.63782C7.89373 8.72782 7.9086 8.82137 7.90962 8.91625L7.93722 11.4824C7.9446 12.1686 8.6118 12.6533 9.26669 12.4483L11.7157 11.6816C11.9149 11.6192 12.1283 11.6192 12.3274 11.6816L14.7765 12.4483C15.4314 12.6533 16.0986 12.1686 16.1059 11.4824L16.1335 8.91625C16.1346 8.82137 16.1494 8.72782 16.176 8.63782H7.86719Z" fill="url(#paint22_linear_5044_49667)"/>
<path d="M12.2001 9.59207L13.6091 10.0332C13.9858 10.1511 14.3696 9.87227 14.3739 9.4775L14.3898 8.00122C14.3911 7.8812 14.429 7.76441 14.4985 7.66653L15.3534 6.46289C15.582 6.14103 15.4354 5.6898 15.0613 5.56377L13.6621 5.09246C13.5484 5.05414 13.4491 4.98196 13.3775 4.88564L12.4969 3.70066C12.2614 3.3838 11.787 3.3838 11.5515 3.70066L10.6709 4.88564C10.5993 4.982 10.5 5.05414 10.3863 5.09246L8.98714 5.56377C8.61301 5.6898 8.4664 6.141 8.69499 6.46289L9.54988 7.66653C9.61939 7.76441 9.65732 7.88116 9.65862 8.00122L9.67451 9.4775C9.67877 9.87227 10.0626 10.1511 10.4393 10.0332L11.8483 9.59207C11.9628 9.55618 12.0856 9.55618 12.2001 9.59207Z" fill="url(#paint23_linear_5044_49667)"/>
</g>
</g>
<defs>
<linearGradient id="paint0_linear_5044_49667" x1="11.219" y1="14.8269" x2="11.6511" y2="16.2045" gradientUnits="userSpaceOnUse">
<stop stop-color="#FFDFCF"/>
<stop offset="1" stop-color="#FFA78F"/>
</linearGradient>
<linearGradient id="paint1_linear_5044_49667" x1="12.7103" y1="15.984" x2="11.6028" y2="15.4528" gradientUnits="userSpaceOnUse">
<stop stop-color="#F89580" stop-opacity="0"/>
<stop offset="0.2859" stop-color="#EE8E79" stop-opacity="0.287"/>
<stop offset="0.7624" stop-color="#D57B65" stop-opacity="0.765"/>
<stop offset="0.9972" stop-color="#C5715A"/>
</linearGradient>
<linearGradient id="paint2_linear_5044_49667" x1="10.4158" y1="14.5356" x2="11.4827" y2="15.6566" gradientUnits="userSpaceOnUse">
<stop stop-color="#FFDFCF"/>
<stop offset="1" stop-color="#FFA78F"/>
</linearGradient>
<linearGradient id="paint3_linear_5044_49667" x1="11.8698" y1="16.0714" x2="10.1072" y2="14.9369" gradientUnits="userSpaceOnUse">
<stop stop-color="#F89580" stop-opacity="0"/>
<stop offset="0.2859" stop-color="#EE8E79" stop-opacity="0.287"/>
<stop offset="0.7624" stop-color="#D57B65" stop-opacity="0.765"/>
<stop offset="0.9972" stop-color="#C5715A"/>
</linearGradient>
<linearGradient id="paint4_linear_5044_49667" x1="10.4332" y1="15.1767" x2="10.8114" y2="16.5814" gradientUnits="userSpaceOnUse">
<stop stop-color="#F89580" stop-opacity="0"/>
<stop offset="0.2859" stop-color="#EE8E79" stop-opacity="0.287"/>
<stop offset="0.7624" stop-color="#D57B65" stop-opacity="0.765"/>
<stop offset="0.9972" stop-color="#C5715A"/>
</linearGradient>
<linearGradient id="paint5_linear_5044_49667" x1="8.61714" y1="14.9046" x2="9.98124" y2="16.2687" gradientUnits="userSpaceOnUse">
<stop stop-color="#FFDFCF"/>
<stop offset="1" stop-color="#FFA78F"/>
</linearGradient>
<linearGradient id="paint6_linear_5044_49667" x1="9.90533" y1="16.3335" x2="8.61773" y2="15.307" gradientUnits="userSpaceOnUse">
<stop stop-color="#F89580" stop-opacity="0"/>
<stop offset="0.2859" stop-color="#EE8E79" stop-opacity="0.287"/>
<stop offset="0.7624" stop-color="#D57B65" stop-opacity="0.765"/>
<stop offset="0.9972" stop-color="#C5715A"/>
</linearGradient>
<linearGradient id="paint7_linear_5044_49667" x1="9.06411" y1="15.5413" x2="9.28022" y2="17.045" gradientUnits="userSpaceOnUse">
<stop stop-color="#F89580" stop-opacity="0"/>
<stop offset="0.2859" stop-color="#EE8E79" stop-opacity="0.287"/>
<stop offset="0.7624" stop-color="#D57B65" stop-opacity="0.765"/>
<stop offset="0.9972" stop-color="#C5715A"/>
</linearGradient>
<linearGradient id="paint8_linear_5044_49667" x1="4.58423" y1="12.9188" x2="6.25896" y2="17.889" gradientUnits="userSpaceOnUse">
<stop stop-color="#FFDFCF"/>
<stop offset="1" stop-color="#FFA78F"/>
</linearGradient>
<linearGradient id="paint9_linear_5044_49667" x1="4.00148" y1="14.6098" x2="2.21846" y2="14.6098" gradientUnits="userSpaceOnUse">
<stop stop-color="#F89580" stop-opacity="0"/>
<stop offset="0.2859" stop-color="#EE8E79" stop-opacity="0.287"/>
<stop offset="0.7624" stop-color="#D57B65" stop-opacity="0.765"/>
<stop offset="0.9972" stop-color="#C5715A"/>
</linearGradient>
<linearGradient id="paint10_linear_5044_49667" x1="5.00898" y1="12.5704" x2="4.19859" y2="14.9744" gradientUnits="userSpaceOnUse">
<stop stop-color="#F89580" stop-opacity="0"/>
<stop offset="0.2859" stop-color="#EE8E79" stop-opacity="0.287"/>
<stop offset="0.7624" stop-color="#D57B65" stop-opacity="0.765"/>
<stop offset="0.9972" stop-color="#C5715A"/>
</linearGradient>
<linearGradient id="paint11_linear_5044_49667" x1="7.61364" y1="15.5972" x2="8.74816" y2="16.7137" gradientUnits="userSpaceOnUse">
<stop stop-color="#F89580" stop-opacity="0"/>
<stop offset="0.2859" stop-color="#EE8E79" stop-opacity="0.287"/>
<stop offset="0.7624" stop-color="#D57B65" stop-opacity="0.765"/>
<stop offset="0.9972" stop-color="#C5715A"/>
</linearGradient>
<linearGradient id="paint12_linear_5044_49667" x1="6.56001" y1="13.1267" x2="8.96406" y2="14.7204" gradientUnits="userSpaceOnUse">
<stop stop-color="#F89580" stop-opacity="0"/>
<stop offset="0.2859" stop-color="#EE8E79" stop-opacity="0.287"/>
<stop offset="0.7624" stop-color="#D57B65" stop-opacity="0.765"/>
<stop offset="0.9972" stop-color="#C5715A"/>
</linearGradient>
<linearGradient id="paint13_linear_5044_49667" x1="6.86566" y1="13.2858" x2="8.32429" y2="14.1501" gradientUnits="userSpaceOnUse">
<stop stop-color="#F89580" stop-opacity="0"/>
<stop offset="0.2859" stop-color="#EE8E79" stop-opacity="0.287"/>
<stop offset="0.7624" stop-color="#D57B65" stop-opacity="0.765"/>
<stop offset="0.9972" stop-color="#C5715A"/>
</linearGradient>
<linearGradient id="paint14_linear_5044_49667" x1="6.71849" y1="12.2531" x2="8.30573" y2="11.6015" gradientUnits="userSpaceOnUse">
<stop stop-color="#F89580" stop-opacity="0"/>
<stop offset="0.2859" stop-color="#EE8E79" stop-opacity="0.287"/>
<stop offset="0.7624" stop-color="#D57B65" stop-opacity="0.765"/>
<stop offset="0.9972" stop-color="#C5715A"/>
</linearGradient>
<linearGradient id="paint15_linear_5044_49667" x1="0.425004" y1="14.2749" x2="2.9468" y2="14.2749" gradientUnits="userSpaceOnUse">
<stop stop-color="#B3DAFE"/>
<stop offset="1" stop-color="#0182FC"/>
</linearGradient>
<linearGradient id="paint16_linear_5044_49667" x1="1.55781" y1="16.2191" x2="1.55781" y2="18.1047" gradientUnits="userSpaceOnUse">
<stop stop-color="#314DC9" stop-opacity="0"/>
<stop offset="0.2761" stop-color="#304BC4" stop-opacity="0.276"/>
<stop offset="0.5628" stop-color="#2B45B8" stop-opacity="0.563"/>
<stop offset="0.8535" stop-color="#243BA3" stop-opacity="0.854"/>
<stop offset="1" stop-color="#1F3596"/>
</linearGradient>
<linearGradient id="paint17_linear_5044_49667" x1="10.1243" y1="5.7151" x2="16.5699" y2="12.1607" gradientUnits="userSpaceOnUse">
<stop stop-color="#FEF0AE"/>
<stop offset="1" stop-color="#FAC600"/>
</linearGradient>
<linearGradient id="paint18_linear_5044_49667" x1="11.2147" y1="8.23919" x2="12.156" y2="6.02709" gradientUnits="userSpaceOnUse">
<stop stop-color="#FE9738" stop-opacity="0"/>
<stop offset="1" stop-color="#FE9738"/>
</linearGradient>
<linearGradient id="paint19_linear_5044_49667" x1="12.7528" y1="7.88977" x2="12.2241" y2="6.23735" gradientUnits="userSpaceOnUse">
<stop stop-color="#FE9738" stop-opacity="0"/>
<stop offset="1" stop-color="#FE9738"/>
</linearGradient>
<linearGradient id="paint20_linear_5044_49667" x1="12.9224" y1="6.78289" x2="10.9175" y2="6.84899" gradientUnits="userSpaceOnUse">
<stop stop-color="#FE9738" stop-opacity="0"/>
<stop offset="1" stop-color="#FE9738"/>
</linearGradient>
<linearGradient id="paint21_linear_5044_49667" x1="15.854" y1="7.54072" x2="17.313" y2="8.01136" gradientUnits="userSpaceOnUse">
<stop stop-color="#FE9738" stop-opacity="0"/>
<stop offset="1" stop-color="#FE9738"/>
</linearGradient>
<linearGradient id="paint22_linear_5044_49667" x1="12.0216" y1="10.497" x2="12.0216" y2="12.3507" gradientUnits="userSpaceOnUse">
<stop stop-color="#FE9738" stop-opacity="0"/>
<stop offset="1" stop-color="#FE9738"/>
</linearGradient>
<linearGradient id="paint23_linear_5044_49667" x1="14.2244" y1="9.45229" x2="8.61413" y2="3.84206" gradientUnits="userSpaceOnUse">
<stop stop-color="#FEF0AE"/>
<stop offset="1" stop-color="#FAC600"/>
</linearGradient>
<clipPath id="clip0_5044_49667">
<rect width="18" height="18" fill="white" transform="translate(0 0.5)"/>
</clipPath>
<clipPath id="clip1_5044_49667">
<rect width="18" height="18" fill="white" transform="translate(0 0.5)"/>
</clipPath>
</defs>
</svg>
