<svg width="18" height="19" viewBox="0 0 18 19" fill="none" xmlns="http://www.w3.org/2000/svg">
<g clip-path="url(#clip0_5044_59727)">
<g clip-path="url(#clip1_5044_59727)">
<path d="M8.49563 9.41134C9.04012 7.50306 8.57722 5.67944 7.36101 4.28563C6.93131 3.79316 6.69545 3.26666 6.66258 2.75352L6.61398 1.99457H5.06112H3.50827L3.45963 2.75352C3.42676 3.26666 3.1909 3.79316 2.7612 4.28563C1.54503 5.67947 1.08209 7.50306 1.62658 9.41134L2.26726 11.6568C2.78282 13.4636 2.43713 15.6505 1.1579 17.7624C0.95558 18.0964 1.15862 18.5 1.53591 18.5H5.06108H8.58629C8.96359 18.5 9.16667 18.0965 8.9643 17.7624C7.68507 15.6505 7.33939 13.4636 7.85494 11.6568L8.49563 9.41134Z" fill="url(#paint0_linear_5044_59727)"/>
<path d="M7.8213 15.0065C7.70722 14.5121 7.64348 14.0246 7.62972 13.5502L7.22407 10.4669H4.70312V18.5H8.58719C8.64662 18.5 8.70215 18.4899 8.75209 18.4718C9.01856 18.3744 9.13566 18.0436 8.9652 17.7624C8.40979 16.8453 8.03053 15.9145 7.8213 15.0065Z" fill="url(#paint1_linear_5044_59727)"/>
<path d="M3.85345 17.9571C2.90305 17.9571 2.22996 17.1746 2.5306 16.4167C2.95788 15.3394 3.16601 14.2575 3.14594 13.2197C3.13473 12.6399 3.05251 12.0738 2.89711 11.5303L2.2561 9.28462C1.9322 8.14875 1.98719 7.03064 2.40146 6.02127C2.5173 5.73904 2.8284 5.54747 3.18333 5.53738C3.59734 5.5256 4.01082 5.49896 4.42241 5.4574L6.09968 5.28837C6.3524 5.26302 6.60595 5.25037 6.85955 5.25037H6.86432C7.15793 5.25054 7.42332 5.39936 7.54092 5.62552C8.11732 6.73421 8.23643 7.99811 7.86954 9.28458L7.22894 11.5302C7.07396 12.0738 6.99132 12.6399 6.98011 13.2196C6.95975 14.2574 7.16776 15.3394 7.59503 16.4167C7.89564 17.1746 7.22254 17.957 6.27219 17.957L3.85345 17.9571Z" fill="url(#paint2_linear_5044_59727)"/>
<path d="M6.98561 13.687H3.13793C3.09724 14.5802 2.89299 15.5001 2.52945 16.4167C2.2288 17.1746 2.90194 17.9571 3.8523 17.9571H6.27095C7.22131 17.9571 7.8944 17.1746 7.5938 16.4167C7.23026 15.5001 7.02609 14.5803 6.98561 13.687Z" fill="url(#paint3_linear_5044_59727)"/>
<path d="M1.15792 17.7624C0.955556 18.0965 1.15863 18.5 1.53593 18.5H5.0611H8.58631C8.96361 18.5 9.16669 18.0965 8.96432 17.7624C8.13549 16.3941 7.6991 14.9945 7.63436 13.687H2.48788C2.42314 14.9945 1.98671 16.3941 1.15792 17.7624Z" fill="url(#paint4_linear_5044_59727)"/>
<path d="M7.85601 11.6568L8.49669 9.41134C9.04119 7.50306 8.57828 5.67944 7.36208 4.28563C6.93238 3.79316 6.69651 3.26666 6.66364 2.75352L6.61505 1.99457H5.06215H4.70312V18.5H5.06215H8.58736C8.96466 18.5 9.16774 18.0965 8.96537 17.7624C7.68614 15.6505 7.34046 13.4636 7.85601 11.6568Z" fill="url(#paint5_linear_5044_59727)"/>
<path d="M7.35941 4.28563C6.92971 3.79316 6.69384 3.26666 6.66097 2.75352L6.61238 1.99457H5.05948H3.50662L3.45803 2.75352C3.42516 3.26666 3.18929 3.79316 2.75959 4.28563C2.52787 4.5512 2.3237 4.83249 2.14844 5.12688H7.97061C7.79534 4.83245 7.59113 4.5512 7.35941 4.28563Z" fill="url(#paint6_linear_5044_59727)"/>
<path d="M6.46833 2.37502H3.65414C3.32954 2.37502 3.06641 2.15382 3.06641 1.88094V0.99433C3.06641 0.721447 3.32954 0.500244 3.65414 0.500244H6.46833C6.79294 0.500244 7.05607 0.721447 7.05607 0.99433V1.88094C7.05607 2.15382 6.79294 2.37502 6.46833 2.37502Z" fill="url(#paint7_linear_5044_59727)"/>
<path d="M5.89479 2.37493H4.2299C3.96702 2.37493 3.75391 2.19577 3.75391 1.97478V0.900332C3.75391 0.679339 3.96702 0.500183 4.2299 0.500183H5.89479C6.15767 0.500183 6.37079 0.679339 6.37079 0.900332V1.97481C6.37079 2.19577 6.15767 2.37493 5.89479 2.37493Z" fill="url(#paint8_linear_5044_59727)"/>
<path d="M5.30559 2.37493H4.82073C4.65006 2.37493 4.51172 2.25863 4.51172 2.11516V0.759953C4.51172 0.61648 4.65006 0.500183 4.82073 0.500183H5.30559C5.47625 0.500183 5.61459 0.61648 5.61459 0.759953V2.11519C5.61459 2.25863 5.47621 2.37493 5.30559 2.37493Z" fill="url(#paint9_linear_5044_59727)"/>
<path d="M3.06641 0.994184V1.88079C3.06641 2.15367 3.32954 2.37488 3.65414 2.37488H6.46833C6.79294 2.37488 7.05607 2.15367 7.05607 1.88079V0.994184C7.05607 0.966446 7.05268 0.939411 7.04745 0.912903H3.07502C3.06979 0.939411 3.06641 0.966446 3.06641 0.994184Z" fill="url(#paint10_linear_5044_59727)"/>
<path d="M7.05686 0.994367V1.88069C7.05686 2.15357 6.79381 2.37506 6.46921 2.37506H5.30469C5.47519 2.37506 5.61378 2.25852 5.61378 2.11522V0.75984C5.61378 0.616508 5.47515 0.5 5.30469 0.5H6.46921C6.79381 0.5 7.05686 0.721484 7.05686 0.994367Z" fill="url(#paint11_linear_5044_59727)"/>
<path d="M8.96451 17.7624C8.40889 16.8451 8.02958 15.9137 7.82031 15.0054L8.20326 17.9163C8.2383 18.1828 8.46024 18.3969 8.75177 18.4714C9.01791 18.3738 9.1348 18.0435 8.96451 17.7624Z" fill="url(#paint12_linear_5044_59727)"/>
<path d="M6.87982 7.84338L7.32198 11.2045L7.86962 9.28468C8.08035 8.54577 8.1304 7.81441 8.02594 7.11554H7.65516C7.19038 7.11554 6.82872 7.45504 6.87982 7.84338Z" fill="url(#paint13_linear_5044_59727)"/>
<path d="M10.5508 14.3082H11.5811L14.1531 7.02079L14.5817 5.87745C14.6311 5.74575 14.7367 5.64612 14.8715 5.60496C15.0064 5.56353 15.1494 5.58679 15.2644 5.66827L16.8812 6.81589C17.0984 6.96974 17.3995 6.91864 17.5537 6.70121C17.7081 6.48405 17.657 6.18289 17.4396 6.02876L15.8228 4.88139C15.4617 4.62506 15.0121 4.55297 14.5889 4.68213C14.1656 4.81214 13.8338 5.12407 13.6783 5.53878L13.1401 6.97449L10.5508 14.3082Z" fill="url(#paint14_linear_5044_59727)"/>
<path d="M14.5884 4.68242C14.3312 4.76123 14.1081 4.9077 13.9375 5.10326L14.6848 5.71712C14.736 5.66591 14.7992 5.62694 14.8711 5.6049C14.957 5.57857 15.0463 5.57868 15.1296 5.60319L15.432 4.68645C15.1615 4.59989 14.8692 4.59641 14.5884 4.68242Z" fill="url(#paint15_linear_5044_59727)"/>
<path d="M14.8514 4.62909C14.763 4.63873 14.6747 4.6558 14.5876 4.68248C14.5208 4.70295 14.4564 4.7282 14.3945 4.75747L14.8265 5.62142C14.8408 5.61534 14.8552 5.6096 14.8703 5.60496C14.8893 5.59913 14.9085 5.59482 14.9278 5.59156L14.8514 4.62909Z" fill="url(#paint16_linear_5044_59727)"/>
<path d="M13.7795 18.7063H9.48331C9.03794 18.7063 8.66864 18.3615 8.6382 17.9172L7.95882 8.00079C7.92908 7.56675 8.27316 7.1983 8.70822 7.1983H14.5546C14.9897 7.1983 15.3337 7.56675 15.304 8.00079L14.6246 17.9172C14.5941 18.3615 14.2248 18.7063 13.7795 18.7063Z" fill="url(#paint17_linear_5044_59727)"/>
<path d="M14.2337 18.5732L9.81865 14.1581H8.37891L8.63645 17.9172C8.66689 18.3615 9.03619 18.7063 9.48153 18.7063H13.7777C13.9451 18.7063 14.1017 18.6576 14.2337 18.5732Z" fill="url(#paint18_linear_5044_59727)"/>
<path d="M13.0572 7.19824L10.5469 14.3081H11.5773L14.0866 7.19824H13.0572Z" fill="url(#paint19_linear_5044_59727)"/>
<path d="M14.0569 8.58273C14.3072 8.59883 14.496 8.81699 14.4788 9.06724L14.2005 13.1287L13.9491 16.7987C13.9257 17.1428 13.6395 17.4099 13.2946 17.4099H9.96614C9.6212 17.4099 9.33504 17.1428 9.31159 16.7987L9.06545 13.2048L8.82081 9.63638C8.81236 9.51319 8.91268 9.40991 9.03604 9.41516C9.87518 9.45082 10.7843 9.32721 11.7228 8.95419C12.5275 8.63422 13.315 8.53503 14.0569 8.58273Z" fill="url(#paint20_linear_5044_59727)"/>
<path d="M12.5279 8.7045L10.7781 13.6606C10.6665 13.9766 10.901 14.3081 11.2362 14.3081C11.4422 14.3081 11.6257 14.1782 11.6943 13.9839L13.6041 8.57269C13.253 8.57952 12.8933 8.62114 12.5279 8.7045Z" fill="url(#paint21_linear_5044_59727)"/>
<path d="M9.17188 14.7557L9.31181 16.7987C9.33526 17.1428 9.62142 17.4099 9.96635 17.4099H13.2948C13.6397 17.4099 13.9259 17.1428 13.9494 16.7987L14.0893 14.7557H9.17188Z" fill="url(#paint22_linear_5044_59727)"/>
<path d="M9.82144 14.1581H9.13281L9.31365 16.7987C9.3371 17.1428 9.62326 17.4099 9.9682 17.4099H13.0732L9.82144 14.1581Z" fill="url(#paint23_linear_5044_59727)"/>
<path d="M8.60156 17.4099L8.63631 17.9171C8.66675 18.3614 9.03605 18.7063 9.48139 18.7063H13.7775C14.2229 18.7063 14.5922 18.3614 14.6226 17.9171L14.6574 17.4099H8.60156Z" fill="url(#paint24_linear_5044_59727)"/>
<path d="M8.60156 17.4099L8.63631 17.9171C8.66675 18.3614 9.03605 18.7063 9.48139 18.7063H13.7775C14.2229 18.7063 14.5922 18.3614 14.6226 17.9171L14.6574 17.4099H8.60156Z" fill="url(#paint25_linear_5044_59727)"/>
<path d="M6.39547 13.7214C6.35732 13.6269 6.2517 13.5788 6.15477 13.6103C6.08088 13.6343 6.01484 13.6557 5.94355 13.6789C5.82486 13.7174 5.77238 13.8561 5.83563 13.9637C6.08169 14.3821 6.38315 14.6664 6.80777 14.8665C6.93265 14.6483 6.88738 14.7274 7.01228 14.5093C6.72063 14.3022 6.53424 14.0653 6.39547 13.7214Z" fill="url(#paint26_linear_5044_59727)"/>
<path d="M7.46152 14.0554C6.98469 14.4443 6.55197 14.877 6.16311 15.3539C5.30458 16.4067 5.89745 17.9927 7.23767 18.2148C7.32736 18.2296 7.41423 18.2443 7.49734 18.2593C8.28005 18.4008 9.06373 18.5259 9.84006 18.6887C10.4099 18.8082 10.9165 18.3018 10.7971 17.7319C10.6345 16.9555 10.5097 16.1719 10.3674 15.3892C10.352 15.3041 10.3369 15.2159 10.3217 15.1255C10.0966 13.7877 8.51274 13.198 7.46152 14.0554Z" fill="url(#paint27_linear_5044_59727)"/>
<path d="M6.38865 17.0448L6.43467 17.2694C6.47361 17.4596 6.70848 17.5301 6.84578 17.3928C6.98306 17.2556 6.91255 17.0207 6.72234 16.9817L6.4977 16.9357C6.43276 16.9224 6.37536 16.9798 6.38865 17.0448Z" fill="url(#paint28_linear_5044_59727)"/>
<path d="M7.71678 15.7168L7.7628 15.9415C7.80174 16.1317 8.03661 16.2022 8.17392 16.0649C8.31119 15.9276 8.24068 15.6928 8.05047 15.6538L7.82583 15.6078C7.76089 15.5945 7.70347 15.6519 7.71678 15.7168Z" fill="url(#paint29_linear_5044_59727)"/>
<path d="M7.71678 15.7168L7.7628 15.9415C7.80174 16.1317 8.03661 16.2022 8.17392 16.0649C8.31119 15.9276 8.24068 15.6928 8.05047 15.6538L7.82583 15.6078C7.76089 15.5945 7.70347 15.6519 7.71678 15.7168Z" fill="url(#paint30_linear_5044_59727)"/>
<path d="M9.04491 14.3889L9.09092 14.6136C9.12987 14.8038 9.36473 14.8743 9.50204 14.737C9.63932 14.5997 9.5688 14.3649 9.3786 14.3259L9.15395 14.2799C9.08899 14.2666 9.03159 14.324 9.04491 14.3889Z" fill="url(#paint31_linear_5044_59727)"/>
<path d="M9.04491 14.3889L9.09092 14.6136C9.12987 14.8038 9.36473 14.8743 9.50204 14.737C9.63932 14.5997 9.5688 14.3649 9.3786 14.3259L9.15395 14.2799C9.08899 14.2666 9.03159 14.324 9.04491 14.3889Z" fill="url(#paint32_linear_5044_59727)"/>
<path d="M8.04881 17.3774L8.09483 17.602C8.13377 17.7923 8.36864 17.8628 8.50595 17.7255C8.64323 17.5882 8.57271 17.3533 8.38251 17.3144L8.15786 17.2684C8.09292 17.255 8.0355 17.3125 8.04881 17.3774Z" fill="url(#paint33_linear_5044_59727)"/>
<path d="M9.37694 16.0495L9.42295 16.2742C9.4619 16.4644 9.69677 16.5349 9.83407 16.3976C9.97135 16.2603 9.90083 16.0255 9.71063 15.9865L9.48599 15.9405C9.42102 15.9272 9.36362 15.9846 9.37694 16.0495Z" fill="url(#paint34_linear_5044_59727)"/>
<path d="M9.70897 17.71L9.75499 17.9347C9.79393 18.1249 10.0288 18.1954 10.1661 18.0581C10.3034 17.9209 10.2329 17.686 10.0427 17.647L9.81802 17.601C9.75305 17.5877 9.69565 17.6451 9.70897 17.71Z" fill="url(#paint35_linear_5044_59727)"/>
<path d="M6.16311 15.3538C5.30458 16.4066 5.89745 17.9926 7.23767 18.2147C7.32736 18.2296 7.41423 18.2443 7.49734 18.2593C8.28005 18.4008 9.06373 18.5259 9.84006 18.6887C10.4099 18.8082 10.9165 18.3018 10.7971 17.7319C10.6345 16.9555 10.5097 16.1719 10.3674 15.3892C10.352 15.3041 10.3369 15.2159 10.3217 15.1255C10.3115 15.0648 10.2984 15.0057 10.2828 14.9481H6.51523C6.39428 15.0797 6.27661 15.2147 6.16311 15.3538Z" fill="url(#paint36_linear_5044_59727)"/>
<path d="M6.65938 14.7952L6.58621 14.6831C6.52277 14.586 6.39258 14.5587 6.29544 14.6221L6.18341 14.6953C5.76121 14.971 5.64249 15.5368 5.91824 15.959L5.99141 16.071C6.05486 16.1681 6.18504 16.1955 6.28218 16.132L6.39421 16.0588C6.81638 15.7831 6.93513 15.2174 6.65938 14.7952Z" fill="url(#paint37_linear_5044_59727)"/>
<path d="M8.17842 13.8838L8.06638 13.8106C7.64419 13.5349 7.07844 13.6536 6.8027 14.0758L6.72953 14.1878C6.66608 14.285 6.6934 14.4151 6.79054 14.4786L6.90258 14.5518C7.32474 14.8275 7.89052 14.7088 8.16623 14.2866L8.2394 14.1746C8.30288 14.0774 8.27556 13.9472 8.17842 13.8838Z" fill="url(#paint38_linear_5044_59727)"/>
<path d="M6.76967 14.3168H6.63587C6.51986 14.3168 6.42578 14.4108 6.42578 14.5268V14.6606C6.42578 15.1649 6.83455 15.5736 7.33878 15.5736H7.47258C7.58859 15.5736 7.68267 15.4796 7.68267 15.3636V15.2298C7.68267 14.7255 7.2739 14.3168 6.76967 14.3168Z" fill="url(#paint39_linear_5044_59727)"/>
</g>
</g>
<defs>
<linearGradient id="paint0_linear_5044_59727" x1="3.41313" y1="10.2473" x2="7.44001" y2="10.2473" gradientUnits="userSpaceOnUse">
<stop stop-color="#FFFBF5"/>
<stop offset="0.4893" stop-color="#FFF8EC"/>
<stop offset="1" stop-color="#FFF2DE"/>
</linearGradient>
<linearGradient id="paint1_linear_5044_59727" x1="6.46148" y1="14.517" x2="7.85193" y2="14.1935" gradientUnits="userSpaceOnUse">
<stop stop-color="#FFF2DE" stop-opacity="0"/>
<stop offset="0.2223" stop-color="#FFEDD7" stop-opacity="0.222"/>
<stop offset="0.5516" stop-color="#FFDFC3" stop-opacity="0.552"/>
<stop offset="0.9456" stop-color="#FFC8A2" stop-opacity="0.946"/>
<stop offset="1" stop-color="#FFC49D"/>
</linearGradient>
<linearGradient id="paint2_linear_5044_59727" x1="3.81497" y1="11.6037" x2="6.86419" y2="11.6037" gradientUnits="userSpaceOnUse">
<stop stop-color="#C8EFFE"/>
<stop offset="0.1044" stop-color="#BFECFD"/>
<stop offset="0.2723" stop-color="#A8E4FB"/>
<stop offset="0.4825" stop-color="#81D5F9"/>
<stop offset="0.727" stop-color="#4CC2F5"/>
<stop offset="0.9974" stop-color="#08A9F1"/>
<stop offset="1" stop-color="#08A9F1"/>
</linearGradient>
<linearGradient id="paint3_linear_5044_59727" x1="5.0616" y1="16.2034" x2="5.0616" y2="17.907" gradientUnits="userSpaceOnUse">
<stop stop-color="#0290CF" stop-opacity="0"/>
<stop offset="0.9853" stop-color="#0290CF" stop-opacity="0.985"/>
<stop offset="1" stop-color="#0290CF"/>
</linearGradient>
<linearGradient id="paint4_linear_5044_59727" x1="5.06114" y1="17.0807" x2="5.06114" y2="18.3987" gradientUnits="userSpaceOnUse">
<stop stop-color="#FFF2DE" stop-opacity="0"/>
<stop offset="0.2223" stop-color="#FFEDD7" stop-opacity="0.222"/>
<stop offset="0.5516" stop-color="#FFDFC3" stop-opacity="0.552"/>
<stop offset="0.9456" stop-color="#FFC8A2" stop-opacity="0.946"/>
<stop offset="1" stop-color="#FFC49D"/>
</linearGradient>
<linearGradient id="paint5_linear_5044_59727" x1="6.13023" y1="10.2473" x2="8.70981" y2="10.2473" gradientUnits="userSpaceOnUse">
<stop stop-color="#FFF2DE" stop-opacity="0"/>
<stop offset="0.2223" stop-color="#FFEDD7" stop-opacity="0.222"/>
<stop offset="0.5516" stop-color="#FFDFC3" stop-opacity="0.552"/>
<stop offset="0.9456" stop-color="#FFC8A2" stop-opacity="0.946"/>
<stop offset="1" stop-color="#FFC49D"/>
</linearGradient>
<linearGradient id="paint6_linear_5044_59727" x1="5.05952" y1="3.6563" x2="5.05952" y2="2.34356" gradientUnits="userSpaceOnUse">
<stop stop-color="#FFF2DE" stop-opacity="0"/>
<stop offset="0.2223" stop-color="#FFEDD7" stop-opacity="0.222"/>
<stop offset="0.5516" stop-color="#FFDFC3" stop-opacity="0.552"/>
<stop offset="0.9456" stop-color="#FFC8A2" stop-opacity="0.946"/>
<stop offset="1" stop-color="#FFC49D"/>
</linearGradient>
<linearGradient id="paint7_linear_5044_59727" x1="3.78981" y1="0.814787" x2="6.36301" y2="2.59853" gradientUnits="userSpaceOnUse">
<stop stop-color="#C8EFFE"/>
<stop offset="0.1044" stop-color="#BFECFD"/>
<stop offset="0.2723" stop-color="#A8E4FB"/>
<stop offset="0.4825" stop-color="#81D5F9"/>
<stop offset="0.727" stop-color="#4CC2F5"/>
<stop offset="0.9974" stop-color="#08A9F1"/>
<stop offset="1" stop-color="#08A9F1"/>
</linearGradient>
<linearGradient id="paint8_linear_5044_59727" x1="4.26001" y1="-0.0529654" x2="5.49267" y2="3.18734" gradientUnits="userSpaceOnUse">
<stop stop-color="#0290CF" stop-opacity="0"/>
<stop offset="0.9853" stop-color="#0290CF" stop-opacity="0.985"/>
<stop offset="1" stop-color="#0290CF"/>
</linearGradient>
<linearGradient id="paint9_linear_5044_59727" x1="4.49512" y1="1.15929" x2="5.6447" y2="1.95617" gradientUnits="userSpaceOnUse">
<stop stop-color="#0290CF" stop-opacity="0"/>
<stop offset="0.9853" stop-color="#0290CF" stop-opacity="0.985"/>
<stop offset="1" stop-color="#0290CF"/>
</linearGradient>
<linearGradient id="paint10_linear_5044_59727" x1="5.06126" y1="1.63529" x2="5.06126" y2="2.33828" gradientUnits="userSpaceOnUse">
<stop stop-color="#0290CF" stop-opacity="0"/>
<stop offset="0.9853" stop-color="#0290CF" stop-opacity="0.985"/>
<stop offset="1" stop-color="#0290CF"/>
</linearGradient>
<linearGradient id="paint11_linear_5044_59727" x1="6.27859" y1="1.43751" x2="6.9429" y2="1.43751" gradientUnits="userSpaceOnUse">
<stop stop-color="#0290CF" stop-opacity="0"/>
<stop offset="0.9853" stop-color="#0290CF" stop-opacity="0.985"/>
<stop offset="1" stop-color="#0290CF"/>
</linearGradient>
<linearGradient id="paint12_linear_5044_59727" x1="6.56061" y1="15.9942" x2="9.28834" y2="17.6725" gradientUnits="userSpaceOnUse">
<stop stop-color="#FFF2DE" stop-opacity="0"/>
<stop offset="0.2223" stop-color="#FFEDD7" stop-opacity="0.222"/>
<stop offset="0.5516" stop-color="#FFDFC3" stop-opacity="0.552"/>
<stop offset="0.9456" stop-color="#FFC8A2" stop-opacity="0.946"/>
<stop offset="1" stop-color="#FFC49D"/>
</linearGradient>
<linearGradient id="paint13_linear_5044_59727" x1="5.33081" y1="9.85126" x2="10.4848" y2="7.43118" gradientUnits="userSpaceOnUse">
<stop stop-color="#0290CF" stop-opacity="0"/>
<stop offset="0.9853" stop-color="#0290CF" stop-opacity="0.985"/>
<stop offset="1" stop-color="#0290CF"/>
</linearGradient>
<linearGradient id="paint14_linear_5044_59727" x1="14.7529" y1="4.89661" x2="14.1735" y2="9.73919" gradientUnits="userSpaceOnUse">
<stop stop-color="#FEE45A"/>
<stop offset="1" stop-color="#FEA613"/>
</linearGradient>
<linearGradient id="paint15_linear_5044_59727" x1="14.5907" y1="4.49846" x2="15.0139" y2="6.2829" gradientUnits="userSpaceOnUse">
<stop stop-color="#FEA613" stop-opacity="0"/>
<stop offset="1" stop-color="#E94444"/>
</linearGradient>
<linearGradient id="paint16_linear_5044_59727" x1="14.539" y1="4.38433" x2="14.9989" y2="6.07682" gradientUnits="userSpaceOnUse">
<stop stop-color="#FEA613" stop-opacity="0"/>
<stop offset="1" stop-color="#E94444"/>
</linearGradient>
<linearGradient id="paint17_linear_5044_59727" x1="9.14511" y1="12.9523" x2="14.245" y2="12.9523" gradientUnits="userSpaceOnUse">
<stop stop-color="#EAF6FF"/>
<stop offset="1" stop-color="#B3DAFE"/>
</linearGradient>
<linearGradient id="paint18_linear_5044_59727" x1="12.2975" y1="16.5396" x2="10.9289" y2="16.4843" gradientUnits="userSpaceOnUse">
<stop stop-color="#D8ECFE" stop-opacity="0"/>
<stop offset="1" stop-color="#678D98"/>
</linearGradient>
<linearGradient id="paint19_linear_5044_59727" x1="10.7361" y1="8.7822" x2="12.9712" y2="11.5692" gradientUnits="userSpaceOnUse">
<stop stop-color="#FEA613" stop-opacity="0"/>
<stop offset="1" stop-color="#E94444"/>
</linearGradient>
<linearGradient id="paint20_linear_5044_59727" x1="9.6489" y1="12.9907" x2="13.3307" y2="12.9907" gradientUnits="userSpaceOnUse">
<stop stop-color="#FEAEE1"/>
<stop offset="1" stop-color="#FE5694"/>
</linearGradient>
<linearGradient id="paint21_linear_5044_59727" x1="12.0663" y1="11.4522" x2="15.3289" y2="11.3416" gradientUnits="userSpaceOnUse">
<stop stop-color="#E30256" stop-opacity="0"/>
<stop offset="1" stop-color="#E30256"/>
</linearGradient>
<linearGradient id="paint22_linear_5044_59727" x1="11.6136" y1="15.5546" x2="11.5767" y2="17.2873" gradientUnits="userSpaceOnUse">
<stop stop-color="#E30256" stop-opacity="0"/>
<stop offset="1" stop-color="#E30256"/>
</linearGradient>
<linearGradient id="paint23_linear_5044_59727" x1="11.6969" y1="15.5876" x2="9.85832" y2="16.1958" gradientUnits="userSpaceOnUse">
<stop stop-color="#E30256" stop-opacity="0"/>
<stop offset="1" stop-color="#E30256"/>
</linearGradient>
<linearGradient id="paint24_linear_5044_59727" x1="11.6295" y1="18.2186" x2="11.6295" y2="18.6701" gradientUnits="userSpaceOnUse">
<stop stop-color="#D8ECFE" stop-opacity="0"/>
<stop offset="1" stop-color="#678D98"/>
</linearGradient>
<linearGradient id="paint25_linear_5044_59727" x1="11.7414" y1="18.4041" x2="11.5022" y2="16.546" gradientUnits="userSpaceOnUse">
<stop stop-color="white" stop-opacity="0"/>
<stop offset="1" stop-color="white"/>
</linearGradient>
<linearGradient id="paint26_linear_5044_59727" x1="6.06658" y1="13.8407" x2="6.58652" y2="14.3607" gradientUnits="userSpaceOnUse">
<stop stop-color="#BBEC6C"/>
<stop offset="0.2905" stop-color="#ABDC59"/>
<stop offset="0.8729" stop-color="#82B22A"/>
<stop offset="1" stop-color="#78A91F"/>
</linearGradient>
<linearGradient id="paint27_linear_5044_59727" x1="7.11202" y1="15.0043" x2="9.84097" y2="17.7332" gradientUnits="userSpaceOnUse">
<stop stop-color="#FD4755"/>
<stop offset="1" stop-color="#A72B2B"/>
</linearGradient>
<linearGradient id="paint28_linear_5044_59727" x1="6.51214" y1="17.0485" x2="6.73785" y2="17.2742" gradientUnits="userSpaceOnUse">
<stop stop-color="#FFDFCF"/>
<stop offset="1" stop-color="#FFA78F"/>
</linearGradient>
<linearGradient id="paint29_linear_5044_59727" x1="7.84007" y1="15.7208" x2="8.06578" y2="15.9465" gradientUnits="userSpaceOnUse">
<stop stop-color="#F2F2F2"/>
<stop offset="1" stop-color="#FFF5C6"/>
</linearGradient>
<linearGradient id="paint30_linear_5044_59727" x1="7.84007" y1="15.7208" x2="8.06578" y2="15.9465" gradientUnits="userSpaceOnUse">
<stop stop-color="#FFDFCF"/>
<stop offset="1" stop-color="#FFA78F"/>
</linearGradient>
<linearGradient id="paint31_linear_5044_59727" x1="9.16797" y1="14.3931" x2="9.39368" y2="14.6188" gradientUnits="userSpaceOnUse">
<stop stop-color="#F2F2F2"/>
<stop offset="1" stop-color="#FFF5C6"/>
</linearGradient>
<linearGradient id="paint32_linear_5044_59727" x1="9.16797" y1="14.3931" x2="9.39368" y2="14.6188" gradientUnits="userSpaceOnUse">
<stop stop-color="#FFDFCF"/>
<stop offset="1" stop-color="#FFA78F"/>
</linearGradient>
<linearGradient id="paint33_linear_5044_59727" x1="8.17206" y1="17.3811" x2="8.39775" y2="17.6068" gradientUnits="userSpaceOnUse">
<stop stop-color="#FFDFCF"/>
<stop offset="1" stop-color="#FFA78F"/>
</linearGradient>
<linearGradient id="paint34_linear_5044_59727" x1="9.49998" y1="16.0534" x2="9.72567" y2="16.2791" gradientUnits="userSpaceOnUse">
<stop stop-color="#FFDFCF"/>
<stop offset="1" stop-color="#FFA78F"/>
</linearGradient>
<linearGradient id="paint35_linear_5044_59727" x1="9.83195" y1="17.7137" x2="10.0577" y2="17.9394" gradientUnits="userSpaceOnUse">
<stop stop-color="#FFDFCF"/>
<stop offset="1" stop-color="#FFA78F"/>
</linearGradient>
<linearGradient id="paint36_linear_5044_59727" x1="8.37289" y1="16.1789" x2="8.18526" y2="18.3622" gradientUnits="userSpaceOnUse">
<stop stop-color="#A72B2B" stop-opacity="0"/>
<stop offset="1" stop-color="#42210B"/>
</linearGradient>
<linearGradient id="paint37_linear_5044_59727" x1="5.95531" y1="15.0436" x2="6.56771" y2="15.656" gradientUnits="userSpaceOnUse">
<stop stop-color="#BBEC6C"/>
<stop offset="0.2905" stop-color="#ABDC59"/>
<stop offset="0.8729" stop-color="#82B22A"/>
<stop offset="1" stop-color="#78A91F"/>
</linearGradient>
<linearGradient id="paint38_linear_5044_59727" x1="7.41159" y1="13.8125" x2="7.56511" y2="14.5887" gradientUnits="userSpaceOnUse">
<stop stop-color="#BBEC6C"/>
<stop offset="0.2905" stop-color="#ABDC59"/>
<stop offset="0.8729" stop-color="#82B22A"/>
<stop offset="1" stop-color="#78A91F"/>
</linearGradient>
<linearGradient id="paint39_linear_5044_59727" x1="7.19043" y1="14.6762" x2="6.84074" y2="15.367" gradientUnits="userSpaceOnUse">
<stop stop-color="#BBEC6C"/>
<stop offset="0.2905" stop-color="#ABDC59"/>
<stop offset="0.8729" stop-color="#82B22A"/>
<stop offset="1" stop-color="#78A91F"/>
</linearGradient>
<clipPath id="clip0_5044_59727">
<rect width="18" height="18" fill="white" transform="translate(0 0.5)"/>
</clipPath>
<clipPath id="clip1_5044_59727">
<rect width="18" height="18" fill="white" transform="translate(0 0.5)"/>
</clipPath>
</defs>
</svg>
