<svg width="18" height="19" viewBox="0 0 18 19" fill="none" xmlns="http://www.w3.org/2000/svg">
<g clip-path="url(#clip0_5044_36313)">
<g clip-path="url(#clip1_5044_36313)">
<path d="M15.5175 17.2647H2.47988C2.15013 17.2647 1.88281 16.9973 1.88281 16.6676V8.73607L8.25584 2.6333C8.66444 2.24203 9.33301 2.24203 9.74158 2.6333L16.1146 8.73607V16.6676C16.1146 16.9973 15.8473 17.2647 15.5175 17.2647Z" fill="url(#paint0_linear_5044_36313)"/>
<path d="M9.65828 17.2647H15.5175C15.8473 17.2647 16.1146 16.9973 16.1146 16.6676V8.73607L9.74158 2.6333C9.33301 2.24203 8.6644 2.24203 8.25584 2.6333L1.88281 8.73607V9.48921L9.65828 17.2647Z" fill="url(#paint1_linear_5044_36313)"/>
<path d="M1.88281 12.994V16.6675C1.88281 16.9973 2.15013 17.2646 2.47988 17.2646H15.5175C15.8473 17.2646 16.1146 16.9973 16.1146 16.6675V12.994H1.88281Z" fill="url(#paint2_linear_5044_36313)"/>
<path d="M8.99982 9.61467C9.94032 9.61467 10.7028 8.89174 10.7028 7.99996C10.7028 7.10818 9.94032 6.38525 8.99982 6.38525C8.05931 6.38525 7.29688 7.10818 7.29688 7.99996C7.29688 8.89174 8.05931 9.61467 8.99982 9.61467Z" fill="url(#paint3_linear_5044_36313)"/>
<path d="M11.3456 6.81445C11.3456 7.41968 11.0989 7.99875 10.6624 8.41804L6.30469 12.6039L10.9655 17.2647H15.5204C15.8502 17.2647 16.1175 16.9974 16.1175 16.6677V11.5863L11.3456 6.81445Z" fill="url(#paint4_linear_5044_36313)"/>
<path d="M11.7834 12.2101L10.0049 10.4317L10.9225 9.51415C11.3949 9.04156 11.6568 8.43659 11.7078 7.8176C11.7079 7.81675 11.708 7.8159 11.708 7.81506C11.7148 7.73088 10.3562 6.17247 9.00119 6.17236C7.64255 6.17226 6.28757 7.73063 6.29435 7.81506C6.29442 7.8159 6.29449 7.81675 6.29456 7.8176C6.34559 8.43659 6.60744 9.04156 7.07985 9.51415L7.99754 10.4317L6.21896 12.2101C6.09578 12.3334 6.14008 12.5453 6.30427 12.6039C6.42547 12.6472 6.53925 12.7176 6.63624 12.8145C6.72748 12.9058 6.79499 13.0117 6.83862 13.1246C6.90102 13.2853 7.11081 13.3258 7.23268 13.2038L9.00123 11.4353L10.7697 13.2038C10.8916 13.3258 11.1014 13.2853 11.1638 13.1246C11.2074 13.0116 11.2749 12.9058 11.3662 12.8145C11.4632 12.7176 11.577 12.6472 11.6982 12.6039C11.8623 12.5453 11.9066 12.3334 11.7834 12.2101ZM9.00123 9.428L8.08372 8.51032C7.83854 8.2653 7.7035 7.9394 7.7035 7.59277C7.7035 7.46533 7.72178 7.34067 7.75718 7.22194C7.81761 7.01741 7.92878 6.83021 8.08372 6.67523C8.32874 6.43005 8.65461 6.29501 9.00123 6.29501C9.34785 6.29501 9.67372 6.43005 9.91874 6.67523C10.0737 6.83018 10.1849 7.01741 10.2453 7.22194C10.2807 7.34067 10.299 7.46533 10.299 7.59277C10.299 7.9394 10.1639 8.26527 9.91874 8.51032L9.00123 9.428Z" fill="url(#paint5_linear_5044_36313)"/>
<path d="M6.83863 13.1245C6.79486 13.0116 6.72742 12.9057 6.63625 12.8146C6.53916 12.7175 6.4254 12.6473 6.3042 12.604C6.14012 12.5453 6.09576 12.3334 6.21897 12.2101L7.99744 10.4316L9.00113 11.4353L7.23265 13.2038C7.11071 13.3258 6.90092 13.2853 6.83863 13.1245Z" fill="url(#paint6_linear_5044_36313)"/>
<path d="M6.33984 12.618C6.44746 12.6618 6.54836 12.7273 6.63561 12.8145C6.72684 12.9058 6.79436 13.0116 6.83798 13.1246C6.90038 13.2853 7.11017 13.3258 7.23204 13.2038L9.00056 11.4353L8.26154 10.6964L6.33984 12.618Z" fill="url(#paint7_linear_5044_36313)"/>
<path d="M10.0037 10.4316L9 9.42792L9.90879 8.51917L10.9125 9.52286L10.0037 10.4316Z" fill="url(#paint8_linear_5044_36313)"/>
<path d="M10.1833 8.77506L10.1744 8.78378L9.26562 9.69257L10.0046 10.4316L10.9223 9.51409C11.3947 9.0415 11.6566 8.43652 11.7076 7.81753C11.7077 7.81669 11.7078 7.81584 11.7078 7.81499C11.7214 7.64639 11.6923 7.47666 11.6242 7.32183C11.4854 7.00626 11.2844 6.71078 11.0213 6.45345C10.993 6.42581 10.9642 6.39906 10.935 6.3728C11.0861 7.21863 10.8356 8.12279 10.1833 8.77506Z" fill="url(#paint9_linear_5044_36313)"/>
<path d="M10.0156 10.4452L10.2714 10.701H10.2714L10.0156 10.4452Z" fill="url(#paint10_linear_5044_36313)"/>
<path d="M11.6993 12.6039C11.8635 12.5453 11.9078 12.3333 11.7846 12.2101L11.1482 11.5737L10.1445 12.5774L10.7709 13.2038C10.8929 13.3258 11.1027 13.2853 11.165 13.1245C11.2087 13.0116 11.2762 12.9057 11.3673 12.8145C11.4644 12.7174 11.5781 12.6472 11.6993 12.6039Z" fill="url(#paint11_linear_5044_36313)"/>
<path d="M8.99984 6.17236C7.64119 6.17226 6.28622 7.73063 6.29299 7.81506C6.29306 7.8159 6.29314 7.81675 6.29321 7.8176C6.34138 8.40161 6.57725 8.97309 7.00054 9.43276H10.9991C11.4224 8.97313 11.6583 8.40161 11.7064 7.8176C11.7065 7.81675 11.7066 7.8159 11.7067 7.81506C11.7134 7.73085 10.3548 6.17247 8.99984 6.17236ZM9.91735 8.51035L8.99984 9.42803L8.08234 8.51035C7.83715 8.26534 7.70211 7.93943 7.70211 7.59281C7.70211 7.46536 7.72039 7.3407 7.75579 7.22198C7.81622 7.01745 7.92739 6.83025 8.08234 6.67527C8.32735 6.43008 8.65322 6.29505 8.99984 6.29505C9.34646 6.29505 9.67234 6.43008 9.91735 6.67527C10.0723 6.83021 10.1835 7.01745 10.2439 7.22198C10.2793 7.3407 10.2976 7.46536 10.2976 7.59281C10.2976 7.93943 10.1626 8.26534 9.91735 8.51035Z" fill="url(#paint12_linear_5044_36313)"/>
<path d="M11.0199 6.45343C9.90592 5.36464 8.09329 5.36464 6.9793 6.45343C6.88326 6.54735 6.76591 6.68168 6.65558 6.81446C6.42137 7.09621 6.29286 7.45099 6.29297 7.81737V7.81755C6.3254 8.20995 6.44233 8.59674 6.64422 8.94767C6.29728 8.34086 6.60172 7.56446 7.26815 7.35089C7.42326 7.30116 7.58611 7.25803 7.75556 7.22196C8.14136 7.13962 8.56093 7.09451 8.9996 7.09451C9.43828 7.09451 9.85785 7.13962 10.2437 7.22196C10.4131 7.25803 10.5759 7.30116 10.7311 7.35089C11.3975 7.56446 11.7019 8.34086 11.355 8.94767C11.5569 8.59677 11.6738 8.20995 11.7062 7.81755C11.7062 7.81755 11.7062 7.81748 11.7062 7.81737C11.7063 7.45099 11.5778 7.09624 11.3436 6.81446C11.2333 6.68171 11.1159 6.54739 11.0199 6.45343Z" fill="url(#paint13_linear_5044_36313)"/>
<path d="M17.4661 18.5C17.962 18.5 18.1889 17.8821 17.811 17.5609C15.9729 15.9988 12.7141 14.9601 8.99999 14.9601C5.28585 14.9601 2.02704 15.9988 0.188959 17.5609C-0.188935 17.8821 0.0379354 18.5 0.533888 18.5H17.4661Z" fill="url(#paint14_linear_5044_36313)"/>
<path d="M18 9.11812V9.1184C18 9.95321 16.9902 10.3707 16.4007 9.77956L10.8318 4.19529C9.86082 3.22118 8.13424 3.22118 7.16329 4.19529L1.59928 9.77438C1.0098 10.3654 0 9.94795 0 9.11318C0 8.66494 0.177529 8.23541 0.494118 7.91812L7.16329 1.23059C8.13424 0.256471 9.86082 0.256471 10.8318 1.23059L17.5059 7.92341C17.8225 8.24035 18 8.67024 18 9.11812Z" fill="url(#paint15_linear_5044_36313)"/>
<path d="M7.16289 2.71289L0.493716 9.40042C0.392599 9.50175 0.305846 9.61462 0.234375 9.73582C0.568469 10.1074 1.1864 10.188 1.59892 9.77439L7.16289 4.19531C8.13383 3.22119 9.86042 3.22119 10.8314 4.19531L16.4003 9.77958C16.8128 10.1932 17.4308 10.1125 17.7649 9.74097C17.6934 9.61977 17.6066 9.50694 17.5055 9.40568L10.8314 2.71289C9.86042 1.73877 8.13383 1.73877 7.16289 2.71289Z" fill="url(#paint16_linear_5044_36313)"/>
<path d="M5.12693 12.2177H3.71489C3.41284 12.2177 3.16797 11.9728 3.16797 11.6708V10.2587C3.16797 9.95666 3.41284 9.71179 3.71489 9.71179H5.12693C5.42898 9.71179 5.67385 9.95666 5.67385 10.2587V11.6708C5.67385 11.9728 5.42898 12.2177 5.12693 12.2177Z" fill="url(#paint17_linear_5044_36313)"/>
<path d="M14.2871 12.2177H12.875C12.573 12.2177 12.3281 11.9728 12.3281 11.6708V10.2587C12.3281 9.95666 12.573 9.71179 12.875 9.71179H14.2871C14.5891 9.71179 14.834 9.95666 14.834 10.2587V11.6708C14.834 11.9728 14.5891 12.2177 14.2871 12.2177Z" fill="url(#paint18_linear_5044_36313)"/>
</g>
</g>
<defs>
<linearGradient id="paint0_linear_5044_36313" x1="3.78061" y1="7.60737" x2="12.1882" y2="16.015" gradientUnits="userSpaceOnUse">
<stop stop-color="#EAF6FF"/>
<stop offset="1" stop-color="#B3DAFE"/>
</linearGradient>
<linearGradient id="paint1_linear_5044_36313" x1="8.09825" y1="8.21217" x2="4.97617" y2="5.09008" gradientUnits="userSpaceOnUse">
<stop stop-color="#D8ECFE" stop-opacity="0"/>
<stop offset="1" stop-color="#678D98"/>
</linearGradient>
<linearGradient id="paint2_linear_5044_36313" x1="8.99871" y1="13.5234" x2="8.99871" y2="16.938" gradientUnits="userSpaceOnUse">
<stop stop-color="#D8ECFE" stop-opacity="0"/>
<stop offset="1" stop-color="#678D98"/>
</linearGradient>
<linearGradient id="paint3_linear_5044_36313" x1="10.0637" y1="9.55784" x2="8.08725" y2="6.66369" gradientUnits="userSpaceOnUse">
<stop stop-color="#D8ECFE" stop-opacity="0"/>
<stop offset="1" stop-color="#678D98"/>
</linearGradient>
<linearGradient id="paint4_linear_5044_36313" x1="13.2911" y1="14.1752" x2="7.55558" y2="8.43964" gradientUnits="userSpaceOnUse">
<stop stop-color="#D8ECFE" stop-opacity="0"/>
<stop offset="1" stop-color="#678D98"/>
</linearGradient>
<linearGradient id="paint5_linear_5044_36313" x1="6.48215" y1="7.66827" x2="11.5046" y2="12.6907" gradientUnits="userSpaceOnUse">
<stop stop-color="#FEAEE1"/>
<stop offset="1" stop-color="#FE5694"/>
</linearGradient>
<linearGradient id="paint6_linear_5044_36313" x1="8.03782" y1="11.395" x2="8.82039" y2="10.6124" gradientUnits="userSpaceOnUse">
<stop stop-color="#FD3581" stop-opacity="0"/>
<stop offset="1" stop-color="#D2024E"/>
</linearGradient>
<linearGradient id="paint7_linear_5044_36313" x1="7.56437" y1="11.9392" x2="8.34158" y2="12.7164" gradientUnits="userSpaceOnUse">
<stop stop-color="#FD3581" stop-opacity="0"/>
<stop offset="1" stop-color="#D2024E"/>
</linearGradient>
<linearGradient id="paint8_linear_5044_36313" x1="9.95231" y1="9.47931" x2="9.26566" y2="10.166" gradientUnits="userSpaceOnUse">
<stop stop-color="#FD3581" stop-opacity="0"/>
<stop offset="1" stop-color="#D2024E"/>
</linearGradient>
<linearGradient id="paint9_linear_5044_36313" x1="10.6336" y1="8.56305" x2="11.5943" y2="9.52376" gradientUnits="userSpaceOnUse">
<stop stop-color="#FD3581" stop-opacity="0"/>
<stop offset="1" stop-color="#D2024E"/>
</linearGradient>
<linearGradient id="paint10_linear_5044_36313" x1="10.2179" y1="10.6474" x2="10.3107" y2="10.7403" gradientUnits="userSpaceOnUse">
<stop stop-color="#972437" stop-opacity="0"/>
<stop offset="1" stop-color="#42210B"/>
</linearGradient>
<linearGradient id="paint11_linear_5044_36313" x1="10.9702" y1="12.3994" x2="11.585" y2="13.0142" gradientUnits="userSpaceOnUse">
<stop stop-color="#FD3581" stop-opacity="0"/>
<stop offset="1" stop-color="#D2024E"/>
</linearGradient>
<linearGradient id="paint12_linear_5044_36313" x1="8.99984" y1="8.65333" x2="8.99984" y2="6.9951" gradientUnits="userSpaceOnUse">
<stop stop-color="#FD3581" stop-opacity="0"/>
<stop offset="1" stop-color="#D2024E"/>
</linearGradient>
<linearGradient id="paint13_linear_5044_36313" x1="8.22624" y1="5.74656" x2="9.16485" y2="8.26596" gradientUnits="userSpaceOnUse">
<stop stop-color="#FEAEE1"/>
<stop offset="1" stop-color="#FE5694"/>
</linearGradient>
<linearGradient id="paint14_linear_5044_36313" x1="8.99999" y1="15.7471" x2="8.99999" y2="18.3626" gradientUnits="userSpaceOnUse">
<stop stop-color="#F1B0A2"/>
<stop offset="1" stop-color="#CA6E59"/>
</linearGradient>
<linearGradient id="paint15_linear_5044_36313" x1="3.99702" y1="3.94827" x2="14.8237" y2="14.7749" gradientUnits="userSpaceOnUse">
<stop stop-color="#FEE45A"/>
<stop offset="1" stop-color="#FEA613"/>
</linearGradient>
<linearGradient id="paint16_linear_5044_36313" x1="8.9996" y1="10.5076" x2="8.9996" y2="-5.50814" gradientUnits="userSpaceOnUse">
<stop stop-color="#FE7701" stop-opacity="0"/>
<stop offset="0.1854" stop-color="#F87204" stop-opacity="0.185"/>
<stop offset="0.4314" stop-color="#E7630C" stop-opacity="0.431"/>
<stop offset="0.7114" stop-color="#CB4B19" stop-opacity="0.711"/>
<stop offset="1" stop-color="#A72B2B"/>
</linearGradient>
<linearGradient id="paint17_linear_5044_36313" x1="3.68563" y1="10.2295" x2="5.08013" y2="11.624" gradientUnits="userSpaceOnUse">
<stop stop-color="#B3DAFE"/>
<stop offset="1" stop-color="#7BACDF"/>
</linearGradient>
<linearGradient id="paint18_linear_5044_36313" x1="12.8458" y1="10.2295" x2="14.2403" y2="11.624" gradientUnits="userSpaceOnUse">
<stop stop-color="#B3DAFE"/>
<stop offset="1" stop-color="#7BACDF"/>
</linearGradient>
<clipPath id="clip0_5044_36313">
<rect width="18" height="18" fill="white" transform="translate(0 0.5)"/>
</clipPath>
<clipPath id="clip1_5044_36313">
<rect width="18" height="18" fill="white" transform="translate(0 0.5)"/>
</clipPath>
</defs>
</svg>
