<svg width="18" height="19" viewBox="0 0 18 19" fill="none" xmlns="http://www.w3.org/2000/svg">
<g clip-path="url(#clip0_5044_39888)">
<path d="M15.4424 6.62717H12.0625V2.15748C12.0625 1.90414 12.2679 1.69879 12.5212 1.69879H14.9837C15.237 1.69879 15.4424 1.90417 15.4424 2.15748V6.62717H15.4424Z" fill="url(#paint0_linear_5044_39888)"/>
<path d="M15.4424 6.62717H12.0625V2.15748C12.0625 1.90414 12.2679 1.69879 12.5212 1.69879H14.9837C15.237 1.69879 15.4424 1.90417 15.4424 2.15748V6.62717H15.4424Z" fill="url(#paint1_linear_5044_39888)"/>
<path d="M15.4414 2.15749V6.62705H13.3594V1.69891H14.9828C15.2358 1.69891 15.4414 1.90409 15.4414 2.15749Z" fill="url(#paint2_linear_5044_39888)"/>
<path d="M15.5404 7.70627V16.4403C15.5404 16.9158 15.1549 17.3013 14.6794 17.3013H3.31804C2.84252 17.3013 2.45703 16.9158 2.45703 16.4403V7.70627L7.16994 4.2179H10.8275L15.5404 7.70627Z" fill="url(#paint3_linear_5044_39888)"/>
<path d="M2.45703 11.5446V16.4403C2.45703 16.9158 2.84252 17.3013 3.31804 17.3013H14.6794C15.1549 17.3013 15.5404 16.9158 15.5404 16.4403V11.5446H2.45703Z" fill="url(#paint4_linear_5044_39888)"/>
<path d="M15.5407 7.70628V11.5445H2.45703V7.70628L7.17025 4.21783H10.8275L15.5407 7.70628Z" fill="url(#paint5_linear_5044_39888)"/>
<path d="M2.45703 7.70628V11.5445H15.5407V7.70628L10.8275 4.21783H7.17025L2.45703 7.70628Z" fill="url(#paint6_linear_5044_39888)"/>
<path d="M9 4.2179V17.3013H14.6807C15.1562 17.3013 15.5417 16.9158 15.5417 16.4403V7.70627L10.8288 4.2179H9Z" fill="url(#paint7_linear_5044_39888)"/>
<path d="M9.35885 4.50058L16.1189 9.50419C16.6716 9.91327 17.4555 9.76473 17.8203 9.18188C18.1469 8.65995 18.0171 7.97461 17.5222 7.60828L9.97078 2.01893C9.39401 1.592 8.60601 1.592 8.02921 2.01893L0.477818 7.60828C-0.0170764 7.97458 -0.146908 8.65995 0.179728 9.18188C0.544474 9.76473 1.32846 9.91327 1.88112 9.50419L8.64117 4.50058C8.85436 4.34276 9.14566 4.34276 9.35885 4.50058Z" fill="url(#paint8_linear_5044_39888)"/>
<path d="M9.35885 4.50058L16.1189 9.50419C16.6716 9.91327 17.4555 9.76473 17.8203 9.18188C18.1469 8.65995 18.0171 7.97461 17.5222 7.60828L9.97078 2.01893C9.39401 1.592 8.60601 1.592 8.02921 2.01893L0.477818 7.60828C-0.0170764 7.97458 -0.146908 8.65995 0.179728 9.18188C0.544474 9.76473 1.32846 9.91327 1.88112 9.50419L8.64117 4.50058C8.85436 4.34276 9.14566 4.34276 9.35885 4.50058Z" fill="url(#paint9_linear_5044_39888)"/>
<path d="M17.8147 9.18901L9.96993 3.38249C9.39316 2.95559 8.60517 2.95559 8.02836 3.38249L0.183594 9.18901C0.550273 9.76585 1.32993 9.91157 1.88027 9.50422L8.64032 4.5006C8.85351 4.34279 9.14482 4.34279 9.358 4.5006L16.1181 9.50422C16.6684 9.91157 17.4481 9.76581 17.8147 9.18901Z" fill="url(#paint10_linear_5044_39888)"/>
<path d="M12.0625 6.50312L16.117 9.50413C16.6696 9.91321 17.4536 9.76467 17.8184 9.18182C18.145 8.65989 18.0151 7.97455 17.5203 7.60822L13.7488 4.81671L12.0625 6.50312Z" fill="url(#paint11_linear_5044_39888)"/>
<path d="M5.93559 6.50315L1.88109 9.50419C1.32843 9.91327 0.54445 9.76473 0.179704 9.18188C-0.146898 8.65995 -0.0170658 7.97461 0.477794 7.60828L4.24918 4.81677L5.93559 6.50315Z" fill="url(#paint12_linear_5044_39888)"/>
<path d="M8.16823 11.1349H6.33171C6.11398 11.1349 5.9375 10.9584 5.9375 10.7407V8.90416C5.9375 8.68643 6.11398 8.50995 6.33171 8.50995H8.16823C8.38596 8.50995 8.56244 8.68643 8.56244 8.90416V10.7407C8.56244 10.9584 8.38596 11.1349 8.16823 11.1349Z" fill="url(#paint13_linear_5044_39888)"/>
<path d="M8.16823 11.1349H6.33171C6.11398 11.1349 5.9375 10.9584 5.9375 10.7407V8.90416C5.9375 8.68643 6.11398 8.50995 6.33171 8.50995H8.16823C8.38596 8.50995 8.56244 8.68643 8.56244 8.90416V10.7407C8.56244 10.9584 8.38596 11.1349 8.16823 11.1349Z" fill="url(#paint14_linear_5044_39888)"/>
<path d="M8.16823 11.1349H6.33171C6.11398 11.1349 5.9375 10.9584 5.9375 10.7407V8.90416C5.9375 8.68643 6.11398 8.50995 6.33171 8.50995H8.16823C8.38596 8.50995 8.56244 8.68643 8.56244 8.90416V10.7407C8.56244 10.9584 8.38596 11.1349 8.16823 11.1349Z" fill="url(#paint15_linear_5044_39888)"/>
<path d="M11.6721 11.1349H9.83561C9.61789 11.1349 9.44141 10.9584 9.44141 10.7407V8.90416C9.44141 8.68643 9.61789 8.50995 9.83561 8.50995H11.6721C11.8899 8.50995 12.0663 8.68643 12.0663 8.90416V10.7407C12.0663 10.9584 11.8899 11.1349 11.6721 11.1349Z" fill="url(#paint16_linear_5044_39888)"/>
<path d="M11.6721 11.1349H9.83561C9.61789 11.1349 9.44141 10.9584 9.44141 10.7407V8.90416C9.44141 8.68643 9.61789 8.50995 9.83561 8.50995H11.6721C11.8899 8.50995 12.0663 8.68643 12.0663 8.90416V10.7407C12.0663 10.9584 11.8899 11.1349 11.6721 11.1349Z" fill="url(#paint17_linear_5044_39888)"/>
<path d="M11.6721 11.1349H9.83561C9.61789 11.1349 9.44141 10.9584 9.44141 10.7407V8.90416C9.44141 8.68643 9.61789 8.50995 9.83561 8.50995H11.6721C11.8899 8.50995 12.0663 8.68643 12.0663 8.90416V10.7407C12.0663 10.9584 11.8899 11.1349 11.6721 11.1349Z" fill="url(#paint18_linear_5044_39888)"/>
<path d="M8.16823 14.5789H6.33171C6.11398 14.5789 5.9375 14.4024 5.9375 14.1847V12.3482C5.9375 12.1305 6.11398 11.954 6.33171 11.954H8.16823C8.38596 11.954 8.56244 12.1305 8.56244 12.3482V14.1847C8.56244 14.4024 8.38596 14.5789 8.16823 14.5789Z" fill="url(#paint19_linear_5044_39888)"/>
<path d="M8.16823 14.5789H6.33171C6.11398 14.5789 5.9375 14.4024 5.9375 14.1847V12.3482C5.9375 12.1305 6.11398 11.954 6.33171 11.954H8.16823C8.38596 11.954 8.56244 12.1305 8.56244 12.3482V14.1847C8.56244 14.4024 8.38596 14.5789 8.16823 14.5789Z" fill="url(#paint20_linear_5044_39888)"/>
<path d="M8.16823 14.5789H6.33171C6.11398 14.5789 5.9375 14.4024 5.9375 14.1847V12.3482C5.9375 12.1305 6.11398 11.954 6.33171 11.954H8.16823C8.38596 11.954 8.56244 12.1305 8.56244 12.3482V14.1847C8.56244 14.4024 8.38596 14.5789 8.16823 14.5789Z" fill="url(#paint21_linear_5044_39888)"/>
<path d="M11.6721 14.5789H9.83561C9.61789 14.5789 9.44141 14.4024 9.44141 14.1847V12.3482C9.44141 12.1305 9.61789 11.954 9.83561 11.954H11.6721C11.8899 11.954 12.0663 12.1305 12.0663 12.3482V14.1847C12.0663 14.4024 11.8899 14.5789 11.6721 14.5789Z" fill="url(#paint22_linear_5044_39888)"/>
<path d="M11.6721 14.5789H9.83561C9.61789 14.5789 9.44141 14.4024 9.44141 14.1847V12.3482C9.44141 12.1305 9.61789 11.954 9.83561 11.954H11.6721C11.8899 11.954 12.0663 12.1305 12.0663 12.3482V14.1847C12.0663 14.4024 11.8899 14.5789 11.6721 14.5789Z" fill="url(#paint23_linear_5044_39888)"/>
<path d="M11.6721 14.5789H9.83561C9.61789 14.5789 9.44141 14.4024 9.44141 14.1847V12.3482C9.44141 12.1305 9.61789 11.954 9.83561 11.954H11.6721C11.8899 11.954 12.0663 12.1305 12.0663 12.3482V14.1847C12.0663 14.4024 11.8899 14.5789 11.6721 14.5789Z" fill="url(#paint24_linear_5044_39888)"/>
</g>
<defs>
<linearGradient id="paint0_linear_5044_39888" x1="12.441" y1="4.16296" x2="15.4641" y2="4.16296" gradientUnits="userSpaceOnUse">
<stop stop-color="#FFA1AE"/>
<stop offset="1" stop-color="#FF4565"/>
</linearGradient>
<linearGradient id="paint1_linear_5044_39888" x1="14.4786" y1="3.25379" x2="13.4698" y2="4.73728" gradientUnits="userSpaceOnUse">
<stop stop-color="#FE0364" stop-opacity="0"/>
<stop offset="0.2343" stop-color="#F90362" stop-opacity="0.234"/>
<stop offset="0.5173" stop-color="#EA035B" stop-opacity="0.517"/>
<stop offset="0.8243" stop-color="#D20250" stop-opacity="0.824"/>
<stop offset="1" stop-color="#C00148"/>
</linearGradient>
<linearGradient id="paint2_linear_5044_39888" x1="14.3597" y1="4.16298" x2="15.4746" y2="4.16298" gradientUnits="userSpaceOnUse">
<stop stop-color="#FE0364" stop-opacity="0"/>
<stop offset="0.2343" stop-color="#F90362" stop-opacity="0.234"/>
<stop offset="0.5173" stop-color="#EA035B" stop-opacity="0.517"/>
<stop offset="0.8243" stop-color="#D20250" stop-opacity="0.824"/>
<stop offset="1" stop-color="#C00148"/>
</linearGradient>
<linearGradient id="paint3_linear_5044_39888" x1="3.87098" y1="7.12388" x2="11.6999" y2="14.9528" gradientUnits="userSpaceOnUse">
<stop stop-color="#F5FBFF"/>
<stop offset="1" stop-color="#DBD5EF"/>
</linearGradient>
<linearGradient id="paint4_linear_5044_39888" x1="8.99873" y1="14.1755" x2="8.99873" y2="17.5036" gradientUnits="userSpaceOnUse">
<stop stop-color="#DBD5EF" stop-opacity="0"/>
<stop offset="0.2853" stop-color="#D9D2EE" stop-opacity="0.285"/>
<stop offset="0.4739" stop-color="#D4C9E9" stop-opacity="0.474"/>
<stop offset="0.6346" stop-color="#CBBAE2" stop-opacity="0.635"/>
<stop offset="0.7795" stop-color="#BFA5D7" stop-opacity="0.78"/>
<stop offset="0.9126" stop-color="#AF8ACA" stop-opacity="0.913"/>
<stop offset="1" stop-color="#A274BF"/>
</linearGradient>
<linearGradient id="paint5_linear_5044_39888" x1="8.13512" y1="8.35133" x2="6.51276" y2="5.95835" gradientUnits="userSpaceOnUse">
<stop stop-color="#DBD5EF" stop-opacity="0"/>
<stop offset="0.2853" stop-color="#D9D2EE" stop-opacity="0.285"/>
<stop offset="0.4739" stop-color="#D4C9E9" stop-opacity="0.474"/>
<stop offset="0.6346" stop-color="#CBBAE2" stop-opacity="0.635"/>
<stop offset="0.7795" stop-color="#BFA5D7" stop-opacity="0.78"/>
<stop offset="0.9126" stop-color="#AF8ACA" stop-opacity="0.913"/>
<stop offset="1" stop-color="#A274BF"/>
</linearGradient>
<linearGradient id="paint6_linear_5044_39888" x1="9.86263" y1="8.35133" x2="11.485" y2="5.95835" gradientUnits="userSpaceOnUse">
<stop stop-color="#DBD5EF" stop-opacity="0"/>
<stop offset="0.2853" stop-color="#D9D2EE" stop-opacity="0.285"/>
<stop offset="0.4739" stop-color="#D4C9E9" stop-opacity="0.474"/>
<stop offset="0.6346" stop-color="#CBBAE2" stop-opacity="0.635"/>
<stop offset="0.7795" stop-color="#BFA5D7" stop-opacity="0.78"/>
<stop offset="0.9126" stop-color="#AF8ACA" stop-opacity="0.913"/>
<stop offset="1" stop-color="#A274BF"/>
</linearGradient>
<linearGradient id="paint7_linear_5044_39888" x1="11.1049" y1="10.7596" x2="15.7339" y2="10.7596" gradientUnits="userSpaceOnUse">
<stop stop-color="#DBD5EF" stop-opacity="0"/>
<stop offset="0.2853" stop-color="#D9D2EE" stop-opacity="0.285"/>
<stop offset="0.4739" stop-color="#D4C9E9" stop-opacity="0.474"/>
<stop offset="0.6346" stop-color="#CBBAE2" stop-opacity="0.635"/>
<stop offset="0.7795" stop-color="#BFA5D7" stop-opacity="0.78"/>
<stop offset="0.9126" stop-color="#AF8ACA" stop-opacity="0.913"/>
<stop offset="1" stop-color="#A274BF"/>
</linearGradient>
<linearGradient id="paint8_linear_5044_39888" x1="7.59119" y1="1.75765" x2="9.4569" y2="10.7618" gradientUnits="userSpaceOnUse">
<stop stop-color="#B3DAFE"/>
<stop offset="1" stop-color="#0182FC"/>
</linearGradient>
<linearGradient id="paint9_linear_5044_39888" x1="7.59119" y1="1.75765" x2="9.4569" y2="10.7618" gradientUnits="userSpaceOnUse">
<stop stop-color="#B3DAFE"/>
<stop offset="1" stop-color="#0182FC"/>
</linearGradient>
<linearGradient id="paint10_linear_5044_39888" x1="8.99916" y1="7.21287" x2="8.99916" y2="1.5865" gradientUnits="userSpaceOnUse">
<stop stop-color="#314DC9" stop-opacity="0"/>
<stop offset="0.2761" stop-color="#304BC4" stop-opacity="0.276"/>
<stop offset="0.5628" stop-color="#2B45B8" stop-opacity="0.563"/>
<stop offset="0.8535" stop-color="#243BA3" stop-opacity="0.854"/>
<stop offset="1" stop-color="#1F3596"/>
</linearGradient>
<linearGradient id="paint11_linear_5044_39888" x1="15.5789" y1="7.83393" x2="17.6232" y2="9.87823" gradientUnits="userSpaceOnUse">
<stop stop-color="#314DC9" stop-opacity="0"/>
<stop offset="0.2761" stop-color="#304BC4" stop-opacity="0.276"/>
<stop offset="0.5628" stop-color="#2B45B8" stop-opacity="0.563"/>
<stop offset="0.8535" stop-color="#243BA3" stop-opacity="0.854"/>
<stop offset="1" stop-color="#1F3596"/>
</linearGradient>
<linearGradient id="paint12_linear_5044_39888" x1="2.41923" y1="7.83395" x2="0.374927" y2="9.87825" gradientUnits="userSpaceOnUse">
<stop stop-color="#314DC9" stop-opacity="0"/>
<stop offset="0.2761" stop-color="#304BC4" stop-opacity="0.276"/>
<stop offset="0.5628" stop-color="#2B45B8" stop-opacity="0.563"/>
<stop offset="0.8535" stop-color="#243BA3" stop-opacity="0.854"/>
<stop offset="1" stop-color="#1F3596"/>
</linearGradient>
<linearGradient id="paint13_linear_5044_39888" x1="6.5142" y1="9.08665" x2="8.51871" y2="11.0912" gradientUnits="userSpaceOnUse">
<stop stop-color="#B3DAFE"/>
<stop offset="1" stop-color="#0182FC"/>
</linearGradient>
<linearGradient id="paint14_linear_5044_39888" x1="7.24995" y1="9.21241" x2="7.24995" y2="8.28864" gradientUnits="userSpaceOnUse">
<stop stop-color="#314DC9" stop-opacity="0"/>
<stop offset="0.2761" stop-color="#304BC4" stop-opacity="0.276"/>
<stop offset="0.5628" stop-color="#2B45B8" stop-opacity="0.563"/>
<stop offset="0.8535" stop-color="#243BA3" stop-opacity="0.854"/>
<stop offset="1" stop-color="#1F3596"/>
</linearGradient>
<linearGradient id="paint15_linear_5044_39888" x1="6.79855" y1="9.8224" x2="5.843" y2="9.8224" gradientUnits="userSpaceOnUse">
<stop stop-color="#314DC9" stop-opacity="0"/>
<stop offset="0.2761" stop-color="#304BC4" stop-opacity="0.276"/>
<stop offset="0.5628" stop-color="#2B45B8" stop-opacity="0.563"/>
<stop offset="0.8535" stop-color="#243BA3" stop-opacity="0.854"/>
<stop offset="1" stop-color="#1F3596"/>
</linearGradient>
<linearGradient id="paint16_linear_5044_39888" x1="10.0181" y1="9.08665" x2="12.0226" y2="11.0912" gradientUnits="userSpaceOnUse">
<stop stop-color="#B3DAFE"/>
<stop offset="1" stop-color="#0182FC"/>
</linearGradient>
<linearGradient id="paint17_linear_5044_39888" x1="10.7539" y1="9.21241" x2="10.7539" y2="8.28864" gradientUnits="userSpaceOnUse">
<stop stop-color="#314DC9" stop-opacity="0"/>
<stop offset="0.2761" stop-color="#304BC4" stop-opacity="0.276"/>
<stop offset="0.5628" stop-color="#2B45B8" stop-opacity="0.563"/>
<stop offset="0.8535" stop-color="#243BA3" stop-opacity="0.854"/>
<stop offset="1" stop-color="#1F3596"/>
</linearGradient>
<linearGradient id="paint18_linear_5044_39888" x1="10.3025" y1="9.8224" x2="9.34691" y2="9.8224" gradientUnits="userSpaceOnUse">
<stop stop-color="#314DC9" stop-opacity="0"/>
<stop offset="0.2761" stop-color="#304BC4" stop-opacity="0.276"/>
<stop offset="0.5628" stop-color="#2B45B8" stop-opacity="0.563"/>
<stop offset="0.8535" stop-color="#243BA3" stop-opacity="0.854"/>
<stop offset="1" stop-color="#1F3596"/>
</linearGradient>
<linearGradient id="paint19_linear_5044_39888" x1="6.5142" y1="12.5307" x2="8.51871" y2="14.5352" gradientUnits="userSpaceOnUse">
<stop stop-color="#B3DAFE"/>
<stop offset="1" stop-color="#0182FC"/>
</linearGradient>
<linearGradient id="paint20_linear_5044_39888" x1="7.24995" y1="12.6565" x2="7.24995" y2="11.7327" gradientUnits="userSpaceOnUse">
<stop stop-color="#314DC9" stop-opacity="0"/>
<stop offset="0.2761" stop-color="#304BC4" stop-opacity="0.276"/>
<stop offset="0.5628" stop-color="#2B45B8" stop-opacity="0.563"/>
<stop offset="0.8535" stop-color="#243BA3" stop-opacity="0.854"/>
<stop offset="1" stop-color="#1F3596"/>
</linearGradient>
<linearGradient id="paint21_linear_5044_39888" x1="6.79855" y1="13.2665" x2="5.843" y2="13.2665" gradientUnits="userSpaceOnUse">
<stop stop-color="#314DC9" stop-opacity="0"/>
<stop offset="0.2761" stop-color="#304BC4" stop-opacity="0.276"/>
<stop offset="0.5628" stop-color="#2B45B8" stop-opacity="0.563"/>
<stop offset="0.8535" stop-color="#243BA3" stop-opacity="0.854"/>
<stop offset="1" stop-color="#1F3596"/>
</linearGradient>
<linearGradient id="paint22_linear_5044_39888" x1="10.0181" y1="12.5307" x2="12.0226" y2="14.5352" gradientUnits="userSpaceOnUse">
<stop stop-color="#B3DAFE"/>
<stop offset="1" stop-color="#0182FC"/>
</linearGradient>
<linearGradient id="paint23_linear_5044_39888" x1="10.7539" y1="12.6565" x2="10.7539" y2="11.7327" gradientUnits="userSpaceOnUse">
<stop stop-color="#314DC9" stop-opacity="0"/>
<stop offset="0.2761" stop-color="#304BC4" stop-opacity="0.276"/>
<stop offset="0.5628" stop-color="#2B45B8" stop-opacity="0.563"/>
<stop offset="0.8535" stop-color="#243BA3" stop-opacity="0.854"/>
<stop offset="1" stop-color="#1F3596"/>
</linearGradient>
<linearGradient id="paint24_linear_5044_39888" x1="10.3025" y1="13.2665" x2="9.34691" y2="13.2665" gradientUnits="userSpaceOnUse">
<stop stop-color="#314DC9" stop-opacity="0"/>
<stop offset="0.2761" stop-color="#304BC4" stop-opacity="0.276"/>
<stop offset="0.5628" stop-color="#2B45B8" stop-opacity="0.563"/>
<stop offset="0.8535" stop-color="#243BA3" stop-opacity="0.854"/>
<stop offset="1" stop-color="#1F3596"/>
</linearGradient>
<clipPath id="clip0_5044_39888">
<rect width="18" height="18" fill="white" transform="translate(0 0.5)"/>
</clipPath>
</defs>
</svg>
