<svg width="40" height="41" viewBox="0 0 40 41" fill="none" xmlns="http://www.w3.org/2000/svg">
<g clip-path="url(#clip0_1237_49762)">
<g clip-path="url(#clip1_1237_49762)">
<path d="M31.1016 26.0312C31.0469 26.0312 30.9922 26.0312 30.9375 26.0312C26.0312 26.0156 22.0469 22.0391 22.0391 17.1328C22.0391 17.0781 22.0391 17.0234 22.0391 16.9688C22.0469 12.0625 26.0312 8.07812 30.9375 8.07031H31.1016C36.0078 8.07812 39.9844 12.0625 40 16.9688V17.1328C39.9844 22.0391 36.0078 26.0234 31.1016 26.0312Z" fill="url(#paint0_linear_1237_49762)"/>
<path d="M40 17.1328C40 17.0781 40 17.0234 40 16.9687C40 16.1641 39.8906 15.3906 39.6875 14.6484H22.3516C22.1484 15.3906 22.0391 16.1641 22.0391 16.9687V17.1328C22.0547 22.0391 26.0312 26.0234 30.9375 26.0312H31.1016C36.0078 26.0234 39.9844 22.0391 40 17.1328Z" fill="url(#paint1_linear_1237_49762)"/>
<path d="M40 17.1328C40 17.0781 40 17.0234 40 16.9688C39.9922 13.6328 38.1484 10.7266 35.4297 9.20312L23.1719 21.4609C24.6953 24.1797 27.6016 26.0234 30.9375 26.0312H31.1016C36.0078 26.0234 39.9844 22.0391 40 17.1328Z" fill="url(#paint2_linear_1237_49762)"/>
<path d="M28.1408 22.8672C27.9924 22.8672 27.8362 22.8125 27.7112 22.7109C27.4299 22.4766 27.3987 22.0547 27.633 21.7734C28.5315 20.7109 29.7346 20.125 31.0158 20.125C32.2971 20.125 33.5002 20.7109 34.3987 21.7734C34.633 22.0547 34.6018 22.4766 34.3205 22.7109C34.0393 22.9453 33.6174 22.9141 33.383 22.6328C32.7424 21.875 31.8987 21.4531 31.0158 21.4531C30.133 21.4531 29.2893 21.875 28.6487 22.6328C28.5237 22.7891 28.3283 22.8672 28.1408 22.8672Z" fill="url(#paint3_linear_1237_49762)"/>
<path d="M27.0074 17.6563C27.6402 17.6563 28.2418 17.4766 28.7808 17.1407C29.0699 16.961 29.1168 16.5625 28.8746 16.3204C28.7027 16.1485 28.4293 16.1172 28.2261 16.2422C27.8511 16.4766 27.4371 16.6016 27.0074 16.6016C26.5777 16.6016 26.1636 16.4766 25.7886 16.2422C25.5855 16.1094 25.3121 16.1485 25.1402 16.3204C24.898 16.5625 24.9449 16.961 25.2339 17.1407C25.773 17.4766 26.3746 17.6563 27.0074 17.6563Z" fill="url(#paint4_linear_1237_49762)"/>
<path d="M35.0308 17.6563C35.6636 17.6563 36.2652 17.4766 36.8043 17.1407C37.0933 16.961 37.1402 16.5625 36.898 16.3204C36.7261 16.1485 36.4527 16.1172 36.2496 16.2422C35.8746 16.4766 35.4605 16.6016 35.0308 16.6016C34.6011 16.6016 34.1871 16.4766 33.8121 16.2422C33.6089 16.1094 33.3355 16.1485 33.1636 16.3204C32.9214 16.5625 32.9683 16.961 33.2574 17.1407C33.7964 17.4766 34.398 17.6563 35.0308 17.6563Z" fill="url(#paint5_linear_1237_49762)"/>
<path d="M9.0625 21.8984C9.00781 21.8984 8.95312 21.8984 8.89844 21.8984C3.99219 21.8828 0.015625 17.9062 0 12.9922C0 12.9375 0 12.8828 0 12.8281C0.015625 7.92969 3.99219 3.94531 8.89844 3.9375H9.0625C13.9688 3.95312 17.9531 7.92969 17.9609 12.8359V13C17.9531 17.9062 13.9688 21.8828 9.0625 21.8984Z" fill="url(#paint6_linear_1237_49762)"/>
<path d="M17.9609 12.9922C17.9609 12.9375 17.9609 12.8828 17.9609 12.8281C17.9609 12.0234 17.8516 11.25 17.6484 10.5078H0.3125C0.109375 11.25 0 12.0234 0 12.8281V12.9922C0.015625 17.8984 3.99219 21.8828 8.89844 21.8906H9.0625C13.9688 21.8828 17.9531 17.9062 17.9609 12.9922Z" fill="url(#paint7_linear_1237_49762)"/>
<path d="M9.0625 3.9375C9.00781 3.9375 8.95313 3.9375 8.89844 3.9375C8.09375 3.9375 7.32031 4.04688 6.57812 4.25V21.5859C7.32031 21.7891 8.09375 21.8984 8.89844 21.8984H9.0625C13.9688 21.8828 17.9531 17.9062 17.9609 13C17.9609 12.9453 17.9609 12.8906 17.9609 12.8359C17.9531 7.92969 13.9688 3.94531 9.0625 3.9375Z" fill="url(#paint8_linear_1237_49762)"/>
<path d="M17.9609 12.9922C17.9609 12.9375 17.9609 12.8828 17.9609 12.8281C17.9531 9.49219 16.1094 6.58594 13.3906 5.0625L1.13281 17.3281C2.65625 20.0469 5.5625 21.8906 8.89844 21.8984H9.0625C13.9688 21.8828 17.9531 17.9062 17.9609 12.9922Z" fill="url(#paint9_linear_1237_49762)"/>
<path d="M6.10959 15.9844C5.96116 15.9844 5.80491 16.039 5.67991 16.1406C5.39866 16.375 5.36741 16.7969 5.60178 17.0781C6.50022 18.1406 7.70334 18.7265 8.98459 18.7265C10.2658 18.7265 11.469 18.1406 12.3674 17.0781C12.6018 16.7969 12.5705 16.375 12.2893 16.1406C12.008 15.9062 11.5862 15.9375 11.3518 16.2187C10.7112 16.9765 9.86741 17.3984 8.98459 17.3984C8.10178 17.3984 7.25803 16.9765 6.61741 16.2187C6.48459 16.0625 6.29709 15.9844 6.10959 15.9844Z" fill="url(#paint10_linear_1237_49762)"/>
<path d="M5.10938 11.0078C6.04688 11.0078 6.8125 11.7656 6.8125 12.7109V13.6328C6.8125 14.5703 6.05469 15.3359 5.10938 15.3359C4.17188 15.3359 3.40625 14.5781 3.40625 13.6328V12.7109C3.40625 11.7734 4.16406 11.0078 5.10938 11.0078Z" fill="url(#paint11_linear_1237_49762)"/>
<path d="M12.8594 11.0078C13.7969 11.0078 14.5625 11.7656 14.5625 12.7109V13.6328C14.5625 14.5703 13.8047 15.3359 12.8594 15.3359C11.9219 15.3359 11.1562 14.5781 11.1562 13.6328V12.7109C11.1562 11.7734 11.9219 11.0078 12.8594 11.0078Z" fill="url(#paint12_linear_1237_49762)"/>
<path d="M2.03309 19.5703L38.9628 26.75C39.6581 26.8828 40.119 27.5625 39.9784 28.2578L39.4862 30.7969C39.3534 31.4922 38.6737 31.9531 37.9784 31.8125L1.0409 24.6406C0.345588 24.5078 -0.11535 23.8281 0.0252752 23.1328L0.517463 20.5937C0.658088 19.8906 1.32996 19.4297 2.03309 19.5703Z" fill="url(#paint13_linear_1237_49762)"/>
<path d="M2.03309 19.5703L38.9628 26.75C39.6581 26.8828 40.119 27.5625 39.9784 28.2578L39.4862 30.7969C39.3534 31.4922 38.6737 31.9531 37.9784 31.8125L1.0409 24.6406C0.345588 24.5078 -0.11535 23.8281 0.0252752 23.1328L0.517463 20.5937C0.658088 19.8906 1.32996 19.4297 2.03309 19.5703Z" fill="url(#paint14_linear_1237_49762)"/>
<path d="M38.9609 26.75L31.9219 25.3828L30.9375 30.4531L37.9766 31.8203C38.6719 31.9531 39.3516 31.5 39.4844 30.8047L39.9766 28.2656C40.1094 27.5625 39.6563 26.8828 38.9609 26.75Z" fill="url(#paint15_linear_1237_49762)"/>
<path d="M26.5156 29.5937L21.3047 24.3828H20.1172V28.3437L26.5156 29.5937Z" fill="url(#paint16_linear_1237_49762)"/>
<path d="M28.8756 35.4297C26.6256 31.5547 23.6647 28.1484 20.6959 25.7344C20.2897 25.4062 19.7116 25.4062 19.3053 25.7344C16.3366 28.1562 13.3756 31.5547 11.1256 35.4297C10.7037 36.1563 11.2272 37.0703 12.0709 37.0703H27.9381C28.7741 37.0625 29.2975 36.1563 28.8756 35.4297Z" fill="url(#paint17_linear_1237_49762)"/>
<path d="M20.6953 25.7266C20.2891 25.3984 19.7109 25.3984 19.3047 25.7266C18.6719 26.2422 18.0391 26.8047 17.4141 27.3984V37.0625H27.9297C28.7734 37.0625 29.2969 36.1484 28.875 35.4219C26.625 31.5469 23.6641 28.1484 20.6953 25.7266Z" fill="url(#paint18_linear_1237_49762)"/>
<path d="M28.5781 36.8594C29 36.5469 29.1797 35.9453 28.875 35.4297C26.625 31.5547 23.6641 28.1484 20.6953 25.7344C20.5469 25.6094 20.375 25.5391 20.1953 25.5078L18.7109 26.9922L28.5781 36.8594Z" fill="url(#paint19_linear_1237_49762)"/>
<path d="M27.9303 37.0703H12.0709C11.2272 37.0703 10.7037 36.1563 11.1256 35.4297C11.9772 33.9688 12.9225 32.5781 13.9381 31.2734H26.0709C27.0866 32.5703 28.0319 33.9688 28.8834 35.4297C29.3053 36.1563 28.7741 37.0703 27.9303 37.0703Z" fill="url(#paint20_linear_1237_49762)"/>
<path d="M20.0156 27.5156C20.0078 27.5156 19.9922 27.5156 19.9844 27.5156C18.9844 27.5156 18.1719 26.7031 18.1641 25.6953C18.1641 25.6875 18.1641 25.6719 18.1641 25.6641C18.1641 24.6641 18.9766 23.8516 19.9844 23.8438H20.0156C21.0156 23.8438 21.8281 24.6563 21.8359 25.6641V25.6953C21.8359 26.6953 21.0156 27.5078 20.0156 27.5156Z" fill="url(#paint21_linear_1237_49762)"/>
<path d="M21.8359 25.6953C21.8359 25.6875 21.8359 25.6719 21.8359 25.6641C21.8359 25.5 21.8125 25.3438 21.7734 25.1875H18.2344C18.1953 25.3359 18.1719 25.5 18.1719 25.6641V25.6953C18.1719 26.6953 18.9844 27.5078 19.9922 27.5156H20.0234C21.0156 27.5078 21.8359 26.6953 21.8359 25.6953Z" fill="url(#paint22_linear_1237_49762)"/>
<path d="M20.0156 23.8438C20.0078 23.8438 19.9922 23.8438 19.9844 23.8438C19.8203 23.8438 19.6641 23.8672 19.5078 23.9063V27.4453C19.6562 27.4844 19.8203 27.5078 19.9844 27.5078H20.0156C21.0156 27.5078 21.8281 26.6953 21.8359 25.6875C21.8359 25.6797 21.8359 25.6641 21.8359 25.6563C21.8359 24.6563 21.0156 23.8438 20.0156 23.8438Z" fill="url(#paint23_linear_1237_49762)"/>
<path d="M21.8359 25.6953C21.8359 25.6875 21.8359 25.6719 21.8359 25.6641C21.8359 24.9844 21.4609 24.3906 20.8984 24.0781L18.3906 26.5859C18.7031 27.1406 19.2969 27.5156 19.9766 27.5234H20.0078C21.0156 27.5078 21.8359 26.6953 21.8359 25.6953Z" fill="url(#paint24_linear_1237_49762)"/>
</g>
</g>
<defs>
<linearGradient id="paint0_linear_1237_49762" x1="24.6802" y1="10.7141" x2="37.4142" y2="23.4482" gradientUnits="userSpaceOnUse">
<stop stop-color="#8AC9FE"/>
<stop offset="0.1658" stop-color="#85C6FD"/>
<stop offset="0.3377" stop-color="#79C0FD"/>
<stop offset="0.5124" stop-color="#64B5FD"/>
<stop offset="0.6889" stop-color="#47A6FD"/>
<stop offset="0.8653" stop-color="#2293FC"/>
<stop offset="1" stop-color="#0182FC"/>
</linearGradient>
<linearGradient id="paint1_linear_1237_49762" x1="31.0179" y1="21.1113" x2="31.0179" y2="27.4358" gradientUnits="userSpaceOnUse">
<stop stop-color="#0172FB" stop-opacity="0"/>
<stop offset="0.1214" stop-color="#0172FB" stop-opacity="0.017"/>
<stop offset="0.2474" stop-color="#0172FB" stop-opacity="0.066"/>
<stop offset="0.3754" stop-color="#0172FB" stop-opacity="0.149"/>
<stop offset="0.5049" stop-color="#0172FB" stop-opacity="0.265"/>
<stop offset="0.6355" stop-color="#0172FB" stop-opacity="0.414"/>
<stop offset="0.7672" stop-color="#0172FB" stop-opacity="0.598"/>
<stop offset="0.897" stop-color="#0172FB" stop-opacity="0.81"/>
<stop offset="1" stop-color="#0172FB"/>
</linearGradient>
<linearGradient id="paint2_linear_1237_49762" x1="34.7598" y1="20.7937" x2="39.8277" y2="25.8616" gradientUnits="userSpaceOnUse">
<stop stop-color="white" stop-opacity="0"/>
<stop offset="0.1205" stop-color="white" stop-opacity="0.016"/>
<stop offset="0.2454" stop-color="white" stop-opacity="0.065"/>
<stop offset="0.3724" stop-color="white" stop-opacity="0.147"/>
<stop offset="0.5008" stop-color="white" stop-opacity="0.261"/>
<stop offset="0.6304" stop-color="white" stop-opacity="0.408"/>
<stop offset="0.761" stop-color="white" stop-opacity="0.588"/>
<stop offset="0.8898" stop-color="white" stop-opacity="0.797"/>
<stop offset="1" stop-color="white"/>
</linearGradient>
<linearGradient id="paint3_linear_1237_49762" x1="31.0181" y1="20.1967" x2="31.0181" y2="22.4332" gradientUnits="userSpaceOnUse">
<stop stop-color="#465A61"/>
<stop offset="0.3978" stop-color="#44565C"/>
<stop offset="0.8093" stop-color="#404C50"/>
<stop offset="1" stop-color="#3E4648"/>
</linearGradient>
<linearGradient id="paint4_linear_1237_49762" x1="27.0054" y1="15.6446" x2="27.0054" y2="17.0825" gradientUnits="userSpaceOnUse">
<stop stop-color="#465A61"/>
<stop offset="0.3978" stop-color="#44565C"/>
<stop offset="0.8093" stop-color="#404C50"/>
<stop offset="1" stop-color="#3E4648"/>
</linearGradient>
<linearGradient id="paint5_linear_1237_49762" x1="35.0296" y1="15.6446" x2="35.0296" y2="17.0825" gradientUnits="userSpaceOnUse">
<stop stop-color="#465A61"/>
<stop offset="0.3978" stop-color="#44565C"/>
<stop offset="0.8093" stop-color="#404C50"/>
<stop offset="1" stop-color="#3E4648"/>
</linearGradient>
<linearGradient id="paint6_linear_1237_49762" x1="2.64438" y1="6.57797" x2="15.3784" y2="19.312" gradientUnits="userSpaceOnUse">
<stop stop-color="#FFED86"/>
<stop offset="0.1839" stop-color="#FEEA81"/>
<stop offset="0.3745" stop-color="#FDE175"/>
<stop offset="0.5682" stop-color="#FAD260"/>
<stop offset="0.764" stop-color="#F7BE43"/>
<stop offset="0.9596" stop-color="#F3A41E"/>
<stop offset="1" stop-color="#F29E16"/>
</linearGradient>
<linearGradient id="paint7_linear_1237_49762" x1="8.98211" y1="16.9752" x2="8.98211" y2="23.2996" gradientUnits="userSpaceOnUse">
<stop stop-color="#F29E16" stop-opacity="0"/>
<stop offset="0.1207" stop-color="#F29D16" stop-opacity="0.016"/>
<stop offset="0.2459" stop-color="#F29B18" stop-opacity="0.065"/>
<stop offset="0.3731" stop-color="#F3971B" stop-opacity="0.147"/>
<stop offset="0.5018" stop-color="#F5921E" stop-opacity="0.262"/>
<stop offset="0.6317" stop-color="#F68B23" stop-opacity="0.41"/>
<stop offset="0.7625" stop-color="#F9842A" stop-opacity="0.59"/>
<stop offset="0.8916" stop-color="#FB7A31" stop-opacity="0.8"/>
<stop offset="1" stop-color="#FE7238"/>
</linearGradient>
<linearGradient id="paint8_linear_1237_49762" x1="13.0911" y1="12.9156" x2="20.8902" y2="12.9156" gradientUnits="userSpaceOnUse">
<stop stop-color="#F29E16" stop-opacity="0"/>
<stop offset="0.1207" stop-color="#F29D16" stop-opacity="0.016"/>
<stop offset="0.2459" stop-color="#F29B18" stop-opacity="0.065"/>
<stop offset="0.3731" stop-color="#F3971B" stop-opacity="0.147"/>
<stop offset="0.5018" stop-color="#F5921E" stop-opacity="0.262"/>
<stop offset="0.6317" stop-color="#F68B23" stop-opacity="0.41"/>
<stop offset="0.7625" stop-color="#F9842A" stop-opacity="0.59"/>
<stop offset="0.8916" stop-color="#FB7A31" stop-opacity="0.8"/>
<stop offset="1" stop-color="#FE7238"/>
</linearGradient>
<linearGradient id="paint9_linear_1237_49762" x1="12.2159" y1="16.1494" x2="17.2837" y2="21.2173" gradientUnits="userSpaceOnUse">
<stop stop-color="#F5FBFF" stop-opacity="0"/>
<stop offset="0.1205" stop-color="#F5FBFF" stop-opacity="0.016"/>
<stop offset="0.2454" stop-color="#F5FBFF" stop-opacity="0.065"/>
<stop offset="0.3724" stop-color="#F5FBFF" stop-opacity="0.147"/>
<stop offset="0.5008" stop-color="#F5FBFF" stop-opacity="0.261"/>
<stop offset="0.6304" stop-color="#F5FBFF" stop-opacity="0.408"/>
<stop offset="0.761" stop-color="#F5FBFF" stop-opacity="0.588"/>
<stop offset="0.8898" stop-color="#F5FBFF" stop-opacity="0.797"/>
<stop offset="1" stop-color="#F5FBFF"/>
</linearGradient>
<linearGradient id="paint10_linear_1237_49762" x1="8.98233" y1="16.3998" x2="8.98233" y2="18.5268" gradientUnits="userSpaceOnUse">
<stop stop-color="#465A61"/>
<stop offset="0.3978" stop-color="#44565C"/>
<stop offset="0.8093" stop-color="#404C50"/>
<stop offset="1" stop-color="#3E4648"/>
</linearGradient>
<linearGradient id="paint11_linear_1237_49762" x1="5.10617" y1="11.663" x2="5.10617" y2="15.014" gradientUnits="userSpaceOnUse">
<stop stop-color="#465A61"/>
<stop offset="0.3978" stop-color="#44565C"/>
<stop offset="0.8093" stop-color="#404C50"/>
<stop offset="1" stop-color="#3E4648"/>
</linearGradient>
<linearGradient id="paint12_linear_1237_49762" x1="12.858" y1="11.663" x2="12.858" y2="15.014" gradientUnits="userSpaceOnUse">
<stop stop-color="#465A61"/>
<stop offset="0.3978" stop-color="#44565C"/>
<stop offset="0.8093" stop-color="#404C50"/>
<stop offset="1" stop-color="#3E4648"/>
</linearGradient>
<linearGradient id="paint13_linear_1237_49762" x1="20.5292" y1="23.0379" x2="19.5304" y2="28.1731" gradientUnits="userSpaceOnUse">
<stop stop-color="#FE99A0"/>
<stop offset="0.2132" stop-color="#FE949D"/>
<stop offset="0.4342" stop-color="#FE8894"/>
<stop offset="0.6587" stop-color="#FE7385"/>
<stop offset="0.8843" stop-color="#FE5671"/>
<stop offset="1" stop-color="#FF4565"/>
</linearGradient>
<linearGradient id="paint14_linear_1237_49762" x1="19.8923" y1="26.232" x2="19.4468" y2="28.4226" gradientUnits="userSpaceOnUse">
<stop stop-color="#FF4565" stop-opacity="0"/>
<stop offset="0.1276" stop-color="#FE4463" stop-opacity="0.018"/>
<stop offset="0.2599" stop-color="#FD4260" stop-opacity="0.073"/>
<stop offset="0.3944" stop-color="#FA3E5B" stop-opacity="0.164"/>
<stop offset="0.5304" stop-color="#F73954" stop-opacity="0.292"/>
<stop offset="0.6676" stop-color="#F2334B" stop-opacity="0.456"/>
<stop offset="0.8059" stop-color="#ED2C40" stop-opacity="0.657"/>
<stop offset="0.9424" stop-color="#E62333" stop-opacity="0.891"/>
<stop offset="1" stop-color="#E41F2D"/>
</linearGradient>
<linearGradient id="paint15_linear_1237_49762" x1="36.6952" y1="28.937" x2="40.139" y2="29.6068" gradientUnits="userSpaceOnUse">
<stop stop-color="#FF4565" stop-opacity="0"/>
<stop offset="0.1276" stop-color="#FE4463" stop-opacity="0.018"/>
<stop offset="0.2599" stop-color="#FD4260" stop-opacity="0.073"/>
<stop offset="0.3944" stop-color="#FA3E5B" stop-opacity="0.164"/>
<stop offset="0.5304" stop-color="#F73954" stop-opacity="0.292"/>
<stop offset="0.6676" stop-color="#F2334B" stop-opacity="0.456"/>
<stop offset="0.8059" stop-color="#ED2C40" stop-opacity="0.657"/>
<stop offset="0.9424" stop-color="#E62333" stop-opacity="0.891"/>
<stop offset="1" stop-color="#E41F2D"/>
</linearGradient>
<linearGradient id="paint16_linear_1237_49762" x1="24.4473" y1="26.608" x2="21.1057" y2="27.7218" gradientUnits="userSpaceOnUse">
<stop stop-color="#FF4565" stop-opacity="0"/>
<stop offset="0.1276" stop-color="#FE4463" stop-opacity="0.018"/>
<stop offset="0.2599" stop-color="#FD4260" stop-opacity="0.073"/>
<stop offset="0.3944" stop-color="#FA3E5B" stop-opacity="0.164"/>
<stop offset="0.5304" stop-color="#F73954" stop-opacity="0.292"/>
<stop offset="0.6676" stop-color="#F2334B" stop-opacity="0.456"/>
<stop offset="0.8059" stop-color="#ED2C40" stop-opacity="0.657"/>
<stop offset="0.9424" stop-color="#E62333" stop-opacity="0.891"/>
<stop offset="1" stop-color="#E41F2D"/>
</linearGradient>
<linearGradient id="paint17_linear_1237_49762" x1="15.3468" y1="30.4763" x2="23.9172" y2="39.0468" gradientUnits="userSpaceOnUse">
<stop stop-color="#FF4565"/>
<stop offset="0.2378" stop-color="#FB4063"/>
<stop offset="0.4841" stop-color="#EF345D"/>
<stop offset="0.7343" stop-color="#DC1F55"/>
<stop offset="0.9859" stop-color="#C10248"/>
<stop offset="1" stop-color="#C00148"/>
</linearGradient>
<linearGradient id="paint18_linear_1237_49762" x1="23.2877" y1="31.8075" x2="25.3761" y2="30.1645" gradientUnits="userSpaceOnUse">
<stop stop-color="#C41926" stop-opacity="0"/>
<stop offset="0.1865" stop-color="#C01926" stop-opacity="0.038"/>
<stop offset="0.3798" stop-color="#B61C26" stop-opacity="0.152"/>
<stop offset="0.5761" stop-color="#A62126" stop-opacity="0.343"/>
<stop offset="0.7747" stop-color="#8F2826" stop-opacity="0.609"/>
<stop offset="0.9732" stop-color="#713126" stop-opacity="0.949"/>
<stop offset="1" stop-color="#6D3326"/>
</linearGradient>
<linearGradient id="paint19_linear_1237_49762" x1="22.6065" y1="28.6636" x2="21.2698" y2="25.8047" gradientUnits="userSpaceOnUse">
<stop stop-color="#C41926" stop-opacity="0"/>
<stop offset="0.1865" stop-color="#C01926" stop-opacity="0.038"/>
<stop offset="0.3798" stop-color="#B61C26" stop-opacity="0.152"/>
<stop offset="0.5761" stop-color="#A62126" stop-opacity="0.343"/>
<stop offset="0.7747" stop-color="#8F2826" stop-opacity="0.609"/>
<stop offset="0.9732" stop-color="#713126" stop-opacity="0.949"/>
<stop offset="1" stop-color="#6D3326"/>
</linearGradient>
<linearGradient id="paint20_linear_1237_49762" x1="20.0006" y1="34.1363" x2="20.0006" y2="37.2373" gradientUnits="userSpaceOnUse">
<stop stop-color="#C41926" stop-opacity="0"/>
<stop offset="0.1865" stop-color="#C01926" stop-opacity="0.038"/>
<stop offset="0.3798" stop-color="#B61C26" stop-opacity="0.152"/>
<stop offset="0.5761" stop-color="#A62126" stop-opacity="0.343"/>
<stop offset="0.7747" stop-color="#8F2826" stop-opacity="0.609"/>
<stop offset="0.9732" stop-color="#713126" stop-opacity="0.949"/>
<stop offset="1" stop-color="#6D3326"/>
</linearGradient>
<linearGradient id="paint21_linear_1237_49762" x1="18.7051" y1="24.382" x2="21.307" y2="26.9839" gradientUnits="userSpaceOnUse">
<stop stop-color="#C2FAE3"/>
<stop offset="0.1386" stop-color="#BDF9E1"/>
<stop offset="0.2824" stop-color="#B1F9DD"/>
<stop offset="0.4285" stop-color="#9CF8D7"/>
<stop offset="0.5763" stop-color="#7FF7CE"/>
<stop offset="0.7253" stop-color="#5AF5C2"/>
<stop offset="0.8732" stop-color="#2CF3B4"/>
<stop offset="1" stop-color="#00F2A6"/>
</linearGradient>
<linearGradient id="paint22_linear_1237_49762" x1="20" y1="26.5064" x2="20" y2="27.7987" gradientUnits="userSpaceOnUse">
<stop stop-color="#07B27B" stop-opacity="0"/>
<stop offset="0.1449" stop-color="#07B27B" stop-opacity="0.023"/>
<stop offset="0.2951" stop-color="#07B27B" stop-opacity="0.093"/>
<stop offset="0.4478" stop-color="#07B27B" stop-opacity="0.21"/>
<stop offset="0.6022" stop-color="#07B27B" stop-opacity="0.373"/>
<stop offset="0.758" stop-color="#07B27B" stop-opacity="0.584"/>
<stop offset="0.9127" stop-color="#07B27B" stop-opacity="0.837"/>
<stop offset="1" stop-color="#07B27B"/>
</linearGradient>
<linearGradient id="paint23_linear_1237_49762" x1="20.8395" y1="25.677" x2="22.4331" y2="25.677" gradientUnits="userSpaceOnUse">
<stop stop-color="#07B27B" stop-opacity="0"/>
<stop offset="0.1449" stop-color="#07B27B" stop-opacity="0.023"/>
<stop offset="0.2951" stop-color="#07B27B" stop-opacity="0.093"/>
<stop offset="0.4478" stop-color="#07B27B" stop-opacity="0.21"/>
<stop offset="0.6022" stop-color="#07B27B" stop-opacity="0.373"/>
<stop offset="0.758" stop-color="#07B27B" stop-opacity="0.584"/>
<stop offset="0.9127" stop-color="#07B27B" stop-opacity="0.837"/>
<stop offset="1" stop-color="#07B27B"/>
</linearGradient>
<linearGradient id="paint24_linear_1237_49762" x1="20.6607" y1="26.3377" x2="21.6963" y2="27.3732" gradientUnits="userSpaceOnUse">
<stop stop-color="#C2FAE3" stop-opacity="0"/>
<stop offset="0.1217" stop-color="#C2FAE3" stop-opacity="0.017"/>
<stop offset="0.2479" stop-color="#C2FAE3" stop-opacity="0.067"/>
<stop offset="0.3762" stop-color="#C2FAE3" stop-opacity="0.15"/>
<stop offset="0.5059" stop-color="#C2FAE3" stop-opacity="0.266"/>
<stop offset="0.6368" stop-color="#C2FAE3" stop-opacity="0.416"/>
<stop offset="0.7687" stop-color="#C2FAE3" stop-opacity="0.6"/>
<stop offset="0.8988" stop-color="#C2FAE3" stop-opacity="0.813"/>
<stop offset="1" stop-color="#C2FAE3"/>
</linearGradient>
<clipPath id="clip0_1237_49762">
<rect width="40" height="40" fill="white" transform="translate(0 0.5)"/>
</clipPath>
<clipPath id="clip1_1237_49762">
<rect width="40" height="40" fill="white" transform="translate(0 0.5)"/>
</clipPath>
</defs>
</svg>
