<svg width="18" height="19" viewBox="0 0 18 19" fill="none" xmlns="http://www.w3.org/2000/svg">
<path d="M10.8712 15.7719H7.13056C7.06376 15.7719 7.00048 15.8105 6.96532 15.8703L5.67509 18.2222C5.60829 18.3453 5.69618 18.5 5.84032 18.5H12.1579C12.2985 18.5 12.3899 18.3488 12.3231 18.2222L11.0329 15.8703C11.0013 15.8105 10.938 15.7719 10.8712 15.7719Z" fill="url(#paint0_linear_5044_62268)"/>
<path d="M10.8712 15.7719H7.13056C7.06376 15.7719 7.00048 15.8105 6.96532 15.8703L5.67509 18.2222C5.60829 18.3453 5.69618 18.5 5.84032 18.5H12.1579C12.2985 18.5 12.3899 18.3488 12.3231 18.2222L11.0329 15.8703C11.0013 15.8105 10.938 15.7719 10.8712 15.7719Z" fill="url(#paint1_linear_5044_62268)"/>
<path d="M10.8712 15.7719H7.13056C7.06376 15.7719 7.00048 15.8105 6.96532 15.8703L5.67509 18.2222C5.60829 18.3453 5.69618 18.5 5.84032 18.5H12.1579C12.2985 18.5 12.3899 18.3488 12.3231 18.2222L11.0329 15.8703C11.0013 15.8105 10.938 15.7719 10.8712 15.7719Z" fill="url(#paint2_linear_5044_62268)"/>
<path d="M7.17617 10.7691C6.79297 10.7691 6.41328 10.632 6.10742 10.3613L4.78906 9.19764L5.83672 8.01288L7.15508 9.17655C7.16563 9.1871 7.1832 9.1871 7.19727 9.18007L8.14297 8.51561C8.50156 8.266 8.99375 8.35038 9.24336 8.70897C9.49297 9.06757 9.40859 9.55975 9.05 9.80936L8.1043 10.4738C7.82305 10.6707 7.49961 10.7691 7.17617 10.7691Z" fill="url(#paint3_linear_5044_62268)"/>
<path d="M7.17617 10.7691C6.79297 10.7691 6.41328 10.632 6.10742 10.3613L4.78906 9.19764L5.83672 8.01288L7.15508 9.17655C7.16563 9.1871 7.1832 9.1871 7.19727 9.18007L8.14297 8.51561C8.50156 8.266 8.99375 8.35038 9.24336 8.70897C9.49297 9.06757 9.40859 9.55975 9.05 9.80936L8.1043 10.4738C7.82305 10.6707 7.49961 10.7691 7.17617 10.7691Z" fill="url(#paint4_linear_5044_62268)"/>
<path d="M7.17617 10.7691C6.79297 10.7691 6.41328 10.632 6.10742 10.3613L4.78906 9.19764L5.83672 8.01288L7.15508 9.17655C7.16563 9.1871 7.1832 9.1871 7.19727 9.18007L8.14297 8.51561C8.50156 8.266 8.99375 8.35038 9.24336 8.70897C9.49297 9.06757 9.40859 9.55975 9.05 9.80936L8.1043 10.4738C7.82305 10.6707 7.49961 10.7691 7.17617 10.7691Z" fill="url(#paint5_linear_5044_62268)"/>
<path d="M9.17119 10.0309L8.62979 10.4105C8.57002 10.4527 8.48916 10.4387 8.44697 10.3789L7.39932 8.88828C7.35713 8.82852 7.37119 8.74766 7.43096 8.70547L8.82315 7.72461L9.42432 8.57891C9.75479 9.05 9.64229 9.70039 9.17119 10.0309Z" fill="url(#paint6_linear_5044_62268)"/>
<path d="M9.17119 10.0309L8.62979 10.4105C8.57002 10.4527 8.48916 10.4387 8.44697 10.3789L7.39932 8.88828C7.35713 8.82852 7.37119 8.74766 7.43096 8.70547L8.82315 7.72461L9.42432 8.57891C9.75479 9.05 9.64229 9.70039 9.17119 10.0309Z" fill="url(#paint7_linear_5044_62268)"/>
<path d="M14.7102 9.83752V14.2742H8.23438V9.27502C8.23438 7.97424 9.19063 6.87034 10.4773 6.67698C10.7973 6.62776 11.1312 6.60315 11.4723 6.60315H11.5109C13.2828 6.6137 14.7102 8.06565 14.7102 9.83752Z" fill="url(#paint8_linear_5044_62268)"/>
<path d="M12.6152 10.4352V7.54883H8.88867C8.48086 8.01289 8.23828 8.62109 8.23828 9.27852V10.4352H12.6152Z" fill="url(#paint9_linear_5044_62268)"/>
<path d="M11.5137 6.60663C11.4996 6.60663 11.4891 6.60663 11.475 6.60663C11.1937 6.60663 10.9195 6.62421 10.6523 6.65585V14.2742H14.7129V9.83749C14.7129 8.06561 13.2855 6.61366 11.5137 6.60663Z" fill="url(#paint10_linear_5044_62268)"/>
<path d="M13.4375 9.0957L11.859 10.6742H8.23438V14.2742H14.7102V10.3684L13.4375 9.0957Z" fill="url(#paint11_linear_5044_62268)"/>
<path d="M11.4749 6.70154H10.044C10.044 6.70154 9.81201 8.67732 11.0776 8.67732C12.3433 8.67732 12.9058 6.70154 12.9058 6.70154H11.4749Z" fill="url(#paint12_linear_5044_62268)"/>
<path d="M11.4749 6.70154H10.044C10.044 6.70154 9.81201 8.67732 11.0776 8.67732C12.3433 8.67732 12.9058 6.70154 12.9058 6.70154H11.4749Z" fill="url(#paint13_linear_5044_62268)"/>
<path d="M11.4749 6.70154H10.044C10.044 6.70154 9.81201 8.67732 11.0776 8.67732C12.3433 8.67732 12.9058 6.70154 12.9058 6.70154H11.4749Z" fill="url(#paint14_linear_5044_62268)"/>
<path d="M14.2312 4.93669C14.2312 5.38669 13.8656 5.75232 13.4156 5.75232C12.9656 5.75232 12.9656 4.11755 13.4156 4.11755C13.8656 4.11755 14.2312 4.48669 14.2312 4.93669Z" fill="url(#paint15_linear_5044_62268)"/>
<path d="M11.1012 1.55115C12.4441 1.55115 13.5305 2.63748 13.5305 3.98044V5.22146C13.5305 6.56443 12.4441 7.65076 11.1012 7.65076C9.75821 7.65076 8.67188 6.56443 8.67188 5.22146V3.98044C8.66837 2.63748 9.75821 1.55115 11.1012 1.55115Z" fill="url(#paint16_linear_5044_62268)"/>
<path d="M8.66797 4.85938V5.22148C8.66797 6.56445 9.7543 7.65078 11.0973 7.65078C12.4402 7.65078 13.5266 6.56445 13.5266 5.22148V4.85938H8.66797Z" fill="url(#paint17_linear_5044_62268)"/>
<path d="M11.1004 1.55115C11.0266 1.55115 10.9527 1.55466 10.8789 1.56169V7.64373C10.9527 7.65076 11.0266 7.65427 11.1004 7.65427C12.4434 7.65427 13.5297 6.56794 13.5297 5.22498V3.98044C13.5297 2.63748 12.4398 1.55115 11.1004 1.55115Z" fill="url(#paint18_linear_5044_62268)"/>
<path d="M10.6586 6.25154H10.4653C10.2192 6.25154 10.0293 6.03709 10.0575 5.79451L10.1594 4.90857H10.968L11.07 5.79451C11.0946 6.03709 10.9047 6.25154 10.6586 6.25154Z" fill="url(#paint19_linear_5044_62268)"/>
<path d="M10.6586 6.25154H10.4653C10.2192 6.25154 10.0293 6.03709 10.0575 5.79451L10.1594 4.90857H10.968L11.07 5.79451C11.0946 6.03709 10.9047 6.25154 10.6586 6.25154Z" fill="url(#paint20_linear_5044_62268)"/>
<path d="M10.6586 6.25154H10.4653C10.2192 6.25154 10.0293 6.03709 10.0575 5.79451L10.1594 4.90857H10.968L11.07 5.79451C11.0946 6.03709 10.9047 6.25154 10.6586 6.25154Z" fill="url(#paint21_linear_5044_62268)"/>
<path d="M9.45859 4.38123C9.70117 4.38123 9.90156 4.5781 9.90156 4.82419V5.04919C9.90156 5.29177 9.70469 5.49216 9.45859 5.49216C9.21602 5.49216 9.01562 5.29529 9.01562 5.04919V4.82419C9.01562 4.58162 9.21602 4.38123 9.45859 4.38123Z" fill="url(#paint22_linear_5044_62268)"/>
<path d="M11.6578 4.38123C11.9004 4.38123 12.1008 4.5781 12.1008 4.82419V5.04919C12.1008 5.29177 11.9039 5.49216 11.6578 5.49216C11.4152 5.49216 11.2148 5.29529 11.2148 5.04919V4.82419C11.2148 4.58162 11.4152 4.38123 11.6578 4.38123Z" fill="url(#paint23_linear_5044_62268)"/>
<path d="M18.0004 17.5614V17.5719C17.9969 18.0887 17.568 18.5 17.0512 18.5H16.1828L12.8817 16.1903C12.4949 15.8036 11.9676 15.5856 11.4227 15.5856H8.34651C7.15823 15.5856 6.04729 15.002 5.36877 14.0246L3.94846 11.9715C3.45979 11.2649 3.63557 10.2981 4.34221 9.80941C4.61291 9.62308 4.91877 9.53168 5.22463 9.53168C5.71682 9.53168 6.20198 9.76371 6.50432 10.1996L7.92463 12.2528C8.01955 12.3899 8.17776 12.4743 8.34651 12.4743H12.066C12.6672 12.4743 13.2473 12.6219 13.7641 12.8961C14.077 13.0614 14.3653 13.2758 14.6219 13.5325L17.5434 16.4539C17.8492 16.7668 18.0004 17.1641 18.0004 17.5614Z" fill="url(#paint24_linear_5044_62268)"/>
<path d="M14.623 13.5395C14.4332 13.3496 14.2293 13.1844 14.0078 13.0438V16.9777L16.1805 18.4965H17.0523C17.5691 18.4965 17.998 18.0852 18.0016 17.5684C18.0016 17.5649 18.0016 17.5613 18.0016 17.5578C18.0016 17.1606 17.8504 16.7633 17.548 16.461L14.623 13.5395Z" fill="url(#paint25_linear_5044_62268)"/>
<path d="M12.9239 12.5832V16.236L12.8781 16.1903C12.4914 15.8036 11.9641 15.5856 11.4192 15.5856H8.34299C7.15471 15.5856 6.04377 15.002 5.36877 14.0246L3.94846 11.9715C3.45979 11.2649 3.63557 10.2981 4.34221 9.80941C4.61291 9.62308 4.91877 9.53168 5.22463 9.53168C5.71682 9.53168 6.20198 9.76371 6.50432 10.1996L7.92463 12.2528C8.01955 12.3899 8.17776 12.4743 8.34651 12.4743H12.066C12.3578 12.4813 12.6461 12.5129 12.9239 12.5832Z" fill="url(#paint26_linear_5044_62268)"/>
<path d="M10.873 14.102C10.873 14.5801 10.4863 14.9668 10.0082 14.9668H6.32031C6.26758 14.9316 6.21484 14.893 6.16211 14.8543L4.18984 12.0031C4.05977 11.8168 4 11.6023 4 11.3914C4 11.0504 4.16172 10.7129 4.46406 10.5055C4.95273 10.168 5.6207 10.291 5.96172 10.7762L7.37148 12.8152C7.5543 13.0789 7.85313 13.2371 8.17656 13.2371H10.0152C10.4863 13.2371 10.873 13.6238 10.873 14.102Z" fill="url(#paint27_linear_5044_62268)"/>
<path d="M10.873 14.102C10.873 14.5801 10.4863 14.9668 10.0082 14.9668H6.32031C6.26758 14.9316 6.21484 14.893 6.16211 14.8543L4.18984 12.0031C4.05977 11.8168 4 11.6023 4 11.3914C4 11.0504 4.16172 10.7129 4.46406 10.5055C4.95273 10.168 5.6207 10.291 5.96172 10.7762L7.37148 12.8152C7.5543 13.0789 7.85313 13.2371 8.17656 13.2371H10.0152C10.4863 13.2371 10.873 13.6238 10.873 14.102Z" fill="url(#paint28_linear_5044_62268)"/>
<path d="M10.873 14.102C10.873 14.5801 10.4863 14.9668 10.0082 14.9668H6.32031C6.26758 14.9316 6.21484 14.893 6.16211 14.8543L4.18984 12.0031C4.05977 11.8168 4 11.6023 4 11.3914C4 11.0504 4.16172 10.7129 4.46406 10.5055C4.95273 10.168 5.6207 10.291 5.96172 10.7762L7.37148 12.8152C7.5543 13.0789 7.85313 13.2371 8.17656 13.2371H10.0152C10.4863 13.2371 10.873 13.6238 10.873 14.102Z" fill="url(#paint29_linear_5044_62268)"/>
<path d="M4.0043 10.3578C5.245 10.3578 6.25078 9.35205 6.25078 8.11135C6.25078 6.87065 5.245 5.86487 4.0043 5.86487C2.7636 5.86487 1.75781 6.87065 1.75781 8.11135C1.75781 9.35205 2.7636 10.3578 4.0043 10.3578Z" fill="url(#paint30_linear_5044_62268)"/>
<path d="M1.75781 8.11138C1.75781 9.35239 2.76328 10.3579 4.0043 10.3579C5.24531 10.3579 6.25078 9.35239 6.25078 8.11138C6.25078 7.94614 6.2332 7.78091 6.19805 7.62622H1.81055C1.77891 7.78442 1.75781 7.94614 1.75781 8.11138Z" fill="url(#paint31_linear_5044_62268)"/>
<path d="M4.0043 5.86487C3.825 5.86487 3.64922 5.88596 3.48047 5.92815V10.2946C3.64922 10.3332 3.825 10.3578 4.0043 10.3578C5.24531 10.3578 6.25078 9.35237 6.25078 8.11135C6.25078 6.87034 5.24531 5.86487 4.0043 5.86487Z" fill="url(#paint32_linear_5044_62268)"/>
<path d="M16.1842 18.5H13.4033C13.2381 18.5 13.0764 18.4332 12.9604 18.3172L12.1834 17.5402C11.7967 17.1535 11.2693 16.9355 10.7244 16.9355H7.44785C6.41777 16.9355 5.45098 16.4293 4.86387 15.582L0.191601 8.83203C-0.145899 8.34336 -0.0263676 7.67539 0.462304 7.33437C0.648632 7.2043 0.863086 7.14453 1.07402 7.14453C1.41504 7.14453 1.74902 7.30625 1.95996 7.60859L6.3123 13.8945C6.69902 14.4535 7.33184 14.784 8.01035 14.784H11.1674C12.0076 14.784 12.7951 15.1109 13.3893 15.7051L16.1842 18.5Z" fill="url(#paint33_linear_5044_62268)"/>
<path d="M11.1691 14.784H11.0391V16.9602C11.4715 17.027 11.8723 17.2274 12.1852 17.5402L12.9621 18.3172C13.0781 18.4332 13.2398 18.5 13.4051 18.5H16.1859L13.391 15.7051C12.7969 15.111 12.0059 14.784 11.1691 14.784Z" fill="url(#paint34_linear_5044_62268)"/>
<path d="M9.09316 14.784V16.9355H7.44785C6.41777 16.9355 5.45098 16.4293 4.86387 15.582L0.191601 8.83203C-0.145899 8.34336 -0.0263676 7.67539 0.462304 7.33437C0.648633 7.2043 0.863086 7.14453 1.07402 7.14453C1.41504 7.14453 1.74902 7.30625 1.95996 7.60859L6.3123 13.8945C6.69902 14.4535 7.33184 14.784 8.01035 14.784H9.09316Z" fill="url(#paint35_linear_5044_62268)"/>
<path d="M13.081 9.11327C12.6978 8.92343 12.2302 9.08515 12.0263 9.46132L11.6607 10.1328C11.5658 10.3086 11.3584 10.4 11.165 10.3473L9.67437 9.95351C9.50913 9.91132 9.35796 9.82343 9.23843 9.70038L9.00991 9.31015C8.8728 9.0746 8.5564 9.02187 8.34546 9.19413L8.09937 9.40155L7.8146 9.32772C7.69507 9.29608 7.56851 9.38046 7.53335 9.49647C7.49819 9.61952 7.57554 9.74608 7.69507 9.78124H7.68804C7.59312 9.77772 7.50171 9.87265 7.48413 9.99569C7.47007 10.0871 7.48413 10.175 7.51577 10.2453C7.47007 10.284 7.43491 10.3473 7.42437 10.4211C7.4103 10.5125 7.42437 10.6004 7.45601 10.6707C7.4103 10.7094 7.37515 10.7726 7.3646 10.8465C7.33648 11.0433 7.42437 11.2156 7.56851 11.2543L8.50015 11.4969C8.56694 11.5144 8.63023 11.5215 8.69702 11.5215C8.7603 11.5215 8.8271 11.5144 8.89038 11.4969C8.97124 11.4758 9.05562 11.4758 9.13648 11.4969L9.95562 11.7113L11.0349 12.0031C11.4287 12.1086 11.8294 12.0629 12.174 11.8941C12.4623 11.75 12.7119 11.518 12.8771 11.2156L13.4291 10.1996C13.6365 9.80585 13.4853 9.31366 13.081 9.11327Z" fill="url(#paint36_linear_5044_62268)"/>
<path d="M13.0805 9.11327C12.6973 8.92343 12.2297 9.08515 12.0258 9.46132L11.6602 10.1328C11.5652 10.3086 11.3578 10.4 11.1645 10.3473L10.5 10.1715V11.8625L11.0309 12.0066C11.4246 12.1121 11.8254 12.0664 12.1699 11.8976C12.4582 11.7535 12.7078 11.5215 12.873 11.2191L13.425 10.2031C13.6359 9.80585 13.4848 9.31366 13.0805 9.11327Z" fill="url(#paint37_linear_5044_62268)"/>
<path d="M8.34766 9.19767C8.55508 9.02189 8.87148 9.07814 9.01211 9.31369L9.24062 9.70392L8.10156 9.40861L8.34766 9.19767Z" fill="url(#paint38_linear_5044_62268)"/>
<path d="M7.6276 10.8324L7.94049 10.9133L8.04947 10.5019L7.69088 10.4105C7.61705 10.3929 7.5608 10.3402 7.52564 10.2664C7.52213 10.2629 7.52213 10.2558 7.51861 10.2523C7.47291 10.291 7.43775 10.3543 7.4272 10.4281C7.41314 10.5265 7.4272 10.6179 7.46588 10.6918C7.49752 10.7621 7.55377 10.8148 7.6276 10.8324Z" fill="url(#paint39_linear_5044_62268)"/>
<path d="M7.5662 11.2578L7.83339 11.3281L7.94237 10.9168L7.62948 10.8359C7.55214 10.8148 7.49237 10.7586 7.45722 10.6777C7.41151 10.7164 7.37636 10.7797 7.36581 10.8535C7.33417 11.0469 7.42206 11.2191 7.5662 11.2578Z" fill="url(#paint40_linear_5044_62268)"/>
<path d="M7.48975 10.0027C7.50733 9.87613 7.59873 9.78473 7.69014 9.78825H7.69366L8.20342 9.92184L8.05225 10.5054L7.69366 10.414C7.546 10.3718 7.46162 10.1996 7.48975 10.0027Z" fill="url(#paint41_linear_5044_62268)"/>
<path d="M13.629 10.3473L13.3126 10.9273C13.2774 10.9906 13.1966 11.0152 13.1333 10.9801L11.5337 10.1082C11.4704 10.073 11.4458 9.99218 11.4809 9.9289L11.7973 9.34882C12.0716 8.84257 12.7044 8.65624 13.2106 8.93046C13.7169 9.2082 13.9032 9.84101 13.629 10.3473Z" fill="url(#paint42_linear_5044_62268)"/>
<path d="M13.629 10.3473L13.3126 10.9273C13.2774 10.9906 13.1966 11.0152 13.1333 10.9801L11.5337 10.1082C11.4704 10.073 11.4458 9.99218 11.4809 9.9289L11.7973 9.34882C12.0716 8.84257 12.7044 8.65624 13.2106 8.93046C13.7169 9.2082 13.9032 9.84101 13.629 10.3473Z" fill="url(#paint43_linear_5044_62268)"/>
<path d="M11.4258 2.57775C12.1676 2.4547 12.9234 3.05587 13.1414 3.95939V3.96642C13.2609 4.46564 13.5949 4.53595 13.9008 4.12462C14.182 3.74494 14.291 3.19298 14.1574 2.634C13.9395 1.73048 13.159 1.14689 12.4172 1.32619C11.8723 1.45626 11.4996 1.96251 11.4258 2.57775Z" fill="url(#paint44_linear_5044_62268)"/>
<path d="M11.4258 2.57775C12.1676 2.4547 12.9234 3.05587 13.1414 3.95939V3.96642C13.2609 4.46564 13.5949 4.53595 13.9008 4.12462C14.182 3.74494 14.291 3.19298 14.1574 2.634C13.9395 1.73048 13.159 1.14689 12.4172 1.32619C11.8723 1.45626 11.4996 1.96251 11.4258 2.57775Z" fill="url(#paint45_linear_5044_62268)"/>
<path d="M9.41753 0.862109C9.74097 0.637109 10.1699 0.5 10.641 0.5C11.6429 0.5 12.4515 1.12227 12.4515 1.88867C12.4515 2.65508 11.7343 3.27734 10.764 3.27734C10.3773 3.27734 9.26636 3.35117 8.77769 4.71875C8.75308 4.78555 8.66167 4.78906 8.63355 4.72578C8.34878 4.11758 7.56128 2.04336 9.41753 0.862109Z" fill="url(#paint46_linear_5044_62268)"/>
<path d="M9.41753 0.862109C9.74097 0.637109 10.1699 0.5 10.641 0.5C11.6429 0.5 12.4515 1.12227 12.4515 1.88867C12.4515 2.65508 11.7343 3.27734 10.764 3.27734C10.3773 3.27734 9.26636 3.35117 8.77769 4.71875C8.75308 4.78555 8.66167 4.78906 8.63355 4.72578C8.34878 4.11758 7.56128 2.04336 9.41753 0.862109Z" fill="url(#paint47_linear_5044_62268)"/>
<defs>
<linearGradient id="paint0_linear_5044_62268" x1="8.86288" y1="16.3809" x2="9.01324" y2="18.4861" gradientUnits="userSpaceOnUse">
<stop stop-color="#766E6E"/>
<stop offset="0.2493" stop-color="#716B6B"/>
<stop offset="0.5076" stop-color="#656464"/>
<stop offset="0.769" stop-color="#505757"/>
<stop offset="1" stop-color="#384949"/>
</linearGradient>
<linearGradient id="paint1_linear_5044_62268" x1="9.00083" y1="17.7909" x2="9.00083" y2="16.8887" gradientUnits="userSpaceOnUse">
<stop stop-color="#464646" stop-opacity="0"/>
<stop offset="0.6727" stop-color="#252529" stop-opacity="0.463"/>
<stop offset="1" stop-color="#000009"/>
</linearGradient>
<linearGradient id="paint2_linear_5044_62268" x1="9.99804" y1="17.0644" x2="12.0782" y2="16.6383" gradientUnits="userSpaceOnUse">
<stop stop-color="#464646" stop-opacity="0"/>
<stop offset="0.6727" stop-color="#252529" stop-opacity="0.463"/>
<stop offset="1" stop-color="#000009"/>
</linearGradient>
<linearGradient id="paint3_linear_5044_62268" x1="7.13082" y1="8.18507" x2="7.01793" y2="10.8819" gradientUnits="userSpaceOnUse">
<stop stop-color="#BB5D4C"/>
<stop offset="0.2756" stop-color="#B65A49"/>
<stop offset="0.5612" stop-color="#AA5342"/>
<stop offset="0.8504" stop-color="#954736"/>
<stop offset="1" stop-color="#883F2E"/>
</linearGradient>
<linearGradient id="paint4_linear_5044_62268" x1="6.84774" y1="9.40545" x2="5.84526" y2="9.24254" gradientUnits="userSpaceOnUse">
<stop stop-color="#6D3326" stop-opacity="0"/>
<stop offset="0.1865" stop-color="#6D3326" stop-opacity="0.038"/>
<stop offset="0.3798" stop-color="#6D3326" stop-opacity="0.152"/>
<stop offset="0.5761" stop-color="#6D3326" stop-opacity="0.343"/>
<stop offset="0.7747" stop-color="#6D3326" stop-opacity="0.609"/>
<stop offset="0.9732" stop-color="#6D3326" stop-opacity="0.949"/>
<stop offset="1" stop-color="#6D3326"/>
</linearGradient>
<linearGradient id="paint5_linear_5044_62268" x1="6.7942" y1="9.41463" x2="7.57112" y2="9.52741" gradientUnits="userSpaceOnUse">
<stop stop-color="#6D3326" stop-opacity="0"/>
<stop offset="0.1865" stop-color="#6D3326" stop-opacity="0.038"/>
<stop offset="0.3798" stop-color="#6D3326" stop-opacity="0.152"/>
<stop offset="0.5761" stop-color="#6D3326" stop-opacity="0.343"/>
<stop offset="0.7747" stop-color="#6D3326" stop-opacity="0.609"/>
<stop offset="0.9732" stop-color="#6D3326" stop-opacity="0.949"/>
<stop offset="1" stop-color="#6D3326"/>
</linearGradient>
<linearGradient id="paint6_linear_5044_62268" x1="8.19146" y1="7.91375" x2="8.91403" y2="10.3325" gradientUnits="userSpaceOnUse">
<stop stop-color="#9CF8D2"/>
<stop offset="0.1628" stop-color="#97F6D0"/>
<stop offset="0.3315" stop-color="#8BF3CA"/>
<stop offset="0.503" stop-color="#76EEC0"/>
<stop offset="0.6763" stop-color="#59E6B3"/>
<stop offset="0.8494" stop-color="#34DCA1"/>
<stop offset="1" stop-color="#0ED290"/>
</linearGradient>
<linearGradient id="paint7_linear_5044_62268" x1="7.82647" y1="8.771" x2="8.6911" y2="9.08428" gradientUnits="userSpaceOnUse">
<stop stop-color="#07B27B" stop-opacity="0"/>
<stop offset="0.1449" stop-color="#07B27B" stop-opacity="0.023"/>
<stop offset="0.2951" stop-color="#07B27B" stop-opacity="0.093"/>
<stop offset="0.4478" stop-color="#07B27B" stop-opacity="0.21"/>
<stop offset="0.6022" stop-color="#07B27B" stop-opacity="0.373"/>
<stop offset="0.758" stop-color="#07B27B" stop-opacity="0.584"/>
<stop offset="0.9127" stop-color="#07B27B" stop-opacity="0.837"/>
<stop offset="1" stop-color="#07B27B"/>
</linearGradient>
<linearGradient id="paint8_linear_5044_62268" x1="9.00595" y1="7.65791" x2="12.7652" y2="13.6477" gradientUnits="userSpaceOnUse">
<stop stop-color="#9CF8D2"/>
<stop offset="0.1628" stop-color="#97F6D0"/>
<stop offset="0.3315" stop-color="#8BF3CA"/>
<stop offset="0.503" stop-color="#76EEC0"/>
<stop offset="0.6763" stop-color="#59E6B3"/>
<stop offset="0.8494" stop-color="#34DCA1"/>
<stop offset="1" stop-color="#0ED290"/>
</linearGradient>
<linearGradient id="paint9_linear_5044_62268" x1="10.5209" y1="9.16929" x2="10.3371" y2="10.272" gradientUnits="userSpaceOnUse">
<stop stop-color="#07B27B" stop-opacity="0"/>
<stop offset="0.1449" stop-color="#07B27B" stop-opacity="0.023"/>
<stop offset="0.2951" stop-color="#07B27B" stop-opacity="0.093"/>
<stop offset="0.4478" stop-color="#07B27B" stop-opacity="0.21"/>
<stop offset="0.6022" stop-color="#07B27B" stop-opacity="0.373"/>
<stop offset="0.758" stop-color="#07B27B" stop-opacity="0.584"/>
<stop offset="0.9127" stop-color="#07B27B" stop-opacity="0.837"/>
<stop offset="1" stop-color="#07B27B"/>
</linearGradient>
<linearGradient id="paint10_linear_5044_62268" x1="12.8091" y1="10.4395" x2="14.7849" y2="10.4395" gradientUnits="userSpaceOnUse">
<stop stop-color="#07B27B" stop-opacity="0"/>
<stop offset="0.1449" stop-color="#07B27B" stop-opacity="0.023"/>
<stop offset="0.2951" stop-color="#07B27B" stop-opacity="0.093"/>
<stop offset="0.4478" stop-color="#07B27B" stop-opacity="0.21"/>
<stop offset="0.6022" stop-color="#07B27B" stop-opacity="0.373"/>
<stop offset="0.758" stop-color="#07B27B" stop-opacity="0.584"/>
<stop offset="0.9127" stop-color="#07B27B" stop-opacity="0.837"/>
<stop offset="1" stop-color="#07B27B"/>
</linearGradient>
<linearGradient id="paint11_linear_5044_62268" x1="11.6367" y1="12.9802" x2="10.9684" y2="10.2902" gradientUnits="userSpaceOnUse">
<stop stop-color="#07B27B" stop-opacity="0"/>
<stop offset="0.1449" stop-color="#07B27B" stop-opacity="0.023"/>
<stop offset="0.2951" stop-color="#07B27B" stop-opacity="0.093"/>
<stop offset="0.4478" stop-color="#07B27B" stop-opacity="0.21"/>
<stop offset="0.6022" stop-color="#07B27B" stop-opacity="0.373"/>
<stop offset="0.758" stop-color="#07B27B" stop-opacity="0.584"/>
<stop offset="0.9127" stop-color="#07B27B" stop-opacity="0.837"/>
<stop offset="1" stop-color="#07B27B"/>
</linearGradient>
<linearGradient id="paint12_linear_5044_62268" x1="11.2923" y1="6.66469" x2="12.1535" y2="8.34849" gradientUnits="userSpaceOnUse">
<stop stop-color="#BB5D4C"/>
<stop offset="0.2756" stop-color="#B65A49"/>
<stop offset="0.5612" stop-color="#AA5342"/>
<stop offset="0.8504" stop-color="#954736"/>
<stop offset="1" stop-color="#883F2E"/>
</linearGradient>
<linearGradient id="paint13_linear_5044_62268" x1="10.6713" y1="8.78595" x2="11.0497" y2="6.87981" gradientUnits="userSpaceOnUse">
<stop stop-color="#6D3326" stop-opacity="0"/>
<stop offset="0.1865" stop-color="#6D3326" stop-opacity="0.038"/>
<stop offset="0.3798" stop-color="#6D3326" stop-opacity="0.152"/>
<stop offset="0.5761" stop-color="#6D3326" stop-opacity="0.343"/>
<stop offset="0.7747" stop-color="#6D3326" stop-opacity="0.609"/>
<stop offset="0.9732" stop-color="#6D3326" stop-opacity="0.949"/>
<stop offset="1" stop-color="#6D3326"/>
</linearGradient>
<linearGradient id="paint14_linear_5044_62268" x1="10.7356" y1="7.66605" x2="9.99317" y2="7.75221" gradientUnits="userSpaceOnUse">
<stop stop-color="#6D3326" stop-opacity="0"/>
<stop offset="0.1865" stop-color="#6D3326" stop-opacity="0.038"/>
<stop offset="0.3798" stop-color="#6D3326" stop-opacity="0.152"/>
<stop offset="0.5761" stop-color="#6D3326" stop-opacity="0.343"/>
<stop offset="0.7747" stop-color="#6D3326" stop-opacity="0.609"/>
<stop offset="0.9732" stop-color="#6D3326" stop-opacity="0.949"/>
<stop offset="1" stop-color="#6D3326"/>
</linearGradient>
<linearGradient id="paint15_linear_5044_62268" x1="13.0767" y1="4.93726" x2="14.2315" y2="4.93726" gradientUnits="userSpaceOnUse">
<stop stop-color="#BB5D4C"/>
<stop offset="0.2756" stop-color="#B65A49"/>
<stop offset="0.5612" stop-color="#AA5342"/>
<stop offset="0.8504" stop-color="#954736"/>
<stop offset="1" stop-color="#883F2E"/>
</linearGradient>
<linearGradient id="paint16_linear_5044_62268" x1="8.81866" y1="3.39643" x2="13.4127" y2="5.82316" gradientUnits="userSpaceOnUse">
<stop stop-color="#BB5D4C"/>
<stop offset="0.2756" stop-color="#B65A49"/>
<stop offset="0.5612" stop-color="#AA5342"/>
<stop offset="0.8504" stop-color="#954736"/>
<stop offset="1" stop-color="#883F2E"/>
</linearGradient>
<linearGradient id="paint17_linear_5044_62268" x1="11.0996" y1="5.87993" x2="11.0996" y2="7.66639" gradientUnits="userSpaceOnUse">
<stop stop-color="#6D3326" stop-opacity="0"/>
<stop offset="0.1865" stop-color="#6D3326" stop-opacity="0.038"/>
<stop offset="0.3798" stop-color="#6D3326" stop-opacity="0.152"/>
<stop offset="0.5761" stop-color="#6D3326" stop-opacity="0.343"/>
<stop offset="0.7747" stop-color="#6D3326" stop-opacity="0.609"/>
<stop offset="0.9732" stop-color="#6D3326" stop-opacity="0.949"/>
<stop offset="1" stop-color="#6D3326"/>
</linearGradient>
<linearGradient id="paint18_linear_5044_62268" x1="11.7639" y1="4.60155" x2="13.5537" y2="4.60155" gradientUnits="userSpaceOnUse">
<stop stop-color="#6D3326" stop-opacity="0"/>
<stop offset="0.1865" stop-color="#6D3326" stop-opacity="0.038"/>
<stop offset="0.3798" stop-color="#6D3326" stop-opacity="0.152"/>
<stop offset="0.5761" stop-color="#6D3326" stop-opacity="0.343"/>
<stop offset="0.7747" stop-color="#6D3326" stop-opacity="0.609"/>
<stop offset="0.9732" stop-color="#6D3326" stop-opacity="0.949"/>
<stop offset="1" stop-color="#6D3326"/>
</linearGradient>
<linearGradient id="paint19_linear_5044_62268" x1="10.594" y1="5.54047" x2="11.1587" y2="5.93728" gradientUnits="userSpaceOnUse">
<stop stop-color="#6D3326" stop-opacity="0"/>
<stop offset="0.1865" stop-color="#6D3326" stop-opacity="0.038"/>
<stop offset="0.3798" stop-color="#6D3326" stop-opacity="0.152"/>
<stop offset="0.5761" stop-color="#6D3326" stop-opacity="0.343"/>
<stop offset="0.7747" stop-color="#6D3326" stop-opacity="0.609"/>
<stop offset="0.9732" stop-color="#6D3326" stop-opacity="0.949"/>
<stop offset="1" stop-color="#6D3326"/>
</linearGradient>
<linearGradient id="paint20_linear_5044_62268" x1="10.5603" y1="5.94969" x2="10.5603" y2="6.28606" gradientUnits="userSpaceOnUse">
<stop stop-color="#6D3326" stop-opacity="0"/>
<stop offset="0.1865" stop-color="#6D3326" stop-opacity="0.038"/>
<stop offset="0.3798" stop-color="#6D3326" stop-opacity="0.152"/>
<stop offset="0.5761" stop-color="#6D3326" stop-opacity="0.343"/>
<stop offset="0.7747" stop-color="#6D3326" stop-opacity="0.609"/>
<stop offset="0.9732" stop-color="#6D3326" stop-opacity="0.949"/>
<stop offset="1" stop-color="#6D3326"/>
</linearGradient>
<linearGradient id="paint21_linear_5044_62268" x1="10.3651" y1="5.61876" x2="9.79023" y2="5.88331" gradientUnits="userSpaceOnUse">
<stop stop-color="#FFA78F" stop-opacity="0"/>
<stop offset="0.1205" stop-color="#FFA78F" stop-opacity="0.016"/>
<stop offset="0.2454" stop-color="#FFA78F" stop-opacity="0.065"/>
<stop offset="0.3724" stop-color="#FFA78F" stop-opacity="0.147"/>
<stop offset="0.5008" stop-color="#FFA78F" stop-opacity="0.261"/>
<stop offset="0.6304" stop-color="#FFA78F" stop-opacity="0.408"/>
<stop offset="0.761" stop-color="#FFA78F" stop-opacity="0.588"/>
<stop offset="0.8898" stop-color="#FFA78F" stop-opacity="0.797"/>
<stop offset="1" stop-color="#FFA78F"/>
</linearGradient>
<linearGradient id="paint22_linear_5044_62268" x1="9.05177" y1="4.53046" x2="9.61497" y2="5.09363" gradientUnits="userSpaceOnUse">
<stop stop-color="#766E6E"/>
<stop offset="0.2493" stop-color="#716B6B"/>
<stop offset="0.5076" stop-color="#656464"/>
<stop offset="0.769" stop-color="#505757"/>
<stop offset="1" stop-color="#384949"/>
</linearGradient>
<linearGradient id="paint23_linear_5044_62268" x1="11.2435" y1="4.52276" x2="11.7686" y2="5.04793" gradientUnits="userSpaceOnUse">
<stop stop-color="#766E6E"/>
<stop offset="0.2493" stop-color="#716B6B"/>
<stop offset="0.5076" stop-color="#656464"/>
<stop offset="0.769" stop-color="#505757"/>
<stop offset="1" stop-color="#384949"/>
</linearGradient>
<linearGradient id="paint24_linear_5044_62268" x1="12.0523" y1="10.763" x2="10.4462" y2="15.3978" gradientUnits="userSpaceOnUse">
<stop stop-color="#99E6FC"/>
<stop offset="0.1814" stop-color="#94E3FC"/>
<stop offset="0.3695" stop-color="#88DCFC"/>
<stop offset="0.5605" stop-color="#73D1FC"/>
<stop offset="0.7537" stop-color="#56C1FD"/>
<stop offset="0.9467" stop-color="#31ACFD"/>
<stop offset="1" stop-color="#26A6FE"/>
</linearGradient>
<linearGradient id="paint25_linear_5044_62268" x1="15.9452" y1="16.961" x2="16.8474" y2="18.6151" gradientUnits="userSpaceOnUse">
<stop stop-color="#0172FB" stop-opacity="0"/>
<stop offset="0.1214" stop-color="#0172FB" stop-opacity="0.017"/>
<stop offset="0.2474" stop-color="#0172FB" stop-opacity="0.066"/>
<stop offset="0.3754" stop-color="#0172FB" stop-opacity="0.149"/>
<stop offset="0.5049" stop-color="#0172FB" stop-opacity="0.265"/>
<stop offset="0.6355" stop-color="#0172FB" stop-opacity="0.414"/>
<stop offset="0.7672" stop-color="#0172FB" stop-opacity="0.598"/>
<stop offset="0.897" stop-color="#0172FB" stop-opacity="0.81"/>
<stop offset="1" stop-color="#0172FB"/>
</linearGradient>
<linearGradient id="paint26_linear_5044_62268" x1="8.6003" y1="13.0478" x2="6.82857" y2="14.4106" gradientUnits="userSpaceOnUse">
<stop stop-color="#0172FB" stop-opacity="0"/>
<stop offset="0.1214" stop-color="#0172FB" stop-opacity="0.017"/>
<stop offset="0.2474" stop-color="#0172FB" stop-opacity="0.066"/>
<stop offset="0.3754" stop-color="#0172FB" stop-opacity="0.149"/>
<stop offset="0.5049" stop-color="#0172FB" stop-opacity="0.265"/>
<stop offset="0.6355" stop-color="#0172FB" stop-opacity="0.414"/>
<stop offset="0.7672" stop-color="#0172FB" stop-opacity="0.598"/>
<stop offset="0.897" stop-color="#0172FB" stop-opacity="0.81"/>
<stop offset="1" stop-color="#0172FB"/>
</linearGradient>
<linearGradient id="paint27_linear_5044_62268" x1="8.3785" y1="11.4528" x2="6.3342" y2="14.1786" gradientUnits="userSpaceOnUse">
<stop stop-color="#99E6FC"/>
<stop offset="0.1814" stop-color="#94E3FC"/>
<stop offset="0.3695" stop-color="#88DCFC"/>
<stop offset="0.5605" stop-color="#73D1FC"/>
<stop offset="0.7537" stop-color="#56C1FD"/>
<stop offset="0.9467" stop-color="#31ACFD"/>
<stop offset="1" stop-color="#26A6FE"/>
</linearGradient>
<linearGradient id="paint28_linear_5044_62268" x1="7.43526" y1="13.5724" x2="7.43526" y2="15.0985" gradientUnits="userSpaceOnUse">
<stop stop-color="#0172FB" stop-opacity="0"/>
<stop offset="0.1214" stop-color="#0172FB" stop-opacity="0.017"/>
<stop offset="0.2474" stop-color="#0172FB" stop-opacity="0.066"/>
<stop offset="0.3754" stop-color="#0172FB" stop-opacity="0.149"/>
<stop offset="0.5049" stop-color="#0172FB" stop-opacity="0.265"/>
<stop offset="0.6355" stop-color="#0172FB" stop-opacity="0.414"/>
<stop offset="0.7672" stop-color="#0172FB" stop-opacity="0.598"/>
<stop offset="0.897" stop-color="#0172FB" stop-opacity="0.81"/>
<stop offset="1" stop-color="#0172FB"/>
</linearGradient>
<linearGradient id="paint29_linear_5044_62268" x1="7.18449" y1="12.8779" x2="5.61719" y2="14.0363" gradientUnits="userSpaceOnUse">
<stop stop-color="#0172FB" stop-opacity="0"/>
<stop offset="0.1214" stop-color="#0172FB" stop-opacity="0.017"/>
<stop offset="0.2474" stop-color="#0172FB" stop-opacity="0.066"/>
<stop offset="0.3754" stop-color="#0172FB" stop-opacity="0.149"/>
<stop offset="0.5049" stop-color="#0172FB" stop-opacity="0.265"/>
<stop offset="0.6355" stop-color="#0172FB" stop-opacity="0.414"/>
<stop offset="0.7672" stop-color="#0172FB" stop-opacity="0.598"/>
<stop offset="0.897" stop-color="#0172FB" stop-opacity="0.81"/>
<stop offset="1" stop-color="#0172FB"/>
</linearGradient>
<linearGradient id="paint30_linear_5044_62268" x1="2.65493" y1="6.76191" x2="5.44525" y2="9.55223" gradientUnits="userSpaceOnUse">
<stop stop-color="#FFDFCF"/>
<stop offset="0.2453" stop-color="#FFDBCA"/>
<stop offset="0.4994" stop-color="#FFD0BE"/>
<stop offset="0.7566" stop-color="#FFBEA9"/>
<stop offset="1" stop-color="#FFA78F"/>
</linearGradient>
<linearGradient id="paint31_linear_5044_62268" x1="4.00475" y1="8.19276" x2="4.00475" y2="10.3939" gradientUnits="userSpaceOnUse">
<stop stop-color="#F89580" stop-opacity="0"/>
<stop offset="0.1375" stop-color="#F6947F" stop-opacity="0.021"/>
<stop offset="0.2801" stop-color="#F3917C" stop-opacity="0.084"/>
<stop offset="0.4251" stop-color="#EE8E78" stop-opacity="0.19"/>
<stop offset="0.5717" stop-color="#E68873" stop-opacity="0.337"/>
<stop offset="0.7196" stop-color="#DD826B" stop-opacity="0.528"/>
<stop offset="0.8663" stop-color="#D17963" stop-opacity="0.757"/>
<stop offset="1" stop-color="#C5715A"/>
</linearGradient>
<linearGradient id="paint32_linear_5044_62268" x1="3.86307" y1="8.05974" x2="6.28316" y2="8.86644" gradientUnits="userSpaceOnUse">
<stop stop-color="#F89580" stop-opacity="0"/>
<stop offset="0.1375" stop-color="#F6947F" stop-opacity="0.021"/>
<stop offset="0.2801" stop-color="#F3917C" stop-opacity="0.084"/>
<stop offset="0.4251" stop-color="#EE8E78" stop-opacity="0.19"/>
<stop offset="0.5717" stop-color="#E68873" stop-opacity="0.337"/>
<stop offset="0.7196" stop-color="#DD826B" stop-opacity="0.528"/>
<stop offset="0.8663" stop-color="#D17963" stop-opacity="0.757"/>
<stop offset="1" stop-color="#C5715A"/>
</linearGradient>
<linearGradient id="paint33_linear_5044_62268" x1="8.69136" y1="11.8" x2="6.37471" y2="17.4261" gradientUnits="userSpaceOnUse">
<stop stop-color="#C5D3DD"/>
<stop offset="0.2627" stop-color="#C0CED9"/>
<stop offset="0.5349" stop-color="#B4C2CD"/>
<stop offset="0.8104" stop-color="#9FAEB9"/>
<stop offset="1" stop-color="#8D9CA8"/>
</linearGradient>
<linearGradient id="paint34_linear_5044_62268" x1="13.6116" y1="17.4151" x2="13.6116" y2="18.6376" gradientUnits="userSpaceOnUse">
<stop stop-color="#596C76" stop-opacity="0"/>
<stop offset="0.179" stop-color="#596C76" stop-opacity="0.035"/>
<stop offset="0.3646" stop-color="#596C76" stop-opacity="0.141"/>
<stop offset="0.5532" stop-color="#596C76" stop-opacity="0.316"/>
<stop offset="0.7438" stop-color="#596C76" stop-opacity="0.563"/>
<stop offset="0.9342" stop-color="#596C76" stop-opacity="0.876"/>
<stop offset="1" stop-color="#596C76"/>
</linearGradient>
<linearGradient id="paint35_linear_5044_62268" x1="4.46741" y1="12.3434" x2="3.00129" y2="13.3209" gradientUnits="userSpaceOnUse">
<stop stop-color="#596C76" stop-opacity="0"/>
<stop offset="0.179" stop-color="#596C76" stop-opacity="0.035"/>
<stop offset="0.3646" stop-color="#596C76" stop-opacity="0.141"/>
<stop offset="0.5532" stop-color="#596C76" stop-opacity="0.316"/>
<stop offset="0.7438" stop-color="#596C76" stop-opacity="0.563"/>
<stop offset="0.9342" stop-color="#596C76" stop-opacity="0.876"/>
<stop offset="1" stop-color="#596C76"/>
</linearGradient>
<linearGradient id="paint36_linear_5044_62268" x1="11.6226" y1="7.59046" x2="9.5029" y2="11.745" gradientUnits="userSpaceOnUse">
<stop stop-color="#BB5D4C"/>
<stop offset="0.2756" stop-color="#B65A49"/>
<stop offset="0.5612" stop-color="#AA5342"/>
<stop offset="0.8504" stop-color="#954736"/>
<stop offset="1" stop-color="#883F2E"/>
</linearGradient>
<linearGradient id="paint37_linear_5044_62268" x1="11.5549" y1="10.8748" x2="12.1564" y2="10.1564" gradientUnits="userSpaceOnUse">
<stop stop-color="#6D3326" stop-opacity="0"/>
<stop offset="0.1865" stop-color="#6D3326" stop-opacity="0.038"/>
<stop offset="0.3798" stop-color="#6D3326" stop-opacity="0.152"/>
<stop offset="0.5761" stop-color="#6D3326" stop-opacity="0.343"/>
<stop offset="0.7747" stop-color="#6D3326" stop-opacity="0.609"/>
<stop offset="0.9732" stop-color="#6D3326" stop-opacity="0.949"/>
<stop offset="1" stop-color="#6D3326"/>
</linearGradient>
<linearGradient id="paint38_linear_5044_62268" x1="8.76508" y1="9.45331" x2="8.07457" y2="9.64311" gradientUnits="userSpaceOnUse">
<stop stop-color="#6D3326" stop-opacity="0"/>
<stop offset="0.1865" stop-color="#6D3326" stop-opacity="0.038"/>
<stop offset="0.3798" stop-color="#6D3326" stop-opacity="0.152"/>
<stop offset="0.5761" stop-color="#6D3326" stop-opacity="0.343"/>
<stop offset="0.7747" stop-color="#6D3326" stop-opacity="0.609"/>
<stop offset="0.9732" stop-color="#6D3326" stop-opacity="0.949"/>
<stop offset="1" stop-color="#6D3326"/>
</linearGradient>
<linearGradient id="paint39_linear_5044_62268" x1="7.66401" y1="10.3849" x2="7.54386" y2="10.1954" gradientUnits="userSpaceOnUse">
<stop stop-color="#6D3326" stop-opacity="0"/>
<stop offset="0.1865" stop-color="#6D3326" stop-opacity="0.038"/>
<stop offset="0.3798" stop-color="#6D3326" stop-opacity="0.152"/>
<stop offset="0.5761" stop-color="#6D3326" stop-opacity="0.343"/>
<stop offset="0.7747" stop-color="#6D3326" stop-opacity="0.609"/>
<stop offset="0.9732" stop-color="#6D3326" stop-opacity="0.949"/>
<stop offset="1" stop-color="#6D3326"/>
</linearGradient>
<linearGradient id="paint40_linear_5044_62268" x1="7.60056" y1="10.8175" x2="7.46797" y2="10.5916" gradientUnits="userSpaceOnUse">
<stop stop-color="#6D3326" stop-opacity="0"/>
<stop offset="0.1865" stop-color="#6D3326" stop-opacity="0.038"/>
<stop offset="0.3798" stop-color="#6D3326" stop-opacity="0.152"/>
<stop offset="0.5761" stop-color="#6D3326" stop-opacity="0.343"/>
<stop offset="0.7747" stop-color="#6D3326" stop-opacity="0.609"/>
<stop offset="0.9732" stop-color="#6D3326" stop-opacity="0.949"/>
<stop offset="1" stop-color="#6D3326"/>
</linearGradient>
<linearGradient id="paint41_linear_5044_62268" x1="7.84405" y1="9.97123" x2="7.60644" y2="9.52972" gradientUnits="userSpaceOnUse">
<stop stop-color="#6D3326" stop-opacity="0"/>
<stop offset="0.1865" stop-color="#6D3326" stop-opacity="0.038"/>
<stop offset="0.3798" stop-color="#6D3326" stop-opacity="0.152"/>
<stop offset="0.5761" stop-color="#6D3326" stop-opacity="0.343"/>
<stop offset="0.7747" stop-color="#6D3326" stop-opacity="0.609"/>
<stop offset="0.9732" stop-color="#6D3326" stop-opacity="0.949"/>
<stop offset="1" stop-color="#6D3326"/>
</linearGradient>
<linearGradient id="paint42_linear_5044_62268" x1="12.0517" y1="8.99305" x2="13.2936" y2="10.7268" gradientUnits="userSpaceOnUse">
<stop stop-color="#9CF8D2"/>
<stop offset="0.1628" stop-color="#97F6D0"/>
<stop offset="0.3315" stop-color="#8BF3CA"/>
<stop offset="0.503" stop-color="#76EEC0"/>
<stop offset="0.6763" stop-color="#59E6B3"/>
<stop offset="0.8494" stop-color="#34DCA1"/>
<stop offset="1" stop-color="#0ED290"/>
</linearGradient>
<linearGradient id="paint43_linear_5044_62268" x1="12.5731" y1="10.1048" x2="12.3893" y2="10.5392" gradientUnits="userSpaceOnUse">
<stop stop-color="#07B27B" stop-opacity="0"/>
<stop offset="0.1449" stop-color="#07B27B" stop-opacity="0.023"/>
<stop offset="0.2951" stop-color="#07B27B" stop-opacity="0.093"/>
<stop offset="0.4478" stop-color="#07B27B" stop-opacity="0.21"/>
<stop offset="0.6022" stop-color="#07B27B" stop-opacity="0.373"/>
<stop offset="0.758" stop-color="#07B27B" stop-opacity="0.584"/>
<stop offset="0.9127" stop-color="#07B27B" stop-opacity="0.837"/>
<stop offset="1" stop-color="#07B27B"/>
</linearGradient>
<linearGradient id="paint44_linear_5044_62268" x1="13.7775" y1="1.54067" x2="12.6491" y2="3.20177" gradientUnits="userSpaceOnUse">
<stop stop-color="#766E6E"/>
<stop offset="0.2493" stop-color="#716B6B"/>
<stop offset="0.5076" stop-color="#656464"/>
<stop offset="0.769" stop-color="#505757"/>
<stop offset="1" stop-color="#384949"/>
</linearGradient>
<linearGradient id="paint45_linear_5044_62268" x1="13.4891" y1="2.41462" x2="12.413" y2="3.27131" gradientUnits="userSpaceOnUse">
<stop stop-color="#464646" stop-opacity="0"/>
<stop offset="0.6727" stop-color="#252529" stop-opacity="0.463"/>
<stop offset="1" stop-color="#000009"/>
</linearGradient>
<linearGradient id="paint46_linear_5044_62268" x1="9.712" y1="0.956293" x2="10.6366" y2="3.49566" gradientUnits="userSpaceOnUse">
<stop stop-color="#766E6E"/>
<stop offset="0.2493" stop-color="#716B6B"/>
<stop offset="0.5076" stop-color="#656464"/>
<stop offset="0.769" stop-color="#505757"/>
<stop offset="1" stop-color="#384949"/>
</linearGradient>
<linearGradient id="paint47_linear_5044_62268" x1="9.95222" y1="1.96359" x2="10.8171" y2="3.74851" gradientUnits="userSpaceOnUse">
<stop stop-color="#464646" stop-opacity="0"/>
<stop offset="0.6727" stop-color="#252529" stop-opacity="0.463"/>
<stop offset="1" stop-color="#000009"/>
</linearGradient>
</defs>
</svg>
