<svg width="18" height="19" viewBox="0 0 18 19" fill="none" xmlns="http://www.w3.org/2000/svg">
<g clip-path="url(#clip0_5044_61859)">
<path d="M9.63845 0.5H8.36537C7.74936 0.5 7.25 0.999359 7.25 1.61537V3.1544H10.7538V1.61537C10.7538 0.999359 10.2545 0.5 9.63845 0.5Z" fill="#DDDAEC"/>
<path d="M9.6658 0.501053C9.06234 0.514623 8.57743 1.00832 8.57743 1.61537V3.15475H7.25V1.61537C7.25 0.999533 7.74968 0.500244 8.36551 0.500244H9.63866C9.64783 0.500244 9.65701 0.500244 9.6658 0.501053Z" fill="#D0CEE7"/>
<path d="M8.99969 18.5C10.2982 18.5 11.3509 17.4473 11.3509 16.1487C11.3509 14.8502 10.2982 13.7975 8.99969 13.7975C7.70113 13.7975 6.64844 14.8502 6.64844 16.1487C6.64844 17.4473 7.70113 18.5 8.99969 18.5Z" fill="#77A4D3"/>
<path d="M9.77629 18.3682C9.53322 18.4536 9.2718 18.4999 8.99962 18.4999C7.70091 18.4999 6.64844 17.447 6.64844 16.1487C6.64844 14.85 7.70091 13.7971 8.99962 13.7971C9.2718 13.7971 9.53322 13.8434 9.77629 13.9284C8.85913 14.2489 8.20101 15.1222 8.20101 16.1487C8.20101 17.1752 8.85913 18.0481 9.77629 18.3682Z" fill="#97B8DA"/>
<path d="M14.4052 8.89752L12.9749 4.86327C11.6475 1.11955 6.3531 1.11955 5.02578 4.86327L3.59545 8.89752C2.8565 10.9817 3.38173 13.3051 4.94538 14.8687C7.18486 17.1082 10.8158 17.1082 13.0552 14.8687C14.6189 13.3051 15.1441 10.9817 14.4052 8.89752Z" fill="#7CAEE1" fill-opacity="0.911"/>
<path d="M7.89161 14.8691C8.63316 15.611 9.52757 16.1067 10.4734 16.357C9.99131 16.4847 9.49561 16.5486 9.00033 16.5486C7.5328 16.5486 6.06485 15.989 4.94537 14.8691C3.38166 13.3054 2.85642 10.9817 3.59558 8.89761L5.0256 4.8634C5.89006 2.42601 8.436 1.57551 10.4735 2.31228C9.38149 2.7066 8.43561 3.5571 7.97225 4.8634L6.54182 8.89761C5.80266 10.9817 6.32786 13.3053 7.89161 14.8691Z" fill="#AAC4DE" fill-opacity="0.62"/>
<path d="M12.9459 9.79821C12.9459 10.8271 12.5432 11.8353 11.7909 12.5876C11.021 13.3579 10.0116 13.7426 9.00227 13.7426C7.99293 13.7426 6.98356 13.3579 6.21367 12.5876C5.13845 11.5124 4.77729 9.91437 5.28534 8.48115L6.26915 5.70694C6.62634 4.69999 7.40062 4.08694 8.2655 3.86784C8.74721 3.74571 9.25729 3.74571 9.739 3.86784C10.6039 4.08697 11.3782 4.69999 11.7353 5.70694L12.7192 8.48115C12.8716 8.9114 12.9459 9.35679 12.9459 9.79821Z" fill="#D0CEE7"/>
<path d="M9.73526 3.86778V4.60775C9.73526 5.01444 9.40518 5.34452 8.99849 5.34452C8.5918 5.34452 8.26172 5.01444 8.26172 4.60775V3.86778C8.74343 3.74565 9.25351 3.74565 9.73526 3.86778Z" fill="#F9F6F9"/>
<path d="M9.73913 3.86778V4.3535C9.25742 4.23137 8.74734 4.23137 8.26562 4.3535V3.86778C8.7473 3.74565 9.25738 3.74565 9.73913 3.86778Z" fill="#DDDAEC"/>
<path d="M9.26388 5.29501C9.18169 5.32693 9.09229 5.34451 8.99849 5.34451C8.5918 5.34451 8.26172 5.01442 8.26172 4.60774V3.8678C8.43574 3.82351 8.61374 3.79556 8.79254 3.78357V4.60774C8.79254 4.92105 8.98812 5.18845 9.26388 5.29501Z" fill="#DDDAEC"/>
<path d="M9.73525 11.1988H8.26207C7.91022 11.1988 7.625 11.484 7.625 11.8359C7.625 12.1877 7.91022 12.4729 8.26207 12.4729H9.73529C10.0871 12.4729 10.3724 12.1877 10.3724 11.8359C10.3723 11.484 10.0871 11.1988 9.73525 11.1988Z" fill="#2B4D66"/>
</g>
<defs>
<clipPath id="clip0_5044_61859">
<rect width="18" height="18" fill="white" transform="translate(0 0.5)"/>
</clipPath>
</defs>
</svg>
