<svg width="18" height="18" viewBox="0 0 18 18" fill="none" xmlns="http://www.w3.org/2000/svg">
<path d="M17.129 1.48945C15.5393 -0.496482 12.5184 -0.496482 10.9286 1.48945L9.3954 3.40472C9.19264 3.65802 8.80733 3.65802 8.6046 3.40472L7.07139 1.48945C5.48164 -0.496482 2.46074 -0.496482 0.870988 1.48945C-0.290329 2.94018 -0.290329 5.00224 0.870988 6.45293L7.91308 15.2499C7.91375 15.2508 7.91446 15.2516 7.91513 15.2525C8.05691 15.4288 8.13918 15.6454 8.13918 15.8717V15.9004C8.13918 16.3735 8.51269 16.7728 8.98578 16.7804C9.22931 16.7844 9.44972 16.6873 9.60882 16.5286C9.76447 16.3726 9.86082 16.1576 9.86082 15.9197V15.8716C9.86082 15.6454 9.94306 15.4288 10.0849 15.2525C10.0855 15.2516 10.0862 15.2508 10.0869 15.2499L17.129 6.45289C18.2903 5.00224 18.2903 2.94018 17.129 1.48945Z" fill="url(#paint0_linear_5060_77085)"/>
<path d="M12.5724 9.08931C12.2578 9.08931 11.9706 8.89208 11.8576 8.59851L11.4853 7.63042C11.4504 7.53979 11.3216 7.54162 11.2893 7.63321L10.3311 10.3545C10.2243 10.6578 9.94756 10.8585 9.6261 10.8658C9.62014 10.8659 9.6141 10.866 9.6081 10.866C9.29402 10.866 9.01689 10.6796 8.89873 10.387L6.84652 5.30532C6.81041 5.21588 6.68268 5.21902 6.65102 5.31015L5.51748 8.57472C5.41068 8.88248 5.11996 9.08931 4.79409 9.08931H2.98047L7.91208 15.2499C7.91275 15.2507 7.91346 15.2516 7.91413 15.2524C8.0559 15.4287 8.13818 15.6454 8.13818 15.8716V15.9004C8.13818 16.3735 8.51169 16.7728 8.98478 16.7804C9.2283 16.7843 9.44872 16.6872 9.60782 16.5285C9.76347 16.3725 9.85982 16.1576 9.85982 15.9197V15.8716C9.85982 15.6453 9.94206 15.4287 10.0838 15.2524C10.0845 15.2516 10.0852 15.2507 10.0859 15.2498L15.0175 9.08927H12.5724V9.08931Z" fill="url(#paint1_linear_5060_77085)"/>
<path d="M17.1278 1.48939C16.3842 0.560484 15.3275 0.066155 14.2506 0.00622559C14.3041 0.957861 14.0167 1.92471 13.3867 2.7117L6.34457 11.5087C6.3439 11.5096 6.34319 11.5104 6.34252 11.5113C6.20074 11.6876 6.11851 11.9042 6.11851 12.1305V12.1786C6.11851 12.3954 6.03829 12.593 5.90625 12.7444L7.91194 15.2499C7.91261 15.2507 7.91332 15.2516 7.91399 15.2525C8.05577 15.4288 8.13804 15.6454 8.13804 15.8716V15.9004C8.13804 16.3735 8.51156 16.7728 8.98464 16.7804C9.22817 16.7843 9.44858 16.6873 9.60769 16.5285C9.76333 16.3725 9.85969 16.1576 9.85969 15.9197V15.8716C9.85969 15.6454 9.94192 15.4287 10.0837 15.2524C10.0844 15.2516 10.0851 15.2507 10.0857 15.2499L17.1278 6.45287C18.2892 5.00218 18.2892 2.94012 17.1278 1.48939Z" fill="url(#paint2_linear_5060_77085)"/>
<path d="M9.60917 11.5719C9.29509 11.5719 9.01796 11.3855 8.89979 11.0929L6.84758 6.01124C6.81144 5.92181 6.68375 5.92495 6.65209 6.01608L5.51855 9.28064C5.41175 9.58841 5.12103 9.79523 4.79516 9.79523H0.53597C0.255311 9.79523 0.0137932 9.57955 0.000593188 9.29921C-0.0134892 8.99988 0.224993 8.75279 0.521217 8.75279H4.23006C4.45051 8.75279 4.64675 8.6132 4.71906 8.40496L6.00038 4.71479C6.10612 4.4103 6.38262 4.20842 6.70478 4.20041C7.02779 4.19296 7.31315 4.38037 7.43382 4.67917L9.48854 9.767C9.52457 9.85626 9.65191 9.85336 9.68389 9.76259L10.6507 7.01677C10.7585 6.71074 11.0377 6.51002 11.3621 6.5054C11.3659 6.50533 11.3697 6.50533 11.3735 6.50533C11.6931 6.50533 11.9726 6.69697 12.0877 6.99623L12.6357 8.42095C12.7125 8.62086 12.9046 8.75275 13.1188 8.75275H17.464C17.7446 8.75275 17.9862 8.96843 17.9994 9.24877C18.0134 9.5481 17.775 9.7952 17.4787 9.7952H12.5733C12.2588 9.7952 11.9716 9.59797 11.8586 9.3044L11.4863 8.33632C11.4514 8.24568 11.3226 8.24752 11.2903 8.3391L10.3321 11.0604C10.2253 11.3637 9.94856 11.5644 9.6271 11.5717C9.62117 11.5718 9.61514 11.5719 9.60917 11.5719Z" fill="url(#paint3_linear_5060_77085)"/>
<path d="M3.16406 9.31763L7.91292 15.2499C7.91359 15.2508 7.9143 15.2516 7.91497 15.2525C8.05674 15.4288 8.13902 15.6454 8.13902 15.8717V15.9004C8.13902 16.3736 8.51253 16.7728 8.98562 16.7805C9.22914 16.7844 9.44956 16.6873 9.60866 16.5286C9.76431 16.3726 9.86066 16.1576 9.86066 15.9197V15.8716C9.86066 15.6454 9.9429 15.4288 10.0847 15.2525C10.0853 15.2516 10.0861 15.2508 10.0867 15.2499L14.8356 9.31763H3.16406Z" fill="url(#paint4_linear_5060_77085)"/>
<defs>
<linearGradient id="paint0_linear_5060_77085" x1="8.57972" y1="3.66946" x2="13.415" y2="9.84593" gradientUnits="userSpaceOnUse">
<stop stop-color="#FE0364"/>
<stop offset="0.2568" stop-color="#F3035F"/>
<stop offset="0.7013" stop-color="#D70252"/>
<stop offset="1" stop-color="#C00148"/>
</linearGradient>
<linearGradient id="paint1_linear_5060_77085" x1="9.89579" y1="10.9973" x2="5.31997" y2="6.42149" gradientUnits="userSpaceOnUse">
<stop stop-color="#972437" stop-opacity="0"/>
<stop offset="0.1984" stop-color="#922434" stop-opacity="0.198"/>
<stop offset="0.427" stop-color="#85242D" stop-opacity="0.427"/>
<stop offset="0.6703" stop-color="#6D2321" stop-opacity="0.67"/>
<stop offset="0.9226" stop-color="#4D2111" stop-opacity="0.923"/>
<stop offset="1" stop-color="#42210B"/>
</linearGradient>
<linearGradient id="paint2_linear_5060_77085" x1="11.5878" y1="8.00373" x2="14.6936" y2="10.5096" gradientUnits="userSpaceOnUse">
<stop stop-color="#972437" stop-opacity="0"/>
<stop offset="0.1984" stop-color="#922434" stop-opacity="0.198"/>
<stop offset="0.427" stop-color="#85242D" stop-opacity="0.427"/>
<stop offset="0.6703" stop-color="#6D2321" stop-opacity="0.67"/>
<stop offset="0.9226" stop-color="#4D2111" stop-opacity="0.923"/>
<stop offset="1" stop-color="#42210B"/>
</linearGradient>
<linearGradient id="paint3_linear_5060_77085" x1="8.99999" y1="4.0941" x2="8.99999" y2="13.2247" gradientUnits="userSpaceOnUse">
<stop stop-color="#AEFFD1"/>
<stop offset="0.1201" stop-color="#A3F9CB"/>
<stop offset="0.3288" stop-color="#87EAB9"/>
<stop offset="0.6012" stop-color="#59D19D"/>
<stop offset="0.9235" stop-color="#19AF77"/>
<stop offset="1" stop-color="#09A76D"/>
</linearGradient>
<linearGradient id="paint4_linear_5060_77085" x1="8.99984" y1="11.7412" x2="8.99984" y2="16.611" gradientUnits="userSpaceOnUse">
<stop stop-color="#972437" stop-opacity="0"/>
<stop offset="0.1984" stop-color="#922434" stop-opacity="0.198"/>
<stop offset="0.427" stop-color="#85242D" stop-opacity="0.427"/>
<stop offset="0.6703" stop-color="#6D2321" stop-opacity="0.67"/>
<stop offset="0.9226" stop-color="#4D2111" stop-opacity="0.923"/>
<stop offset="1" stop-color="#42210B"/>
</linearGradient>
</defs>
</svg>
