<svg width="22" height="22" viewBox="0 0 22 22" fill="none" xmlns="http://www.w3.org/2000/svg">
<g clip-path="url(#clip0_18_2845)">
<path d="M20.7561 7.65593C21.585 8.4848 21.9994 9.57122 21.9994 10.6573C21.9994 11.7434 21.585 12.8298 20.7561 13.6587L17.5145 16.9003L13.6275 14.7845L11.5117 10.8976L14.7534 7.65593C16.4111 5.99815 19.0983 5.99815 20.7561 7.65593Z" fill="url(#paint0_linear_18_2845)"/>
<path d="M20.7576 7.65584C21.5864 8.4847 22.0009 9.57112 22.0009 10.6572C22.0009 11.7433 21.5864 12.8297 20.7576 13.6586L17.5159 16.9002L13.629 14.7844L12.9844 13.6L19.7011 6.8833C20.0817 7.07958 20.4385 7.33679 20.7576 7.65584Z" fill="url(#paint1_linear_18_2845)"/>
<path d="M19.8662 14.5506L17.5159 16.8998L13.6293 14.7843L11.5137 10.8977L13.863 8.54736L19.8662 14.5506Z" fill="url(#paint2_linear_18_2845)"/>
<path d="M11.5123 10.8975L17.5151 16.9002L14.2734 20.1418C12.6156 21.7996 9.92847 21.7996 8.27069 20.1418C7.44182 19.313 7.02734 18.2266 7.02734 17.1405C7.02734 16.0544 7.44178 14.968 8.27069 14.1391L11.5123 10.8975Z" fill="url(#paint3_linear_18_2845)"/>
<path d="M11.5123 10.8975L17.5151 16.9002L14.2734 20.1418C12.6156 21.7996 9.92847 21.7996 8.27069 20.1418C7.44182 19.313 7.02734 18.2266 7.02734 17.1405C7.02734 16.0544 7.44178 14.968 8.27069 14.1391L11.5123 10.8975Z" fill="url(#paint4_linear_18_2845)"/>
<path d="M8.10156 14.3178L14.0941 20.3103C14.1548 20.2561 14.2145 20.2001 14.2727 20.1418L17.5144 16.9002L11.5116 10.8975L8.27 14.1391C8.21173 14.1974 8.1557 14.2571 8.10156 14.3178Z" fill="url(#paint5_linear_18_2845)"/>
<path d="M13.5991 12.9844L17.515 16.9002L14.2734 20.1419C12.6156 21.7997 9.9284 21.7997 8.27062 20.1419C7.95158 19.8229 7.69407 19.4657 7.49805 19.0854L13.5991 12.9844Z" fill="url(#paint6_linear_18_2845)"/>
<path d="M14.7538 7.65593L12.4297 9.98003L18.4324 15.9828L20.7565 13.6587C21.5854 12.8298 21.9999 11.7434 21.9998 10.6573C21.9998 9.57122 21.5854 8.4848 20.7565 7.65593C19.0987 5.99815 16.4115 5.99815 14.7538 7.65593Z" fill="url(#paint7_linear_18_2845)"/>
<path d="M13.7288 14.4099C12.8999 15.2388 11.8135 15.6532 10.7274 15.6532C9.64131 15.6532 8.55489 15.2388 7.72602 14.4099L4.48438 11.1683L6.6002 7.28135L10.4871 5.16553L13.7288 8.40718C15.3865 10.065 15.3865 12.7521 13.7288 14.4099Z" fill="url(#paint8_linear_18_2845)"/>
<path d="M13.7288 14.4099C12.8999 15.2388 11.8135 15.6532 10.7274 15.6532C9.64131 15.6532 8.55489 15.2388 7.72602 14.4099L4.48438 11.1682L6.6002 7.28134L7.78459 6.63672L14.5013 13.3534C14.305 13.734 14.0478 14.0908 13.7288 14.4099Z" fill="url(#paint9_linear_18_2845)"/>
<path d="M10.4877 5.16561L4.48498 11.1683L1.24333 7.9267C-0.414444 6.26892 -0.414444 3.58174 1.24333 1.92396C2.0722 1.0951 3.15862 0.680621 4.2447 0.680664C5.33078 0.680664 6.4172 1.0951 7.24607 1.92401L10.4877 5.16561Z" fill="url(#paint10_linear_18_2845)"/>
<path d="M8.40085 7.25246L4.48498 11.1683L1.24333 7.92668C-0.414444 6.2689 -0.414444 3.58172 1.24333 1.92395C1.56238 1.6049 1.91953 1.34739 2.29981 1.15137L8.40085 7.25246Z" fill="url(#paint11_linear_18_2845)"/>
<path d="M13.7292 8.4071L11.4051 6.08301L5.40234 12.0857L7.72644 14.4098C8.5553 15.2387 9.64173 15.6532 10.7278 15.6531C11.8139 15.6531 12.9003 15.2387 13.7292 14.4098C15.3869 12.7521 15.3869 10.0649 13.7292 8.4071Z" fill="url(#paint12_linear_18_2845)"/>
<path d="M13.7292 8.4071L11.4051 6.08301L5.40234 12.0857L7.72644 14.4098C8.5553 15.2387 9.64173 15.6532 10.7278 15.6531C11.8139 15.6531 12.9003 15.2387 13.7292 14.4098C15.3869 12.7521 15.3869 10.0649 13.7292 8.4071Z" fill="url(#paint13_linear_18_2845)"/>
<path d="M13.7288 14.41C12.8999 15.2388 11.8135 15.6533 10.7274 15.6533C9.64131 15.6533 8.55489 15.2389 7.72602 14.41L4.48438 11.1683L8.40025 7.25244L14.5013 13.3535C14.305 13.7341 14.0478 14.0909 13.7288 14.41Z" fill="url(#paint14_linear_18_2845)"/>
<path d="M15.1802 8.79161C17.4382 8.79161 19.2687 6.96116 19.2687 4.70318C19.2687 2.4452 17.4382 0.614746 15.1802 0.614746C12.9223 0.614746 11.0918 2.4452 11.0918 4.70318C11.0918 6.96116 12.9223 8.79161 15.1802 8.79161Z" fill="url(#paint15_linear_18_2845)"/>
<path d="M18.6362 2.51741L12.9944 8.15921C12.4835 7.83467 12.049 7.40034 11.7266 6.88936L17.3673 1.24756C17.8783 1.57206 18.3127 2.00647 18.6362 2.51741Z" fill="url(#paint16_linear_18_2845)"/>
<path d="M11.0918 4.70335C11.0918 6.96131 12.9222 8.79178 15.1802 8.79178C17.4382 8.79178 19.2687 6.96131 19.2687 4.70335C19.2687 4.5903 19.2639 4.47841 19.2549 4.36768H11.1056C11.0966 4.47841 11.0918 4.59034 11.0918 4.70335Z" fill="url(#paint17_linear_18_2845)"/>
<path d="M15.1805 0.614746C14.9171 0.614746 14.6597 0.639969 14.4102 0.687535V8.71878C14.6597 8.76635 14.9171 8.79157 15.1805 8.79157C17.4385 8.79157 19.2689 6.9611 19.2689 4.70314C19.2689 2.44517 17.4385 0.614746 15.1805 0.614746Z" fill="url(#paint18_linear_18_2845)"/>
<path d="M18.0549 1.79541L12.2734 7.5769C13.0146 8.32679 14.0436 8.79158 15.1812 8.79158C17.4392 8.79158 19.2697 6.96111 19.2697 4.70315C19.2696 3.56551 18.8048 2.53654 18.0549 1.79541Z" fill="url(#paint19_linear_18_2845)"/>
</g>
<defs>
<linearGradient id="paint0_linear_18_2845" x1="16.1924" y1="10.2012" x2="18.8524" y2="12.8612" gradientUnits="userSpaceOnUse">
<stop stop-color="#F3FAFF"/>
<stop offset="1" stop-color="#D5DAF3"/>
</linearGradient>
<linearGradient id="paint1_linear_18_2845" x1="16.581" y1="10.5882" x2="20.346" y2="14.3532" gradientUnits="userSpaceOnUse">
<stop stop-color="#DBD5EF" stop-opacity="0"/>
<stop offset="0.2667" stop-color="#D8D2EC" stop-opacity="0.023"/>
<stop offset="0.4431" stop-color="#D1C9E2" stop-opacity="0.098"/>
<stop offset="0.5933" stop-color="#C4B9D1" stop-opacity="0.225"/>
<stop offset="0.7288" stop-color="#B2A4BA" stop-opacity="0.405"/>
<stop offset="0.8545" stop-color="#9A889C" stop-opacity="0.638"/>
<stop offset="0.9713" stop-color="#7E6678" stop-opacity="0.92"/>
<stop offset="1" stop-color="#765D6E"/>
</linearGradient>
<linearGradient id="paint2_linear_18_2845" x1="17.222" y1="12.783" x2="14.1339" y2="12.6633" gradientUnits="userSpaceOnUse">
<stop stop-color="#DBD5EF" stop-opacity="0"/>
<stop offset="0.2667" stop-color="#D8D2EC" stop-opacity="0.023"/>
<stop offset="0.4431" stop-color="#D1C9E2" stop-opacity="0.098"/>
<stop offset="0.5933" stop-color="#C4B9D1" stop-opacity="0.225"/>
<stop offset="0.7288" stop-color="#B2A4BA" stop-opacity="0.405"/>
<stop offset="0.8545" stop-color="#9A889C" stop-opacity="0.638"/>
<stop offset="0.9713" stop-color="#7E6678" stop-opacity="0.92"/>
<stop offset="1" stop-color="#765D6E"/>
</linearGradient>
<linearGradient id="paint3_linear_18_2845" x1="10.3937" y1="16.0005" x2="13.0537" y2="18.6605" gradientUnits="userSpaceOnUse">
<stop stop-color="#FE646F"/>
<stop offset="0.235" stop-color="#FA5964"/>
<stop offset="0.6415" stop-color="#EF3D49"/>
<stop offset="1" stop-color="#E41F2D"/>
</linearGradient>
<linearGradient id="paint4_linear_18_2845" x1="12.2761" y1="17.1697" x2="12.1085" y2="13.8901" gradientUnits="userSpaceOnUse">
<stop stop-color="#A72B2B" stop-opacity="0"/>
<stop offset="0.1561" stop-color="#A32B2A" stop-opacity="0.066"/>
<stop offset="0.386" stop-color="#982C29" stop-opacity="0.248"/>
<stop offset="0.6615" stop-color="#872F28" stop-opacity="0.545"/>
<stop offset="0.97" stop-color="#6F3226" stop-opacity="0.956"/>
<stop offset="1" stop-color="#6D3326"/>
</linearGradient>
<linearGradient id="paint5_linear_18_2845" x1="13.0455" y1="15.4448" x2="15.4472" y2="13.7393" gradientUnits="userSpaceOnUse">
<stop stop-color="#A72B2B" stop-opacity="0"/>
<stop offset="0.1561" stop-color="#A32B2A" stop-opacity="0.066"/>
<stop offset="0.386" stop-color="#982C29" stop-opacity="0.248"/>
<stop offset="0.6615" stop-color="#872F28" stop-opacity="0.545"/>
<stop offset="0.97" stop-color="#6F3226" stop-opacity="0.956"/>
<stop offset="1" stop-color="#6D3326"/>
</linearGradient>
<linearGradient id="paint6_linear_18_2845" x1="11.4726" y1="17.0796" x2="14.1365" y2="19.7434" gradientUnits="userSpaceOnUse">
<stop stop-color="#A72B2B" stop-opacity="0"/>
<stop offset="0.1561" stop-color="#A32B2A" stop-opacity="0.066"/>
<stop offset="0.386" stop-color="#982C29" stop-opacity="0.248"/>
<stop offset="0.6615" stop-color="#872F28" stop-opacity="0.545"/>
<stop offset="0.97" stop-color="#6F3226" stop-opacity="0.956"/>
<stop offset="1" stop-color="#6D3326"/>
</linearGradient>
<linearGradient id="paint7_linear_18_2845" x1="18.4454" y1="11.2234" x2="21.9029" y2="11.8035" gradientUnits="userSpaceOnUse">
<stop stop-color="#DBD5EF" stop-opacity="0"/>
<stop offset="0.2667" stop-color="#D8D2EC" stop-opacity="0.023"/>
<stop offset="0.4431" stop-color="#D1C9E2" stop-opacity="0.098"/>
<stop offset="0.5933" stop-color="#C4B9D1" stop-opacity="0.225"/>
<stop offset="0.7288" stop-color="#B2A4BA" stop-opacity="0.405"/>
<stop offset="0.8545" stop-color="#9A889C" stop-opacity="0.638"/>
<stop offset="0.9713" stop-color="#7E6678" stop-opacity="0.92"/>
<stop offset="1" stop-color="#765D6E"/>
</linearGradient>
<linearGradient id="paint8_linear_18_2845" x1="11.1612" y1="9.8208" x2="8.5012" y2="12.4808" gradientUnits="userSpaceOnUse">
<stop stop-color="#FEF0AE"/>
<stop offset="1" stop-color="#FAC600"/>
</linearGradient>
<linearGradient id="paint9_linear_18_2845" x1="10.7741" y1="10.2079" x2="7.00908" y2="13.9729" gradientUnits="userSpaceOnUse">
<stop stop-color="#FE9738" stop-opacity="0"/>
<stop offset="0.1648" stop-color="#FE9637" stop-opacity="0.012"/>
<stop offset="0.2957" stop-color="#FE9535" stop-opacity="0.052"/>
<stop offset="0.415" stop-color="#FE9331" stop-opacity="0.118"/>
<stop offset="0.5274" stop-color="#FE902C" stop-opacity="0.211"/>
<stop offset="0.635" stop-color="#FE8C25" stop-opacity="0.331"/>
<stop offset="0.739" stop-color="#FE871D" stop-opacity="0.479"/>
<stop offset="0.8401" stop-color="#FE8213" stop-opacity="0.655"/>
<stop offset="0.9364" stop-color="#FE7B09" stop-opacity="0.852"/>
<stop offset="1" stop-color="#FE7701"/>
</linearGradient>
<linearGradient id="paint10_linear_18_2845" x1="6.30677" y1="3.10359" x2="1.90853" y2="7.50182" gradientUnits="userSpaceOnUse">
<stop stop-color="#C1E9AF"/>
<stop offset="0.1072" stop-color="#B6E4AA"/>
<stop offset="0.2935" stop-color="#99D69E"/>
<stop offset="0.5365" stop-color="#6BC18A"/>
<stop offset="0.8238" stop-color="#2CA36F"/>
<stop offset="1" stop-color="#02905D"/>
</linearGradient>
<linearGradient id="paint11_linear_18_2845" x1="3.70952" y1="6.69425" x2="2.2772" y2="9.81666" gradientUnits="userSpaceOnUse">
<stop stop-color="#026841" stop-opacity="0"/>
<stop offset="0.2182" stop-color="#026841" stop-opacity="0.033"/>
<stop offset="0.4099" stop-color="#026841" stop-opacity="0.137"/>
<stop offset="0.5916" stop-color="#026841" stop-opacity="0.31"/>
<stop offset="0.7671" stop-color="#026841" stop-opacity="0.553"/>
<stop offset="0.9367" stop-color="#026841" stop-opacity="0.864"/>
<stop offset="1" stop-color="#026841"/>
</linearGradient>
<linearGradient id="paint12_linear_18_2845" x1="10.1394" y1="12.0732" x2="9.55932" y2="15.5308" gradientUnits="userSpaceOnUse">
<stop stop-color="#FE9738" stop-opacity="0"/>
<stop offset="0.1648" stop-color="#FE9637" stop-opacity="0.012"/>
<stop offset="0.2957" stop-color="#FE9535" stop-opacity="0.052"/>
<stop offset="0.415" stop-color="#FE9331" stop-opacity="0.118"/>
<stop offset="0.5274" stop-color="#FE902C" stop-opacity="0.211"/>
<stop offset="0.635" stop-color="#FE8C25" stop-opacity="0.331"/>
<stop offset="0.739" stop-color="#FE871D" stop-opacity="0.479"/>
<stop offset="0.8401" stop-color="#FE8213" stop-opacity="0.655"/>
<stop offset="0.9364" stop-color="#FE7B09" stop-opacity="0.852"/>
<stop offset="1" stop-color="#FE7701"/>
</linearGradient>
<linearGradient id="paint13_linear_18_2845" x1="9.95242" y1="10.8126" x2="12.4237" y2="15.7205" gradientUnits="userSpaceOnUse">
<stop stop-color="#FE9738" stop-opacity="0"/>
<stop offset="0.1648" stop-color="#FE9637" stop-opacity="0.012"/>
<stop offset="0.2957" stop-color="#FE9535" stop-opacity="0.052"/>
<stop offset="0.415" stop-color="#FE9331" stop-opacity="0.118"/>
<stop offset="0.5274" stop-color="#FE902C" stop-opacity="0.211"/>
<stop offset="0.635" stop-color="#FE8C25" stop-opacity="0.331"/>
<stop offset="0.739" stop-color="#FE871D" stop-opacity="0.479"/>
<stop offset="0.8401" stop-color="#FE8213" stop-opacity="0.655"/>
<stop offset="0.9364" stop-color="#FE7B09" stop-opacity="0.852"/>
<stop offset="1" stop-color="#FE7701"/>
</linearGradient>
<linearGradient id="paint14_linear_18_2845" x1="9.1194" y1="13.4068" x2="8.33684" y2="15.9718" gradientUnits="userSpaceOnUse">
<stop stop-color="#FAC600" stop-opacity="0"/>
<stop offset="0.1175" stop-color="#FAC602" stop-opacity="0.017"/>
<stop offset="0.2423" stop-color="#FAC80B" stop-opacity="0.067"/>
<stop offset="0.3705" stop-color="#FACC1A" stop-opacity="0.151"/>
<stop offset="0.5011" stop-color="#FBD12E" stop-opacity="0.268"/>
<stop offset="0.6336" stop-color="#FBD748" stop-opacity="0.419"/>
<stop offset="0.7676" stop-color="#FCDF69" stop-opacity="0.604"/>
<stop offset="0.9003" stop-color="#FDE88E" stop-opacity="0.819"/>
<stop offset="1" stop-color="#FEF0AE"/>
</linearGradient>
<linearGradient id="paint15_linear_18_2845" x1="12.9682" y1="2.49115" x2="17.5559" y2="7.07884" gradientUnits="userSpaceOnUse">
<stop stop-color="#99E6FC"/>
<stop offset="0.1325" stop-color="#8EE1FB"/>
<stop offset="0.3627" stop-color="#71D5F9"/>
<stop offset="0.6631" stop-color="#43C2F5"/>
<stop offset="1" stop-color="#08A9F1"/>
</linearGradient>
<linearGradient id="paint16_linear_18_2845" x1="15.7594" y1="5.28177" x2="14.3284" y2="3.85078" gradientUnits="userSpaceOnUse">
<stop stop-color="#99E6FC"/>
<stop offset="0.1325" stop-color="#8EE1FB"/>
<stop offset="0.3627" stop-color="#71D5F9"/>
<stop offset="0.6631" stop-color="#43C2F5"/>
<stop offset="1" stop-color="#08A9F1"/>
</linearGradient>
<linearGradient id="paint17_linear_18_2845" x1="15.1802" y1="5.52689" x2="15.1802" y2="9.71922" gradientUnits="userSpaceOnUse">
<stop stop-color="#2740B0" stop-opacity="0"/>
<stop offset="0.2505" stop-color="#263FAE" stop-opacity="0.023"/>
<stop offset="0.4239" stop-color="#253DAB" stop-opacity="0.095"/>
<stop offset="0.5741" stop-color="#233BA4" stop-opacity="0.218"/>
<stop offset="0.711" stop-color="#21379B" stop-opacity="0.393"/>
<stop offset="0.8389" stop-color="#1E3290" stop-opacity="0.618"/>
<stop offset="0.9585" stop-color="#1A2C82" stop-opacity="0.89"/>
<stop offset="1" stop-color="#192A7D"/>
</linearGradient>
<linearGradient id="paint18_linear_18_2845" x1="16.0224" y1="4.70314" x2="20.0922" y2="4.70314" gradientUnits="userSpaceOnUse">
<stop stop-color="#2740B0" stop-opacity="0"/>
<stop offset="0.2505" stop-color="#263FAE" stop-opacity="0.023"/>
<stop offset="0.4239" stop-color="#253DAB" stop-opacity="0.095"/>
<stop offset="0.5741" stop-color="#233BA4" stop-opacity="0.218"/>
<stop offset="0.711" stop-color="#21379B" stop-opacity="0.393"/>
<stop offset="0.8389" stop-color="#1E3290" stop-opacity="0.618"/>
<stop offset="0.9585" stop-color="#1A2C82" stop-opacity="0.89"/>
<stop offset="1" stop-color="#192A7D"/>
</linearGradient>
<linearGradient id="paint19_linear_18_2845" x1="16.594" y1="6.11596" x2="18.6126" y2="8.13459" gradientUnits="userSpaceOnUse">
<stop stop-color="#08A9F1" stop-opacity="0"/>
<stop offset="0.0927" stop-color="#0BAAF1" stop-opacity="0.025"/>
<stop offset="0.2192" stop-color="#15AEF2" stop-opacity="0.094"/>
<stop offset="0.3651" stop-color="#26B5F3" stop-opacity="0.208"/>
<stop offset="0.5256" stop-color="#3DBFF5" stop-opacity="0.367"/>
<stop offset="0.698" stop-color="#5ACBF7" stop-opacity="0.571"/>
<stop offset="0.8776" stop-color="#7EDAF9" stop-opacity="0.816"/>
<stop offset="1" stop-color="#99E6FC"/>
</linearGradient>
<clipPath id="clip0_18_2845">
<rect width="22" height="22" fill="white"/>
</clipPath>
</defs>
</svg>
