<svg width="18" height="18" viewBox="0 0 18 18" fill="none" xmlns="http://www.w3.org/2000/svg">
<g clip-path="url(#clip0_5060_77043)">
<path d="M7.83569 5.26721L7.97651 6.04619C8.51489 9.02462 8.14867 12.09 6.9221 14.8717L6.89175 14.9405C6.45138 15.9392 5.43622 16.5873 4.31245 16.5873H4.26406C3.5046 16.5872 2.78037 16.8966 2.26952 17.4394L2.24058 17.4702C1.62675 18.1224 0.51378 17.8333 0.322698 16.9774C0.322592 16.977 0.322557 16.9768 0.322557 16.9768C-0.204137 14.6179 -0.0842079 12.1671 0.670557 9.86674C1.50675 7.34854 3.43885 5.30815 5.96111 4.27972C6.76928 3.95017 7.68477 4.43243 7.83569 5.26721Z" fill="url(#paint0_radial_5060_77043)"/>
<path d="M10.1636 5.26721L10.0227 6.04619C9.48437 9.02462 9.85058 12.09 11.0772 14.8717L11.1075 14.9405C11.5479 15.9392 12.563 16.5873 13.6868 16.5873H13.7352C14.4947 16.5872 15.2189 16.8966 15.7297 17.4394L15.7587 17.4702C16.3725 18.1224 17.4855 17.8333 17.6766 16.9774C17.6767 16.977 17.6767 16.9768 17.6767 16.9768C18.2034 14.6179 18.0835 12.1671 17.3287 9.86674C16.4925 7.34854 14.5604 5.30815 12.0381 4.27972C11.23 3.95017 10.3145 4.43243 10.1636 5.26721Z" fill="url(#paint1_radial_5060_77043)"/>
<path d="M10.6774 6.05522L10.556 6.72715C10.0916 9.29628 10.4075 11.9403 11.4655 14.3397L11.4916 14.3991C11.8715 15.2606 12.7472 15.8196 13.7164 15.8195H13.7582C14.4133 15.8195 15.038 16.0864 15.4786 16.5546L15.5036 16.5812C16.0331 17.1437 16.9931 16.8943 17.1579 16.1561C17.158 16.1558 17.158 16.1556 17.158 16.1556C17.6123 14.1209 17.5089 12.0069 16.8578 10.0227C16.1366 7.85056 14.47 6.09058 12.2944 5.20346C11.5972 4.9192 10.8075 5.33518 10.6774 6.05522Z" fill="url(#paint2_linear_5060_77043)"/>
<path d="M9.97027 6.35236C9.84522 7.1475 9.77315 7.96039 9.78198 8.90416C10.2318 9.64625 10.7692 10.3318 11.3901 10.9526L17.6114 17.174C17.6383 17.1122 17.6605 17.0469 17.676 16.9774C17.6761 16.9771 17.6761 16.9768 17.6761 16.9768C17.9304 15.8379 18.0335 14.6776 17.9877 13.523L10.097 5.63232C10.0859 5.69677 9.99169 6.21514 9.97027 6.35236Z" fill="url(#paint3_linear_5060_77043)"/>
<path d="M17.3285 9.86674C16.4923 7.34854 14.5602 5.30815 12.0379 4.27972C11.2297 3.95017 10.3142 4.43243 10.1634 5.26721L10.0225 6.04619C9.91919 6.61788 9.84949 7.19282 9.8125 7.76829C9.93095 7.91021 10.0575 8.04507 10.1919 8.17185L17.8771 15.857C18.1496 13.8501 17.9644 11.805 17.3285 9.86674Z" fill="url(#paint4_linear_5060_77043)"/>
<path d="M7.97749 6.04618L7.90267 5.63232C7.49029 7.20591 6.66727 8.64884 5.4865 9.82961C5.17637 10.1397 5.17637 10.6425 5.4865 10.9526L7.58986 13.056C8.26436 10.7858 8.40099 8.38918 7.97749 6.04618Z" fill="url(#paint5_linear_5060_77043)"/>
<path d="M12.5154 9.82958C10.7612 8.07532 9.79507 5.74294 9.79507 3.26209V0.96758C9.79507 0.529015 9.43952 0.173462 9.00095 0.173462C8.56239 0.173462 8.20683 0.529015 8.20683 0.96758V3.26209C8.20683 5.74294 7.24073 8.07532 5.4865 9.82958C5.17637 10.1397 5.17637 10.6425 5.4865 10.9526C5.64155 11.1077 5.84477 11.1852 6.04803 11.1852C6.25129 11.1852 6.45452 11.1077 6.60956 10.9526C7.62462 9.93754 8.41782 8.75039 8.96717 7.42414C8.97879 7.39609 8.98959 7.36782 9.00095 7.33972C9.01232 7.36785 9.02312 7.39612 9.03473 7.42414C9.58408 8.75039 10.3773 9.93754 11.3923 10.9526C11.5474 11.1077 11.7506 11.1852 11.9539 11.1852C12.1571 11.1852 12.3604 11.1077 12.5154 10.9526C12.8255 10.6425 12.8255 10.1397 12.5154 9.82958Z" fill="url(#paint6_linear_5060_77043)"/>
<path d="M9.03378 7.42418C9.58313 8.75043 10.3764 9.93758 11.3914 10.9526C11.5465 11.1077 11.7497 11.1852 11.9529 11.1852C12.1561 11.1852 12.3594 11.1077 12.5144 10.9526C12.8246 10.6425 12.8246 10.1397 12.5144 9.82962C10.7602 8.07532 9.79412 5.74294 9.79412 3.26209V0.96758C9.79412 0.529015 9.43856 0.173462 9 0.173462V7.33976C9.01136 7.36785 9.02216 7.39612 9.03378 7.42418Z" fill="url(#paint7_linear_5060_77043)"/>
</g>
<defs>
<radialGradient id="paint0_radial_5060_77043" cx="0" cy="0" r="1" gradientUnits="userSpaceOnUse" gradientTransform="translate(1.83526 9.38526) scale(7.97813)">
<stop stop-color="#FF7044"/>
<stop offset="0.241" stop-color="#FF6C41"/>
<stop offset="0.4741" stop-color="#FD613A"/>
<stop offset="0.7039" stop-color="#FC4D2D"/>
<stop offset="0.9304" stop-color="#F9321B"/>
<stop offset="1" stop-color="#F82814"/>
</radialGradient>
<radialGradient id="paint1_radial_5060_77043" cx="0" cy="0" r="1" gradientUnits="userSpaceOnUse" gradientTransform="translate(11.8581 10.0911) scale(7.63938)">
<stop stop-color="#FF7044"/>
<stop offset="0.241" stop-color="#FF6C41"/>
<stop offset="0.4741" stop-color="#FD613A"/>
<stop offset="0.7039" stop-color="#FC4D2D"/>
<stop offset="0.9304" stop-color="#F9321B"/>
<stop offset="1" stop-color="#F82814"/>
</radialGradient>
<linearGradient id="paint2_linear_5060_77043" x1="12.6442" y1="10.4648" x2="4.20892" y2="6.97064" gradientUnits="userSpaceOnUse">
<stop stop-color="white" stop-opacity="0"/>
<stop offset="1" stop-color="white"/>
</linearGradient>
<linearGradient id="paint3_linear_5060_77043" x1="14.8928" y1="11.8123" x2="10.234" y2="9.97703" gradientUnits="userSpaceOnUse">
<stop stop-color="#F82814" stop-opacity="0"/>
<stop offset="1" stop-color="#C0272D"/>
</linearGradient>
<linearGradient id="paint4_linear_5060_77043" x1="17.1038" y1="11.6923" x2="12.7849" y2="7.37335" gradientUnits="userSpaceOnUse">
<stop stop-color="#F82814" stop-opacity="0"/>
<stop offset="1" stop-color="#C0272D"/>
</linearGradient>
<linearGradient id="paint5_linear_5060_77043" x1="9.50594" y1="11.1038" x2="7.48743" y2="9.08532" gradientUnits="userSpaceOnUse">
<stop stop-color="#F82814" stop-opacity="0"/>
<stop offset="1" stop-color="#C0272D"/>
</linearGradient>
<linearGradient id="paint6_linear_5060_77043" x1="7.10686" y1="5.67934" x2="11.4194" y2="5.67934" gradientUnits="userSpaceOnUse">
<stop stop-color="#65E0DB"/>
<stop offset="0.185" stop-color="#5EDAD4"/>
<stop offset="0.457" stop-color="#4AC9C0"/>
<stop offset="0.7811" stop-color="#2BADA0"/>
<stop offset="1" stop-color="#119786"/>
</linearGradient>
<linearGradient id="paint7_linear_5060_77043" x1="10.0773" y1="6.01019" x2="7.58315" y2="7.61018" gradientUnits="userSpaceOnUse">
<stop stop-color="#119786" stop-opacity="0"/>
<stop offset="1" stop-color="#119786"/>
</linearGradient>
<clipPath id="clip0_5060_77043">
<rect width="18" height="18" fill="white"/>
</clipPath>
</defs>
</svg>
