<svg width="18" height="19" viewBox="0 0 18 19" fill="none" xmlns="http://www.w3.org/2000/svg">
<g clip-path="url(#clip0_5053_23150)">
<g clip-path="url(#clip1_5053_23150)">
<path d="M17.4134 10.4213V7.40233C17.4134 6.97615 17.068 6.63069 16.6418 6.63069H16.4035C16.089 6.63069 15.8085 6.43891 15.6882 6.14837C15.6869 6.14515 15.6856 6.14194 15.6842 6.13876C15.5634 5.84801 15.6259 5.51353 15.8486 5.29089L16.017 5.1224C16.3184 4.82106 16.3184 4.33248 16.017 4.03114L13.8823 1.89641C13.581 1.59507 13.0924 1.59507 12.7911 1.89641L12.6226 2.06491C12.3999 2.28754 12.0654 2.35005 11.7747 2.22924C11.7715 2.22789 11.7683 2.22659 11.7651 2.22525C11.4746 2.105 11.2828 1.82441 11.2828 1.50998V1.27167C11.2828 0.845459 10.9373 0.5 10.5111 0.5H7.49214C7.06596 0.5 6.7205 0.845459 6.7205 1.27164V1.50994C6.7205 1.82438 6.52871 2.10496 6.23817 2.22521C6.23496 2.22655 6.23175 2.22786 6.22857 2.2292C5.93782 2.35001 5.60334 2.28751 5.3807 2.06487L5.21221 1.89638C4.91087 1.59504 4.42229 1.59504 4.12095 1.89638L1.98622 4.03111C1.68488 4.33245 1.68488 4.82102 1.98622 5.12236L2.15471 5.29086C2.37735 5.51349 2.43986 5.84798 2.31904 6.13873C2.3177 6.14194 2.3164 6.14515 2.31506 6.14833C2.19481 6.43887 1.91422 6.63066 1.59978 6.63066H1.36148C0.935303 6.63066 0.589844 6.97612 0.589844 7.40229V10.4212C0.589844 10.8474 0.935303 11.1929 1.36148 11.1929H1.59978C1.91422 11.1929 2.19481 11.3847 2.31506 11.6752C2.3164 11.6784 2.3177 11.6816 2.31904 11.6848C2.43986 11.9756 2.37735 12.31 2.15471 12.5327L1.98622 12.7012C1.68488 13.0025 1.68488 13.4911 1.98622 13.7924L4.12095 15.9272C4.42229 16.2285 4.91087 16.2285 5.21221 15.9272L5.3807 15.7587C5.60334 15.536 5.93782 15.4735 6.22857 15.5943C6.23178 15.5957 6.235 15.597 6.23817 15.5983C6.52871 15.7186 6.7205 15.9992 6.7205 16.3136V16.5519C6.7205 16.9781 7.06596 17.3235 7.49214 17.3235H10.5111C10.9373 17.3235 11.2827 16.9781 11.2827 16.5519V16.3136C11.2827 15.9992 11.4745 15.7186 11.7651 15.5983C11.7683 15.597 11.7715 15.5957 11.7747 15.5943C12.0654 15.4735 12.3999 15.536 12.6225 15.7587L12.791 15.9272C13.0924 16.2285 13.5809 16.2285 13.8823 15.9272L16.017 13.7924C16.3184 13.4911 16.3184 13.0025 16.017 12.7012L15.8485 12.5327C15.6259 12.31 15.5634 11.9756 15.6842 11.6848C15.6855 11.6816 15.6868 11.6784 15.6882 11.6752C15.8084 11.3847 16.089 11.1929 16.4034 11.1929H16.6418C17.068 11.1929 17.4134 10.8474 17.4134 10.4213Z" fill="url(#paint0_linear_5053_23150)"/>
<path d="M9.00092 14.7682C12.2353 14.7682 14.8573 12.1462 14.8573 8.91181C14.8573 5.67741 12.2353 3.05542 9.00092 3.05542C5.76653 3.05542 3.14453 5.67741 3.14453 8.91181C3.14453 12.1462 5.76653 14.7682 9.00092 14.7682Z" fill="url(#paint1_linear_5053_23150)"/>
<path d="M17.408 10.5002C17.3686 10.8894 17.0399 11.1928 16.6406 11.1928H16.4022C16.0879 11.1928 15.8074 11.3846 15.6871 11.6753C15.6856 11.6787 15.6844 11.6817 15.6829 11.6851C15.5622 11.9757 15.6247 12.31 15.8473 12.533L16.0161 12.7014C16.3173 13.0026 16.3173 13.491 16.0161 13.7926L13.8811 15.9272C13.5799 16.2288 13.0911 16.2288 12.7899 15.9272L12.6215 15.7587C12.3989 15.5361 12.0642 15.4737 11.7736 15.5944C11.7702 15.5959 11.7672 15.5971 11.7638 15.5985C11.4735 15.7185 11.2817 15.9994 11.2817 16.3137V16.5521C11.2817 16.9529 10.976 17.2823 10.585 17.3199L5.71906 12.4517C4.77113 11.573 4.25262 10.3175 4.25001 8.92061C4.24701 7.29814 4.96969 5.93699 6.19549 5.05975C6.3474 4.95108 6.54028 4.91763 6.64443 5.0432C6.67902 5.08531 10.8343 9.23343 10.8813 9.27857C11.1321 9.07478 11.2817 8.76719 11.2817 8.43818V5.25264C11.2817 4.98493 11.5848 4.82699 11.8029 4.98267C12.0728 5.17594 12.3222 5.3959 12.5466 5.63918L17.408 10.5002Z" fill="url(#paint2_linear_5053_23150)"/>
<path d="M16.0164 12.7012L15.8479 12.5327C15.6253 12.3101 15.5627 11.9756 15.6836 11.6849C15.6849 11.6817 15.6862 11.6784 15.6875 11.6753C15.8078 11.3847 16.0884 11.1929 16.4028 11.1929H16.6411C17.0404 11.1929 17.3689 10.8896 17.4087 10.5007L12.5471 5.63916C12.4441 5.52749 12.3362 5.42108 12.223 5.32031C12.9867 6.17387 13.4507 7.30074 13.4507 8.53592C13.4507 10.3757 12.4208 11.9753 10.9062 12.7893V17.2135C11.1311 17.0787 11.2821 16.8333 11.2821 16.552V16.3137C11.2821 15.9992 11.4739 15.7186 11.7645 15.5984C11.7677 15.597 11.7709 15.5957 11.7741 15.5944C12.0648 15.4736 12.3993 15.5361 12.6219 15.7587L12.7904 15.9272C13.0918 16.2286 13.5803 16.2286 13.8817 15.9272L16.0164 13.7925C16.3178 13.4911 16.3178 13.0026 16.0164 12.7012Z" fill="url(#paint3_linear_5053_23150)"/>
<path d="M11.1801 17.6568C11.2827 17.0821 11.3344 16.4998 11.3344 15.9164V11.9324H6.67188V15.9164C6.67188 16.4998 6.72351 17.0821 6.82618 17.6568C6.91325 18.1443 7.34585 18.5 7.85162 18.5H10.1546C10.6604 18.5 11.093 18.1443 11.1801 17.6568Z" fill="url(#paint4_linear_5053_23150)"/>
<path d="M6.67188 13.1666L11.1914 17.589C11.2862 17.0363 11.3344 16.4769 11.3344 15.9164V11.9324H6.67188V13.1666Z" fill="url(#paint5_linear_5053_23150)"/>
<path d="M13.8271 8.91175C13.8271 11.5769 11.6666 13.7374 9.00152 13.7374C6.33639 13.7375 4.18055 11.5857 4.17579 8.92057C4.17289 7.29803 4.97072 5.86156 6.19652 4.98457C6.41559 4.82787 6.72025 4.98351 6.72025 5.25284V8.438C6.72025 8.82538 6.92689 9.18334 7.26237 9.37703L8.4593 10.0681C8.7948 10.2619 9.20817 10.2619 9.54367 10.0681L10.7406 9.37703C11.0761 9.18334 11.2827 8.82538 11.2827 8.438V5.25274C11.2827 4.98478 11.5859 4.82698 11.8039 4.98274C13.0289 5.85796 13.8271 7.29171 13.8271 8.91175Z" fill="url(#paint6_linear_5053_23150)"/>
<path d="M5.42972 9.31821C5.42972 9.92463 5.75323 10.485 6.27841 10.7882L8.15217 11.8701C8.67738 12.1734 9.3245 12.1734 9.84971 11.8701L11.7235 10.7882C12.2487 10.485 12.5722 9.92467 12.5722 9.31821V5.66675C12.3411 5.4126 12.0835 5.1829 11.8033 4.98275C11.5853 4.82696 11.2822 4.9848 11.2822 5.25275V8.43801C11.2822 8.8254 11.0755 9.18335 10.74 9.37705L9.54311 10.0681C9.20761 10.2619 8.79424 10.2619 8.45873 10.0681L7.26181 9.37705C6.92633 9.18335 6.71969 8.8254 6.71969 8.43801V5.25286C6.71969 4.98349 6.41503 4.82785 6.19596 4.98459C5.91678 5.18432 5.66009 5.41338 5.42969 5.66675V9.31821H5.42972Z" fill="url(#paint7_linear_5053_23150)"/>
</g>
</g>
<defs>
<linearGradient id="paint0_linear_5053_23150" x1="5.76731" y1="5.67747" x2="14.5207" y2="14.4309" gradientUnits="userSpaceOnUse">
<stop stop-color="#7FAEF4"/>
<stop offset="1" stop-color="#4C8DF1"/>
</linearGradient>
<linearGradient id="paint1_linear_5053_23150" x1="12.76" y1="12.6709" x2="4.62124" y2="4.53213" gradientUnits="userSpaceOnUse">
<stop stop-color="#7FAEF4"/>
<stop offset="1" stop-color="#4C8DF1"/>
</linearGradient>
<linearGradient id="paint2_linear_5053_23150" x1="9.88337" y1="10.4973" x2="3.78388" y2="7.46477" gradientUnits="userSpaceOnUse">
<stop stop-color="#4C8DF1" stop-opacity="0"/>
<stop offset="0.5631" stop-color="#466CC8" stop-opacity="0.563"/>
<stop offset="1" stop-color="#4256AC"/>
</linearGradient>
<linearGradient id="paint3_linear_5053_23150" x1="14.8572" y1="12.8548" x2="10.3046" y2="10.6592" gradientUnits="userSpaceOnUse">
<stop stop-color="#4C8DF1" stop-opacity="0"/>
<stop offset="0.5631" stop-color="#466CC8" stop-opacity="0.563"/>
<stop offset="1" stop-color="#4256AC"/>
</linearGradient>
<linearGradient id="paint4_linear_5053_23150" x1="8.83382" y1="14.6759" x2="11.7366" y2="17.5787" gradientUnits="userSpaceOnUse">
<stop stop-color="#FFD833"/>
<stop offset="1" stop-color="#F2B631"/>
</linearGradient>
<linearGradient id="paint5_linear_5053_23150" x1="10.407" y1="15.7267" x2="8.49118" y2="11.3908" gradientUnits="userSpaceOnUse">
<stop stop-color="#F9A126" stop-opacity="0"/>
<stop offset="1" stop-color="#EC4437"/>
</linearGradient>
<linearGradient id="paint6_linear_5053_23150" x1="7.23357" y1="7.14517" x2="13.5349" y2="13.4465" gradientUnits="userSpaceOnUse">
<stop stop-color="#FFD833"/>
<stop offset="1" stop-color="#F2B631"/>
</linearGradient>
<linearGradient id="paint7_linear_5053_23150" x1="11.68" y1="10.5192" x2="4.53572" y2="3.37493" gradientUnits="userSpaceOnUse">
<stop stop-color="#FFD833"/>
<stop offset="1" stop-color="#F2B631"/>
</linearGradient>
<clipPath id="clip0_5053_23150">
<rect width="18" height="18" fill="white" transform="translate(0 0.5)"/>
</clipPath>
<clipPath id="clip1_5053_23150">
<rect width="18" height="18" fill="white" transform="translate(0 0.5)"/>
</clipPath>
</defs>
</svg>
