<svg width="18" height="18" viewBox="0 0 18 18" fill="none" xmlns="http://www.w3.org/2000/svg">
<path fill-rule="evenodd" clip-rule="evenodd" d="M14.9023 3.375C14.9023 3.2175 14.7786 3.09375 14.6211 3.09375H3.37109C3.21359 3.09375 3.08984 3.2175 3.08984 3.375V11.25C3.08984 12.8138 3.71422 14.3212 4.82234 15.4237C5.93047 16.5319 7.43234 17.1562 8.99609 17.1562C10.5598 17.1562 12.0673 16.5319 13.1698 15.4237C14.278 14.3156 14.9023 12.8138 14.9023 11.25V3.375Z" fill="#F05253"/>
<path d="M8.99609 15.75C9.61741 15.75 10.1211 15.2463 10.1211 14.625C10.1211 14.0037 9.61741 13.5 8.99609 13.5C8.37477 13.5 7.87109 14.0037 7.87109 14.625C7.87109 15.2463 8.37477 15.75 8.99609 15.75Z" fill="#6ACFF6"/>
<path fill-rule="evenodd" clip-rule="evenodd" d="M6.81922 15.1875C5.43547 14.4225 4.49609 12.9431 4.49609 11.25V4.5H13.4961V11.25C13.4961 12.9431 12.5567 14.4225 11.173 15.1875C11.218 15.0075 11.2461 14.8162 11.2461 14.625C11.2461 13.3819 10.2392 12.375 8.99609 12.375C7.75297 12.375 6.74609 13.3819 6.74609 14.625C6.74609 14.8219 6.76859 15.0075 6.81922 15.1875Z" fill="#F2F3F3"/>
<path d="M14.6211 0.84375H3.37109C3.21576 0.84375 3.08984 0.96967 3.08984 1.125V3.375C3.08984 3.53033 3.21576 3.65625 3.37109 3.65625H14.6211C14.7764 3.65625 14.9023 3.53033 14.9023 3.375V1.125C14.9023 0.96967 14.7764 0.84375 14.6211 0.84375Z" fill="#6ACFF6"/>
<path fill-rule="evenodd" clip-rule="evenodd" d="M8.99609 13.7812C9.46297 13.7812 9.83984 14.1581 9.83984 14.625C9.83984 15.0919 9.46297 15.4688 8.99609 15.4688C8.52922 15.4688 8.15234 15.0919 8.15234 14.625C8.15234 14.1581 8.52922 13.7812 8.99609 13.7812ZM8.99609 13.2188C8.21984 13.2188 7.58984 13.8487 7.58984 14.625C7.58984 15.4012 8.21984 16.0312 8.99609 16.0312C9.77234 16.0312 10.4023 15.4012 10.4023 14.625C10.4023 13.8487 9.77234 13.2188 8.99609 13.2188Z" fill="#25AFE5"/>
<path fill-rule="evenodd" clip-rule="evenodd" d="M6.46484 14.625C5.44109 13.8544 4.77734 12.6281 4.77734 11.25V4.78125H13.2148V11.25C13.2148 12.6281 12.5511 13.8544 11.5273 14.625C11.5273 13.23 10.3911 12.0938 8.99609 12.0938C7.60109 12.0938 6.46484 13.23 6.46484 14.625ZM6.67859 15.435C6.77422 15.4913 6.89797 15.48 6.98797 15.4125C7.07797 15.345 7.11734 15.2269 7.08922 15.12C7.04984 14.9625 7.02734 14.7994 7.02734 14.625C7.02734 13.5394 7.91047 12.6562 8.99609 12.6562C10.0817 12.6562 10.9648 13.5394 10.9648 14.625C10.9648 14.7937 10.9423 14.9625 10.903 15.12C10.8748 15.2269 10.9142 15.345 11.0042 15.4125C11.0942 15.48 11.2123 15.4913 11.3136 15.435C12.7817 14.6194 13.7773 13.05 13.7773 11.25V4.5C13.7773 4.3425 13.6536 4.21875 13.4961 4.21875H4.49609C4.33859 4.21875 4.21484 4.3425 4.21484 4.5V11.25C4.21484 13.05 5.21047 14.6194 6.67859 15.435Z" fill="#D9D9D8"/>
<path fill-rule="evenodd" clip-rule="evenodd" d="M8.99636 6.23808C8.24824 5.30433 7.06136 5.3887 6.43699 5.98495C5.77324 6.61495 5.71699 7.86933 6.38074 9.12933C6.81386 10.0125 7.92199 10.9012 8.85011 11.4862C8.94011 11.5425 9.05824 11.5425 9.15386 11.4862C10.082 10.9012 11.1845 10.0068 11.6232 9.12933C12.2814 7.86933 12.2307 6.61495 11.567 5.98495C10.9426 5.3887 9.75011 5.30433 9.00761 6.23808H8.99636Z" fill="#F05253"/>
<path fill-rule="evenodd" clip-rule="evenodd" d="M5.62156 8.71872H7.30906C7.41594 8.71872 7.51156 8.65685 7.56219 8.56122L7.78719 8.11685L8.16406 9.62997C8.19219 9.7481 8.29906 9.8381 8.42844 9.84372C8.55219 9.84372 8.66469 9.7706 8.70406 9.65247L9.05281 8.60622L9.31156 9.12372C9.36219 9.22497 9.46906 9.28685 9.58156 9.2756C9.69406 9.26997 9.78969 9.19122 9.82906 9.08435L10.1778 8.0381L10.4366 8.5556C10.4816 8.65122 10.5828 8.7131 10.6897 8.7131H12.3772C12.5347 8.7131 12.6584 8.58935 12.6584 8.43185C12.6584 8.27435 12.5347 8.1506 12.3772 8.1506H10.8641L10.3803 7.1831C10.3297 7.08185 10.2228 7.01997 10.1103 7.03122C9.99781 7.03685 9.89656 7.1156 9.86281 7.22247L9.51406 8.2631L9.25531 7.7456C9.20469 7.64435 9.09781 7.58247 8.98531 7.59372C8.87281 7.59935 8.77156 7.6781 8.73781 7.78497L8.47906 8.5556L8.15281 7.24497C8.12469 7.13247 8.02906 7.0481 7.91094 7.03122C7.79281 7.01997 7.68031 7.08185 7.62969 7.1831L7.14594 8.1506H5.63281C5.47531 8.1506 5.35156 8.27435 5.35156 8.43185C5.35156 8.58935 5.47531 8.7131 5.63281 8.7131L5.62156 8.71872Z" fill="#E22026"/>
<path fill-rule="evenodd" clip-rule="evenodd" d="M13.2148 1.125C13.2148 0.9675 13.0911 0.84375 12.9336 0.84375H5.05859C4.98547 0.84375 4.91234 0.871875 4.86172 0.928125C4.81109 0.97875 4.77734 1.05187 4.77734 1.125C4.77734 1.90125 5.40734 2.53125 6.18359 2.53125H11.8086C12.5848 2.53125 13.2148 1.90125 13.2148 1.125Z" fill="#F2F3F3"/>
</svg>
