<svg width="18" height="18" viewBox="0 0 18 18" fill="none" xmlns="http://www.w3.org/2000/svg">
<path d="M13.5 13.5C13.5 11.8344 12.595 10.3803 11.25 9.60219V2.25C11.25 1.00737 10.2426 0 9 0C7.75737 0 6.75 1.00737 6.75 2.25V9.60219C5.40499 10.3803 4.5 11.8344 4.5 13.5C4.5 15.9853 6.51473 18 9 18C11.4853 18 13.5 15.9853 13.5 13.5Z" fill="url(#paint0_linear_5060_77017)"/>
<path d="M9.00141 17.6849C6.69382 17.6849 4.81641 15.8075 4.81641 13.4999C4.81641 12.0106 5.61832 10.6215 6.90912 9.87477L7.06641 9.78375V2.24994C7.06641 1.18298 7.93441 0.314941 9.00141 0.314941C10.0684 0.314941 10.9364 1.18298 10.9364 2.24994V9.78375L11.0937 9.87477C12.3846 10.6215 13.1864 12.0106 13.1864 13.4999C13.1864 15.8075 11.309 17.6849 9.00141 17.6849Z" fill="url(#paint1_linear_5060_77017)"/>
<path d="M10.125 10.3178V2.25C10.125 1.62865 9.62135 1.125 9 1.125C8.37865 1.125 7.875 1.62865 7.875 2.25V10.3178C6.5643 10.7812 5.625 12.0306 5.625 13.5C5.625 15.3445 7.10497 16.8425 8.9421 16.8735C8.96126 16.8745 8.98056 16.875 9 16.875C9.01944 16.875 9.03874 16.8745 9.0579 16.8735C10.895 16.8425 12.375 15.3445 12.375 13.5C12.375 12.0306 11.4357 10.7812 10.125 10.3178Z" fill="url(#paint2_linear_5060_77017)"/>
<path d="M11.3479 9.65918C11.7772 10.3578 12.0167 11.1714 12.0167 12.0151C12.0167 14.4968 9.99762 16.5159 7.51587 16.5159C6.65448 16.5159 5.84887 16.2724 5.16406 15.851C5.95677 17.1392 7.37971 18 9.00007 18C11.4818 18 13.5009 15.981 13.5009 13.4992C13.5009 11.9355 12.6786 10.4749 11.3479 9.65918Z" fill="url(#paint3_radial_5060_77017)"/>
<path d="M10.125 10.3178V7.02002H7.875V10.3178C6.5643 10.7812 5.625 12.0306 5.625 13.5C5.625 15.3446 7.10497 16.8425 8.9421 16.8735C8.96126 16.8745 8.98056 16.875 9 16.875C9.01944 16.875 9.03874 16.8745 9.0579 16.8735C10.895 16.8425 12.375 15.3446 12.375 13.5C12.375 12.0306 11.4357 10.7812 10.125 10.3178Z" fill="url(#paint4_linear_5060_77017)"/>
<path d="M10.1269 7.02136V8.83128L10.0045 8.70886L9.02127 7.72516C8.94611 7.65674 8.89844 7.5582 8.89844 7.44795V7.39666C8.89844 7.1892 9.06673 7.02136 9.27419 7.02136H10.1269Z" fill="url(#paint5_linear_5060_77017)"/>
<path d="M10.1269 5.33386V7.14378L10.0045 7.02136L9.02127 6.03766C8.94611 5.96924 8.89844 5.8707 8.89844 5.76045V5.70916C8.89844 5.5017 9.06673 5.33386 9.27419 5.33386H10.1269Z" fill="url(#paint6_linear_5060_77017)"/>
<path d="M10.1269 2.24999V3.76874L10.0045 3.64633L9.02127 2.66266C8.94611 2.59424 8.89844 2.4957 8.89844 2.38545V2.33416C8.89844 2.1267 9.06673 1.95886 9.27419 1.95886H10.0887C10.1139 2.05153 10.1269 2.1492 10.1269 2.24999Z" fill="url(#paint7_linear_5060_77017)"/>
<path d="M10.1269 3.64636V5.45628L10.0045 5.33386L9.02127 4.35016C8.94611 4.28174 8.89844 4.1832 8.89844 4.07295V4.02166C8.89844 3.8142 9.06673 3.64636 9.27419 3.64636H10.1269Z" fill="url(#paint8_linear_5060_77017)"/>
<path d="M10.9716 10.7599H10.5229C10.4127 10.7599 10.3141 10.7122 10.2453 10.6371L9.02127 9.41266C8.94611 9.34424 8.89844 9.2457 8.89844 9.13545V9.08416C8.89844 8.8767 9.06673 8.70886 9.27419 8.70886H10.1269V10.3176C10.4307 10.4252 10.7146 10.575 10.9716 10.7599Z" fill="url(#paint9_linear_5060_77017)"/>
<path d="M10.2272 8.70862H9.27021C9.06272 8.70862 8.89453 8.87681 8.89453 9.0843V9.13549C8.89453 9.34298 9.06272 9.51116 9.27021 9.51116H10.2272C10.4347 9.51116 10.6028 9.34298 10.6028 9.13549V9.0843C10.6028 8.87681 10.4346 8.70862 10.2272 8.70862Z" fill="url(#paint10_linear_5060_77017)"/>
<path d="M10.2272 7.02112H9.27021C9.06272 7.02112 8.89453 7.18931 8.89453 7.3968V7.44799C8.89453 7.65548 9.06272 7.82367 9.27021 7.82367H10.2272C10.4347 7.82367 10.6028 7.65548 10.6028 7.44799V7.3968C10.6028 7.18931 10.4346 7.02112 10.2272 7.02112Z" fill="url(#paint11_linear_5060_77017)"/>
<path d="M10.2272 5.33362H9.27021C9.06272 5.33362 8.89453 5.50181 8.89453 5.7093V5.76049C8.89453 5.96798 9.06272 6.13617 9.27021 6.13617H10.2272C10.4347 6.13617 10.6028 5.96798 10.6028 5.76049V5.7093C10.6028 5.50181 10.4346 5.33362 10.2272 5.33362Z" fill="url(#paint12_linear_5060_77017)"/>
<path d="M10.2272 3.64612H9.27021C9.06272 3.64612 8.89453 3.81431 8.89453 4.0218V4.07299C8.89453 4.28048 9.06272 4.44867 9.27021 4.44867H10.2272C10.4347 4.44867 10.6028 4.28048 10.6028 4.07299V4.0218C10.6028 3.81431 10.4346 3.64612 10.2272 3.64612Z" fill="url(#paint13_linear_5060_77017)"/>
<path d="M10.2272 1.95862H9.27021C9.06272 1.95862 8.89453 2.12681 8.89453 2.3343V2.38549C8.89453 2.59298 9.06272 2.76117 9.27021 2.76117H10.2272C10.4347 2.76117 10.6028 2.59298 10.6028 2.38549V2.3343C10.6028 2.12681 10.4346 1.95862 10.2272 1.95862Z" fill="url(#paint14_linear_5060_77017)"/>
<path d="M10.3872 10.4244C10.5787 10.8478 10.6856 11.3176 10.6856 11.8125C10.6856 13.6571 9.20564 15.155 7.36852 15.186C7.34936 15.187 7.33006 15.1875 7.31062 15.1875C7.29118 15.1875 7.27187 15.187 7.25271 15.186C6.77877 15.178 6.32898 15.0717 5.92188 14.8877C6.4438 16.0423 7.59598 16.8508 8.94021 16.8735C8.95937 16.8745 8.97868 16.875 8.99812 16.875C9.01756 16.875 9.03686 16.8745 9.05602 16.8735C10.8931 16.8425 12.3731 15.3446 12.3731 13.5C12.3731 12.1314 11.5581 10.954 10.3872 10.4244Z" fill="url(#paint15_radial_5060_77017)"/>
<defs>
<linearGradient id="paint0_linear_5060_77017" x1="9.00028" y1="20.655" x2="9.00028" y2="6.93561" gradientUnits="userSpaceOnUse">
<stop stop-color="white"/>
<stop offset="1" stop-color="#E8EFEE"/>
</linearGradient>
<linearGradient id="paint1_linear_5060_77017" x1="9.00168" y1="2.35538" x2="9.00168" y2="15.5582" gradientUnits="userSpaceOnUse">
<stop stop-color="white"/>
<stop offset="1" stop-color="#E8EFEE"/>
</linearGradient>
<linearGradient id="paint2_linear_5060_77017" x1="9.00028" y1="17.5499" x2="9.00028" y2="2.92598" gradientUnits="userSpaceOnUse">
<stop stop-color="#C2CECE"/>
<stop offset="1" stop-color="#97AAAA"/>
</linearGradient>
<radialGradient id="paint3_radial_5060_77017" cx="0" cy="0" r="1" gradientUnits="userSpaceOnUse" gradientTransform="translate(8.34713 13.0877) scale(5.32142)">
<stop offset="0.0001" stop-color="white" stop-opacity="0"/>
<stop offset="0.482" stop-color="#FDFDFD" stop-opacity="0.482"/>
<stop offset="0.656" stop-color="#F6F7F7" stop-opacity="0.655"/>
<stop offset="0.779" stop-color="#EBEDEC" stop-opacity="0.779"/>
<stop offset="0.879" stop-color="#DADDDD" stop-opacity="0.879"/>
<stop offset="0.964" stop-color="#C4CAC9" stop-opacity="0.964"/>
<stop offset="1" stop-color="#B8BFBE"/>
</radialGradient>
<linearGradient id="paint4_linear_5060_77017" x1="6.08299" y1="7.32005" x2="10.6731" y2="15.9303" gradientUnits="userSpaceOnUse">
<stop stop-color="#FF7BAC"/>
<stop offset="0.03" stop-color="#FD78A5"/>
<stop offset="0.278" stop-color="#EF606C"/>
<stop offset="0.508" stop-color="#E44C40"/>
<stop offset="0.712" stop-color="#DD3E20"/>
<stop offset="0.883" stop-color="#D8360C"/>
<stop offset="1" stop-color="#D63305"/>
</linearGradient>
<linearGradient id="paint5_linear_5060_77017" x1="10.5701" y1="8.36892" x2="9.35735" y2="7.15614" gradientUnits="userSpaceOnUse">
<stop offset="0.0001" stop-color="#D63305" stop-opacity="0"/>
<stop offset="1" stop-color="#960000"/>
</linearGradient>
<linearGradient id="paint6_linear_5060_77017" x1="10.4276" y1="6.53887" x2="9.21485" y2="5.32608" gradientUnits="userSpaceOnUse">
<stop stop-color="#363F3E" stop-opacity="0"/>
<stop offset="1" stop-color="#303033"/>
</linearGradient>
<linearGradient id="paint7_linear_5060_77017" x1="10.4179" y1="3.1731" x2="9.2051" y2="1.96031" gradientUnits="userSpaceOnUse">
<stop stop-color="#363F3E" stop-opacity="0"/>
<stop offset="1" stop-color="#303033"/>
</linearGradient>
<linearGradient id="paint8_linear_5060_77017" x1="10.4276" y1="4.85131" x2="9.21485" y2="3.63853" gradientUnits="userSpaceOnUse">
<stop stop-color="#363F3E" stop-opacity="0"/>
<stop offset="1" stop-color="#303033"/>
</linearGradient>
<linearGradient id="paint9_linear_5060_77017" x1="10.9943" y1="10.4806" x2="9.31422" y2="8.80091" gradientUnits="userSpaceOnUse">
<stop offset="0.0001" stop-color="#D63305" stop-opacity="0"/>
<stop offset="1" stop-color="#960000"/>
</linearGradient>
<linearGradient id="paint10_linear_5060_77017" x1="9.74897" y1="8.91638" x2="9.74897" y2="9.7114" gradientUnits="userSpaceOnUse">
<stop stop-color="white"/>
<stop offset="1" stop-color="#E8EFEE"/>
</linearGradient>
<linearGradient id="paint11_linear_5060_77017" x1="9.74897" y1="7.22882" x2="9.74897" y2="8.02347" gradientUnits="userSpaceOnUse">
<stop stop-color="white"/>
<stop offset="1" stop-color="#E8EFEE"/>
</linearGradient>
<linearGradient id="paint12_linear_5060_77017" x1="9.74897" y1="5.54127" x2="9.74897" y2="6.33592" gradientUnits="userSpaceOnUse">
<stop stop-color="white"/>
<stop offset="1" stop-color="#E8EFEE"/>
</linearGradient>
<linearGradient id="paint13_linear_5060_77017" x1="9.74897" y1="3.85372" x2="9.74897" y2="4.64837" gradientUnits="userSpaceOnUse">
<stop stop-color="white"/>
<stop offset="1" stop-color="#E8EFEE"/>
</linearGradient>
<linearGradient id="paint14_linear_5060_77017" x1="9.74897" y1="2.16598" x2="9.74897" y2="2.961" gradientUnits="userSpaceOnUse">
<stop stop-color="white"/>
<stop offset="1" stop-color="#E8EFEE"/>
</linearGradient>
<radialGradient id="paint15_radial_5060_77017" cx="0" cy="0" r="1" gradientUnits="userSpaceOnUse" gradientTransform="translate(7.17509 12.1269) scale(5.53067)">
<stop offset="0.0001" stop-color="#D63305" stop-opacity="0"/>
<stop offset="0.441" stop-color="#D43105" stop-opacity="0.44"/>
<stop offset="0.631" stop-color="#CD2C04" stop-opacity="0.631"/>
<stop offset="0.774" stop-color="#C02203" stop-opacity="0.773"/>
<stop offset="0.891" stop-color="#AF1402" stop-opacity="0.891"/>
<stop offset="0.994" stop-color="#980100" stop-opacity="0.994"/>
<stop offset="1" stop-color="#960000"/>
</radialGradient>
</defs>
</svg>
