<svg width="26" height="27" viewBox="0 0 26 27" fill="none" xmlns="http://www.w3.org/2000/svg">
<path d="M11.7717 15.189C11.7717 14.6227 11.3126 14.1636 10.7463 14.1636H5.29987C4.73351 14.1636 4.27441 14.6227 4.27441 15.189C4.27441 15.7554 4.73351 16.2145 5.29987 16.2145H10.7463C11.3126 16.2145 11.7717 15.7554 11.7717 15.189Z" fill="white"/>
<path d="M5.29987 18.6001C4.73351 18.6001 4.27441 19.0592 4.27441 19.6256C4.27441 20.1919 4.73351 20.651 5.29987 20.651H9.67113C10.2375 20.651 10.6966 20.1919 10.6966 19.6256C10.6966 19.0592 10.2375 18.6001 9.67113 18.6001H5.29987Z" fill="white"/>
<path d="M15.9138 10.752C15.9138 10.1857 15.4547 9.72656 14.8884 9.72656H5.29987C4.73351 9.72656 4.27441 10.1857 4.27441 10.752C4.27441 11.3184 4.73351 11.7775 5.29987 11.7775H14.8884C15.4547 11.7775 15.9138 11.3184 15.9138 10.752Z" fill="white"/>
<path d="M11.4328 24.2007H4.10182C2.97095 24.2007 2.05091 23.2807 2.05091 22.1498V6.58732C2.05091 5.45645 2.97095 4.53641 4.10182 4.53641H6.41832V5.16024C6.41832 5.7266 6.87742 6.1857 7.44378 6.1857H12.7448C13.3111 6.1857 13.7702 5.7266 13.7702 5.16024V4.53641H16.0867C17.2176 4.53641 18.1376 5.45645 18.1376 6.58732V9.92758C18.1376 10.4939 18.5967 10.953 19.1631 10.953C19.7294 10.953 20.1885 10.4939 20.1885 9.92758V6.58732C20.1885 4.32557 18.3485 2.4855 16.0867 2.4855H13.7702V1.02545C13.7702 0.459096 13.3111 0 12.7448 0H7.44378C6.87742 0 6.41832 0.459096 6.41832 1.02545V2.4855H4.10182C1.84008 2.4855 0 4.32557 0 6.58732V22.1498C0 24.4116 1.84008 26.2516 4.10182 26.2516H11.4328C11.9991 26.2516 12.4583 25.7926 12.4583 25.2262C12.4583 24.6598 11.9991 24.2007 11.4328 24.2007ZM8.46923 2.05091H11.7193V4.13479H8.46923V2.05091Z" fill="white"/>
<path d="M19.3733 12.9995C15.7196 12.9995 12.7471 15.972 12.7471 19.6257C12.7471 23.2794 15.7196 26.2519 19.3733 26.2519C23.027 26.2519 25.9994 23.2794 25.9994 19.6257C25.9994 15.972 23.027 12.9995 19.3733 12.9995ZM19.3733 24.201C16.8504 24.201 14.798 22.1485 14.798 19.6257C14.798 17.1029 16.8504 15.0504 19.3733 15.0504C21.8961 15.0504 23.9485 17.1029 23.9485 19.6257C23.9485 22.1485 21.8961 24.201 19.3733 24.201Z" fill="#1BD15D"/>
<path d="M20.7014 19.0042H20.1993V17.8912C20.1993 17.3248 19.7403 16.8657 19.1739 16.8657C18.6075 16.8657 18.1484 17.3248 18.1484 17.8912V20.0297C18.1484 20.596 18.6075 21.0551 19.1739 21.0551H20.7014C21.2677 21.0551 21.7268 20.596 21.7268 20.0297C21.7268 19.4633 21.2677 19.0042 20.7014 19.0042Z" fill="#1BD15D"/>
</svg>
